<svg width="126" height="124" viewBox="0 0 126 124" fill="none" xmlns="http://www.w3.org/2000/svg">
<path d="M117.185 57.6952C117.182 57.6986 117.181 57.7026 117.18 57.7067C115.809 60.1693 112.051 63.1541 105.812 65.4045C105.846 65.4045 105.879 65.4045 105.911 65.4045C109.127 65.4694 110.668 66.345 110.861 67.4916C110.999 68.3198 110.444 69.2824 109.313 70.1884C109.311 70.1905 109.308 70.1916 109.305 70.1916C107.565 71.5807 104.473 72.8226 100.47 73.1967C101.411 73.6835 102.092 74.1574 102.543 74.6092C106.694 78.7558 91.5045 80.998 81.1256 73.7479L79.2607 53.2859L85.7089 50.0066C88.9371 48.4422 92.1045 46.8009 95.1873 45.0589C99.9625 42.37 104.542 39.4367 108.853 36.174C110.109 35.2202 111.752 34.8742 113.259 35.3343C114.232 35.6222 115.073 36.2406 115.639 37.0827C117.022 39.1096 117.007 42.4661 115.433 46.0173C114.721 47.6241 113.688 49.2713 112.322 50.8564C112.321 50.8577 112.32 50.8592 112.319 50.861C111.375 51.9514 110.334 52.9542 109.21 53.8569C112.283 52.9909 114.54 52.9472 115.964 53.4506C117.846 54.1178 118.27 55.7406 117.185 57.6952Z" fill="white"/>
<g opacity="0.3">
<path opacity="0.3" d="M117.185 57.6947C117.182 57.6981 117.181 57.702 117.18 57.7062C116.03 60.5166 111.593 63.3827 105.911 65.4058C103.959 66.1002 101.964 66.6688 99.939 67.1083L94.8253 68.0147C93.1269 72.5188 109.586 69.7668 108.491 66.2101C109.733 66.6136 110.488 67.0475 110.861 67.4943C111.615 68.3865 110.83 69.3297 109.313 70.1911C109.311 70.1931 109.308 70.1943 109.305 70.1943C106.256 71.9239 100.271 73.3194 97.8667 73.3171C97.8667 73.3171 95.2049 73.3245 93.3722 72.9707C91.5395 72.6168 91.9325 76.9958 102.225 74.6796C102.334 74.6556 102.44 74.6335 102.543 74.6119C106.694 78.7585 91.5046 81.0007 81.1256 73.7506L79.2607 53.2886L85.7089 50.0093C88.9371 48.4449 92.1046 46.8036 95.1874 45.0616L96.1182 45.1246C96.1182 45.1246 91.563 48.7163 89.4221 53.8563C88.4788 56.1238 90.7357 58.429 93.017 57.5198C102.621 53.6916 110.669 47.6121 115.638 37.0845C115.638 37.0845 117.549 40.9007 115.432 46.0191C114.804 47.5375 113.818 49.1742 112.321 50.8582C112.32 50.8594 112.319 50.861 112.318 50.8628C110.831 52.534 108.841 54.2567 106.192 55.9614L99.0943 59.5996C95.5587 66.6394 114.775 59.2315 115.963 53.4524C117.476 54.7628 117.782 56.2218 117.185 57.6947Z" fill="#390176"/>
</g>
<path d="M102.599 58.7686C102.374 58.7686 102.157 58.6911 101.983 58.5492C101.809 58.4074 101.689 58.2098 101.644 57.99C101.599 57.7701 101.631 57.5413 101.735 57.3424C101.839 57.1434 102.008 56.9863 102.214 56.8977C111.417 52.9531 115.946 45.5963 115.661 40.3679C115.593 39.1219 115.155 36.9318 112.975 36.2678C111.801 35.9098 110.48 36.1657 109.441 36.9515C102.927 41.8854 95.3037 46.4429 86.1325 50.8854C85.8999 50.9981 85.632 51.0137 85.3878 50.9289C85.1436 50.8441 84.9431 50.6657 84.8304 50.4331C84.7177 50.2004 84.7021 49.9325 84.7869 49.6883C84.8717 49.4441 85.0501 49.2436 85.2827 49.1309C94.336 44.7451 101.853 40.2506 108.264 35.3977C109.799 34.235 111.772 33.8632 113.542 34.4029C115.962 35.1391 117.443 37.2759 117.607 40.2621C117.929 46.1664 113.009 54.3924 102.981 58.6894C102.86 58.7416 102.73 58.7685 102.599 58.7686Z" fill="#390176"/>
<path d="M99.0261 68.2835C98.785 68.2836 98.5525 68.1943 98.3734 68.0329C98.1943 67.8715 98.0814 67.6494 98.0565 67.4096C98.0316 67.1698 98.0965 66.9293 98.2386 66.7345C98.3807 66.5397 98.59 66.4046 98.826 66.3552C110.467 63.9045 115.884 59.0645 116.687 56.4091C116.992 55.401 116.586 54.9878 116.453 54.852C115.702 54.0869 113.475 53.6704 109.476 54.7968C109.227 54.8669 108.96 54.8352 108.735 54.7088C108.509 54.5824 108.343 54.3716 108.273 54.1227C108.203 53.8739 108.235 53.6075 108.361 53.382C108.488 53.1565 108.698 52.9905 108.947 52.9204C113.162 51.7333 116.322 51.9344 117.845 53.4869C118.714 54.3726 118.965 55.6108 118.553 56.9737C117.392 60.8116 110.966 65.791 99.2277 68.2628C99.1614 68.2767 99.0939 68.2836 99.0261 68.2835Z" fill="#390176"/>
<path d="M97.9118 74.2916C97.6765 74.2916 97.4395 74.2887 97.2009 74.2829C96.9424 74.2798 96.6958 74.1742 96.5152 73.9893C96.3346 73.8044 96.2348 73.5553 96.2379 73.2968C96.2409 73.0384 96.3465 72.7917 96.5314 72.6111C96.7163 72.4305 96.9654 72.3308 97.2239 72.3338H97.2474C104.239 72.4995 108.983 70.0296 109.989 68.3064C110.255 67.8509 110.141 67.659 110.103 67.596C109.79 67.0715 108.319 66.4949 105.219 66.5989C104.964 66.6028 104.717 66.5061 104.532 66.3298C104.347 66.1535 104.238 65.9117 104.23 65.6562C104.221 65.4008 104.314 65.1523 104.487 64.9642C104.659 64.7761 104.899 64.6634 105.155 64.6503C108.707 64.5321 110.937 65.1873 111.778 66.5975C112.256 67.3991 112.218 68.3552 111.673 69.2897C110.229 71.7605 104.958 74.2912 97.9118 74.2916Z" fill="#390176"/>
<path d="M96.4856 79.4327C91.7252 79.4327 85.5453 78.0238 80.5692 74.5489C80.3626 74.3987 80.2232 74.1735 80.1809 73.9217C80.1387 73.6698 80.1969 73.4114 80.3431 73.2021C80.4893 72.9927 80.7118 72.849 80.9628 72.802C81.2138 72.7549 81.4733 72.8082 81.6854 72.9504C89.1333 78.1498 98.73 78.0965 101.573 76.6103C102.056 76.3577 102.272 76.1041 102.272 75.962C102.272 75.9316 102.244 75.2138 100.022 74.0649C99.9059 74.0075 99.8024 73.9275 99.7175 73.8297C99.6326 73.7319 99.568 73.6181 99.5276 73.495C99.4871 73.3719 99.4716 73.242 99.482 73.1129C99.4923 72.9838 99.5283 72.858 99.5878 72.7429C99.6473 72.6279 99.7291 72.5258 99.8285 72.4427C99.9279 72.3596 100.043 72.2972 100.167 72.259C100.29 72.2208 100.421 72.2077 100.549 72.2204C100.678 72.2331 100.803 72.2714 100.917 72.333C103.138 73.4833 104.218 74.6662 104.221 75.9574C104.221 76.6264 103.921 77.5825 102.476 78.3376C101.142 79.0347 99.0125 79.4327 96.4856 79.4327Z" fill="#390176"/>
<path d="M7.34975 57.6956C7.35216 57.6991 7.35374 57.703 7.35435 57.7071C8.72551 60.1697 12.4833 63.1545 18.7226 65.405C18.6881 65.405 18.6558 65.405 18.6236 65.405C15.4074 65.4698 13.8664 66.3455 13.6737 67.4921C13.5356 68.3203 14.091 69.2829 15.2215 70.1888C15.2238 70.1909 15.2267 70.192 15.2298 70.1921C16.9695 71.5812 20.0611 72.823 24.0641 73.1971C23.1232 73.6839 22.4426 74.1578 21.9936 74.6097C17.8433 78.7563 33.0323 80.9985 43.4113 73.7483L45.2734 53.2881L38.8253 50.0088C35.597 48.4444 32.4296 46.8032 29.3468 45.0612C24.5716 42.3722 19.9925 39.4389 15.6812 36.1762C14.425 35.2224 12.7847 34.8787 11.2755 35.3388C10.3027 35.6266 9.46083 36.245 8.8953 37.0873C7.51171 39.1141 7.5269 42.4707 9.10097 46.0219C9.81324 47.6286 10.8457 49.2759 12.2118 50.861C12.2133 50.8622 12.2144 50.8638 12.2151 50.8656C13.159 51.956 14.1998 52.9587 15.3246 53.8614C12.2514 52.9955 9.99453 52.9518 8.57045 53.4552C6.68855 54.1182 6.26478 55.741 7.34975 57.6956Z" fill="white"/>
<g opacity="0.3">
<path opacity="0.3" d="M7.34942 57.6948C7.35183 57.6982 7.35341 57.7022 7.35402 57.7063C8.50432 60.5167 12.9417 63.3828 18.6233 65.406C20.5756 66.1003 22.5703 66.669 24.5952 67.1084L29.709 68.0149C31.4073 72.519 14.9483 69.767 16.0434 66.2103C14.8034 66.6138 14.046 67.0477 13.6733 67.4945C12.9196 68.3866 13.7051 69.3299 15.2212 70.1912C15.2234 70.1933 15.2264 70.1944 15.2295 70.1945C18.2782 71.924 24.263 73.3196 26.6676 73.3173C26.6676 73.3173 29.3294 73.3246 31.1621 72.9708C32.9947 72.617 32.6018 76.9959 22.3093 74.6797C22.2008 74.6558 22.0945 74.6337 21.9909 74.6121C17.8406 78.7587 33.0297 81.0008 43.4087 73.7507L45.2731 53.2873L38.8249 50.008C35.5967 48.4436 32.4292 46.8024 29.3464 45.0604L28.4156 45.1234C28.4156 45.1234 32.9708 48.7151 35.1117 53.8551C36.055 56.1226 33.7981 58.4278 31.5168 57.5186C21.9127 53.6904 13.8652 47.6108 8.89589 37.0833C8.89589 37.0833 6.98454 40.8995 9.10156 46.0179C9.73009 47.5363 10.7157 49.1729 12.2124 50.857C12.2139 50.8582 12.215 50.8598 12.2157 50.8616C13.7023 52.5327 15.6923 54.2554 18.3422 55.9602L25.44 59.5983C28.9751 66.6382 9.75907 59.2302 8.57104 53.4511C7.05862 54.7629 6.75218 56.222 7.34942 57.6948Z" fill="#390176"/>
</g>
<path d="M21.9361 58.7686C21.8043 58.7686 21.6739 58.7417 21.5529 58.6894C11.5254 54.3924 6.60536 46.1663 6.92744 40.2616C7.09033 37.2759 8.57192 35.1404 10.9917 34.4029C12.7627 33.8631 14.7357 34.2354 16.2702 35.3976C22.6815 40.2533 30.199 44.7455 39.2514 49.1309C39.3666 49.1866 39.4697 49.2646 39.5548 49.3602C39.6399 49.4558 39.7053 49.5672 39.7473 49.6881C39.7893 49.809 39.8071 49.937 39.7997 50.0648C39.7923 50.1925 39.7597 50.3176 39.7039 50.4328C39.6482 50.548 39.5703 50.6511 39.4747 50.7362C39.379 50.8212 39.2676 50.8867 39.1467 50.9287C39.0258 50.9707 38.8978 50.9885 38.7701 50.9811C38.6423 50.9736 38.5172 50.9411 38.402 50.8853C29.2323 46.4433 21.6076 41.8858 15.0937 36.9515C14.0547 36.1665 12.7346 35.9088 11.5604 36.2677C9.38127 36.9317 8.94185 39.1205 8.87422 40.3679C8.58894 45.5962 13.1161 52.9531 22.3208 56.8977C22.5271 56.9863 22.6964 57.1434 22.8003 57.3423C22.9042 57.5413 22.9362 57.7701 22.891 57.9899C22.8458 58.2098 22.7261 58.4074 22.5522 58.5492C22.3782 58.6911 22.1606 58.7685 21.9361 58.7686Z" fill="#390176"/>
<path d="M25.5094 68.2827C25.4415 68.2828 25.3738 68.2758 25.3074 68.262C13.5688 65.7902 7.14321 60.8108 5.98232 56.973C5.56821 55.6101 5.82174 54.3719 6.69045 53.4862C8.21345 51.9333 11.3736 51.7327 15.5878 52.9198C15.711 52.9544 15.8262 53.0131 15.9267 53.0922C16.0273 53.1714 16.1113 53.2697 16.1739 53.3813C16.2364 53.4929 16.2764 53.6158 16.2915 53.7429C16.3067 53.87 16.2966 53.9989 16.2619 54.1221C16.2272 54.2453 16.1686 54.3604 16.0894 54.461C16.0102 54.5615 15.912 54.6455 15.8003 54.7081C15.6887 54.7707 15.5658 54.8107 15.4387 54.8258C15.3116 54.8409 15.1828 54.8308 15.0596 54.7961C11.0598 53.6693 8.83277 54.0857 8.08185 54.8513C7.94888 54.9894 7.54305 55.4003 7.84811 56.4084C8.65148 59.0637 14.0708 63.9037 25.7091 66.3543C25.945 66.4037 26.1543 66.5389 26.2964 66.7336C26.4385 66.9283 26.5035 67.1687 26.4786 67.4085C26.4538 67.6483 26.341 67.8704 26.162 68.0318C25.983 68.1933 25.7505 68.2826 25.5094 68.2827Z" fill="#390176"/>
<path d="M26.6251 74.2912C19.577 74.2912 14.3068 71.7605 12.8638 69.2897C12.3181 68.3551 12.2813 67.399 12.7589 66.5975C13.6 65.1872 15.8279 64.5324 19.3847 64.6502C19.6399 64.6632 19.8799 64.7759 20.0529 64.9641C20.2259 65.1523 20.3181 65.4009 20.3096 65.6564C20.3011 65.9119 20.1926 66.1538 20.0074 66.3301C19.8223 66.5064 19.5754 66.6029 19.3198 66.5989C16.2158 66.4962 14.7485 67.0719 14.4356 67.5959C14.3979 67.659 14.2838 67.8509 14.5497 68.3064C15.5555 70.0295 20.3012 72.4977 27.2914 72.3339C27.5498 72.3277 27.8 72.4245 27.9871 72.6029C28.1741 72.7814 28.2826 73.0268 28.2887 73.2852C28.2948 73.5436 28.198 73.7938 28.0196 73.9808C27.8412 74.1679 27.5958 74.2764 27.3374 74.2825C27.099 74.2885 26.8598 74.2912 26.6251 74.2912Z" fill="#390176"/>
<path d="M28.0515 79.4327C25.5208 79.4327 23.3941 79.0347 22.0607 78.3376C20.6159 77.5825 20.3145 76.6264 20.3159 75.9574C20.3187 74.6662 21.3995 73.481 23.6196 72.333C23.7336 72.2714 23.8587 72.2331 23.9876 72.2204C24.1165 72.2077 24.2466 72.2208 24.3704 72.259C24.4942 72.2972 24.6092 72.3596 24.7086 72.4427C24.8079 72.5258 24.8898 72.6279 24.9493 72.7429C25.0087 72.858 25.0447 72.9838 25.0551 73.1129C25.0654 73.242 25.0499 73.3719 25.0095 73.495C24.969 73.6181 24.9045 73.7319 24.8196 73.8297C24.7347 73.9275 24.6311 74.0075 24.515 74.0649C22.2926 75.2152 22.2655 75.9316 22.2655 75.962C22.2655 76.1 22.4808 76.3577 22.9639 76.6103C25.807 78.0965 35.4038 78.1521 42.8517 72.9504C43.0637 72.8025 43.3258 72.7448 43.5803 72.79C43.8348 72.8353 44.0609 72.9798 44.2089 73.1918C44.3568 73.4037 44.4145 73.6658 44.3693 73.9203C44.324 74.1748 44.1795 74.4009 43.9675 74.5489C38.9922 78.0238 32.8114 79.4327 28.0515 79.4327Z" fill="#390176"/>
<path d="M84.3803 97.4088V97.4115L83.0957 109.642C82.9516 111.033 82.4842 112.381 81.6693 113.514C79.5201 116.496 75.8718 117.167 72.5391 115.302C69.6174 113.67 67.8726 110.529 67.8335 107.183C67.8215 106.157 67.8385 105.156 67.8703 104.232C67.8932 104.229 67.9159 104.225 67.9384 104.22H67.8703V104.232C64.5389 104.867 61.1261 104.952 57.7674 104.483C57.2729 104.415 56.7798 104.335 56.2881 104.242V104.219H56.1593C56.2053 104.226 56.2444 104.236 56.2881 104.241C56.3199 105.161 56.3369 106.158 56.3249 107.182C56.2835 110.528 54.541 113.669 51.6193 115.301C50.4451 115.957 49.2313 116.3 48.0593 116.337C45.9027 116.408 43.8828 115.445 42.4887 113.512C41.6701 112.379 41.2049 111.032 41.0586 109.641L39.7767 97.4106V97.4088C34.1632 88.0569 36.7528 73.195 41.1851 63.6016H82.9733C87.4042 73.1955 89.9919 88.0596 84.3803 97.4088Z" fill="white"/>
<path d="M56.2865 104.219V104.241C56.2428 104.236 56.2014 104.226 56.1577 104.219H56.2865Z" fill="white"/>
<path d="M67.9383 104.219C67.9157 104.224 67.8928 104.228 67.8696 104.231V104.219H67.9383Z" fill="white"/>
<path d="M56.1577 104.219H56.2865V104.241C56.2428 104.237 56.2014 104.228 56.1577 104.219Z" fill="white"/>
<path d="M67.9383 104.219C67.9157 104.224 67.8928 104.228 67.8696 104.231V104.219H67.9383Z" fill="white"/>
<g opacity="0.6">
<path opacity="0.6" d="M49.1737 116.212C46.6104 116.709 44.1174 115.778 42.4872 113.514C41.6687 112.381 41.2035 111.033 41.0572 109.642L39.7753 97.4121V97.4089C34.1618 88.0569 36.7513 73.1951 41.1837 63.6016H43.823C39.3901 73.1951 36.8001 88.0569 42.4145 97.4089V97.4116L43.696 109.642C43.8423 111.033 44.3079 112.38 45.1265 113.514C46.1838 114.981 47.6047 115.89 49.1737 116.212Z" fill="white"/>
<path opacity="0.6" d="M77.6205 116.212C76.005 116.543 74.2308 116.248 72.5375 115.302C69.6157 113.67 67.8709 110.529 67.8318 107.183C67.8222 106.299 67.8318 105.431 67.8562 104.617C68.0343 104.6 68.2096 104.581 68.3877 104.556L68.1461 99.909C68.4634 99.9089 68.7775 99.972 69.0702 100.094C69.3629 100.217 69.6283 100.396 69.8509 100.623C70.0736 100.849 70.2491 101.117 70.3672 101.411C70.4852 101.706 70.5436 102.021 70.5387 102.338L70.5088 104.234C70.4771 105.168 70.4596 106.182 70.4729 107.22C70.5144 110.552 72.2647 113.674 75.1727 115.301C75.9345 115.734 76.761 116.042 77.6205 116.212Z" fill="white"/>
</g>
<path d="M62.0467 96.7175C67.8164 96.7175 72.4937 91.3861 72.4937 84.8096C72.4937 78.2331 67.8164 72.9017 62.0467 72.9017C56.2769 72.9017 51.5996 78.2331 51.5996 84.8096C51.5996 91.3861 56.2769 96.7175 62.0467 96.7175Z" fill="white"/>
<path d="M42.9795 102.282C42.7405 102.282 42.5098 102.194 42.3317 102.035C31.9472 92.7817 35.4262 73.7373 40.2979 63.1928C40.3499 63.0739 40.4251 62.9666 40.5191 62.8772C40.6131 62.7878 40.724 62.718 40.8453 62.672C40.9666 62.626 41.0958 62.6046 41.2255 62.6092C41.3551 62.6137 41.4826 62.6441 41.6003 62.6985C41.7181 62.753 41.8238 62.8304 41.9112 62.9262C41.9987 63.022 42.0662 63.1343 42.1097 63.2565C42.1532 63.3787 42.1719 63.5084 42.1647 63.6379C42.1574 63.7675 42.1244 63.8942 42.0676 64.0109C39.2921 70.0168 37.6444 77.0925 37.5464 83.4233C37.465 88.7046 38.4538 95.9685 43.6283 100.579C43.7759 100.711 43.8801 100.884 43.927 101.076C43.9739 101.268 43.9613 101.47 43.891 101.654C43.8206 101.839 43.6957 101.998 43.5329 102.11C43.3701 102.222 43.1771 102.282 42.9795 102.282Z" fill="#390176"/>
<path d="M47.8413 117.316C45.4518 117.316 43.2248 116.203 41.6963 114.084C40.8138 112.86 40.2575 111.359 40.0859 109.744L38.8035 97.5103C38.7873 97.3816 38.797 97.251 38.832 97.126C38.8669 97.0011 38.9265 96.8844 39.0071 96.7828C39.0877 96.6812 39.1878 96.5967 39.3015 96.5343C39.4152 96.4718 39.5402 96.4327 39.6692 96.4191C39.7982 96.4056 39.9286 96.418 40.0528 96.4555C40.177 96.493 40.2924 96.5549 40.3924 96.6375C40.4923 96.7202 40.5748 96.822 40.6349 96.9369C40.695 97.0519 40.7316 97.1777 40.7425 97.3069L42.0248 109.541C42.1587 110.818 42.5917 111.995 43.2759 112.945C45.1164 115.501 48.2052 116.093 51.1399 114.452C53.6977 113.023 55.3096 110.233 55.3468 107.171C55.3956 103.203 54.9921 99.5684 54.9879 99.533C54.9736 99.4058 54.9845 99.277 55.0199 99.154C55.0554 99.031 55.1147 98.9162 55.1945 98.8162C55.2743 98.7161 55.3731 98.6327 55.4851 98.5708C55.5971 98.5089 55.7202 98.4697 55.8474 98.4554C55.9746 98.4411 56.1034 98.4519 56.2264 98.4874C56.3494 98.5228 56.4642 98.5821 56.5643 98.6619C56.6643 98.7418 56.7477 98.8405 56.8096 98.9525C56.8715 99.0646 56.9107 99.1877 56.9251 99.3149C57.1957 101.933 57.3196 104.564 57.2964 107.196C57.2504 110.953 55.2562 114.386 52.091 116.155C50.6917 116.936 49.2387 117.316 47.8413 117.316Z" fill="#390176"/>
<path d="M44.8632 111.357C44.9304 112.311 45.287 113.227 45.7784 114.012C46.0138 114.394 46.3019 114.741 46.6342 115.042C46.78 115.173 46.9412 115.284 47.1141 115.375L47.2287 115.431C47.2655 115.443 47.3005 115.449 47.3341 115.46C47.4058 115.492 47.4542 115.469 47.5048 115.483L47.7081 115.543C47.8151 115.574 47.9149 115.626 48.0017 115.696C48.0886 115.766 48.1608 115.852 48.2142 115.95C48.2677 116.048 48.3014 116.155 48.3134 116.266C48.3253 116.377 48.3154 116.489 48.284 116.596C48.2526 116.703 48.2005 116.803 48.1306 116.89C48.0607 116.976 47.9744 117.049 47.8765 117.102C47.7787 117.156 47.6713 117.189 47.5605 117.201C47.4496 117.213 47.3375 117.203 47.2305 117.172L47.197 117.161C47.0092 117.097 46.8035 117.038 46.6563 116.942C46.5781 116.896 46.4971 116.85 46.4262 116.804L46.2279 116.65C45.9899 116.451 45.7761 116.225 45.5911 115.976C45.2585 115.523 44.9909 115.024 44.796 114.496C44.6048 113.991 44.4699 113.467 44.3939 112.932C44.3151 112.403 44.3098 111.865 44.3782 111.335C44.3864 111.275 44.4165 111.22 44.4629 111.181C44.5093 111.142 44.5685 111.121 44.6291 111.123C44.6897 111.125 44.7474 111.15 44.791 111.192C44.8346 111.234 44.861 111.291 44.865 111.352L44.8632 111.357Z" fill="#390176"/>
<path d="M51.3623 111.334C51.4308 111.865 51.4257 112.402 51.3471 112.931C51.2709 113.466 51.1359 113.991 50.9445 114.496C50.7496 115.024 50.482 115.522 50.1494 115.976C49.9644 116.225 49.7506 116.451 49.5126 116.649L49.3143 116.803C49.2416 116.849 49.1606 116.895 49.0842 116.941C48.937 117.037 48.7313 117.097 48.5441 117.16C48.4385 117.196 48.327 117.211 48.2158 117.203C48.1046 117.196 47.9959 117.167 47.896 117.118C47.796 117.068 47.7068 117 47.6333 116.916C47.5599 116.832 47.5036 116.735 47.4678 116.629C47.432 116.524 47.4174 116.412 47.4247 116.301C47.432 116.19 47.4611 116.081 47.5104 115.981C47.5597 115.881 47.6282 115.792 47.712 115.719C47.7958 115.645 47.8933 115.589 47.9988 115.553L48.0296 115.543L48.2358 115.483C48.2864 115.468 48.3347 115.491 48.4065 115.459C48.4405 115.448 48.475 115.443 48.5118 115.43L48.6264 115.374C48.7995 115.284 48.9608 115.172 49.1068 115.042C49.439 114.74 49.7271 114.393 49.9626 114.012C50.4535 113.227 50.8101 112.309 50.8773 111.357V111.35C50.8819 111.29 50.9084 111.233 50.9519 111.192C50.9954 111.15 51.0528 111.126 51.1131 111.124C51.1733 111.122 51.2322 111.142 51.2784 111.18C51.3247 111.219 51.355 111.274 51.3637 111.333L51.3623 111.334Z" fill="#390176"/>
<path d="M81.1741 102.282C80.9764 102.282 80.7834 102.222 80.6206 102.11C80.4579 101.998 80.333 101.839 80.2626 101.654C80.1922 101.469 80.1797 101.268 80.2266 101.076C80.2735 100.884 80.3777 100.711 80.5253 100.579C85.6999 95.9683 86.6887 88.7043 86.6068 83.423C86.5088 77.0922 84.861 70.0164 82.086 64.01C82.0297 63.8935 81.9972 63.7669 81.9903 63.6377C81.9834 63.5084 82.0024 63.3791 82.046 63.2573C82.0896 63.1355 82.1571 63.0235 82.2445 62.9281C82.3318 62.8326 82.4373 62.7555 82.5548 62.7012C82.6723 62.6469 82.7994 62.6166 82.9288 62.612C83.0581 62.6074 83.187 62.6286 83.3081 62.6743C83.4292 62.7201 83.5399 62.7895 83.6338 62.8785C83.7277 62.9676 83.803 63.0744 83.8552 63.1928C88.727 73.7365 92.206 92.7815 81.8219 102.035C81.6437 102.194 81.4131 102.282 81.1741 102.282Z" fill="#390176"/>
<path d="M76.3126 117.317C74.9152 117.317 73.4626 116.936 72.0616 116.153C68.8964 114.384 66.9018 110.951 66.8562 107.194C66.8332 104.562 66.957 101.931 67.2271 99.3129C67.256 99.0561 67.3858 98.8212 67.5879 98.66C67.79 98.4988 68.0478 98.4245 68.3047 98.4534C68.5616 98.4824 68.7964 98.6122 68.9576 98.8142C69.1188 99.0163 69.1931 99.2742 69.1642 99.531C69.16 99.5674 68.757 103.202 68.8053 107.169C68.8426 110.231 70.4548 113.021 73.0122 114.45C75.9464 116.09 79.0338 115.499 80.8766 112.944C81.5608 111.994 81.9937 110.817 82.1276 109.539L83.41 97.305C83.4418 97.0518 83.5715 96.8212 83.7714 96.6627C83.9713 96.5041 84.2254 96.4302 84.4791 96.4568C84.7328 96.4834 84.9661 96.6084 85.1287 96.805C85.2913 97.0016 85.3704 97.2541 85.3489 97.5084L84.0661 109.744C83.8968 111.359 83.3405 112.86 82.4557 114.085C80.9295 116.204 78.702 117.317 76.3126 117.317Z" fill="#390176"/>
<path d="M79.7774 111.334C79.8462 111.865 79.8411 112.402 79.7622 112.931C79.6862 113.466 79.5512 113.991 79.3596 114.496C79.1649 115.024 78.8973 115.522 78.5645 115.976C78.3795 116.225 78.1657 116.451 77.9277 116.649L77.7294 116.803C77.6567 116.849 77.5757 116.895 77.4993 116.941C77.3521 117.037 77.1464 117.097 76.9591 117.16C76.8536 117.196 76.742 117.211 76.6308 117.203C76.5196 117.196 76.411 117.167 76.311 117.118C76.2111 117.068 76.1218 117 76.0484 116.916C75.9749 116.832 75.9187 116.735 75.8829 116.629C75.8471 116.524 75.8324 116.412 75.8397 116.301C75.847 116.19 75.8762 116.081 75.9255 115.981C75.9748 115.881 76.0433 115.792 76.1271 115.719C76.2109 115.645 76.3083 115.589 76.4139 115.553L76.4447 115.543L76.6508 115.483C76.7014 115.468 76.7498 115.491 76.8215 115.459C76.8556 115.448 76.8901 115.443 76.9269 115.43L77.0415 115.374C77.2146 115.284 77.3759 115.172 77.5219 115.042C77.8541 114.74 78.1422 114.393 78.3777 114.012C78.8687 113.227 79.2257 112.309 79.2924 111.357V111.35C79.297 111.29 79.3236 111.233 79.3671 111.192C79.4106 111.15 79.4679 111.126 79.5282 111.124C79.5884 111.122 79.6473 111.142 79.6936 111.18C79.7398 111.219 79.7702 111.274 79.7788 111.333L79.7774 111.334Z" fill="#390176"/>
<path d="M73.2778 111.358C73.345 112.312 73.7015 113.228 74.193 114.013C74.4283 114.394 74.7165 114.741 75.0488 115.043C75.1945 115.173 75.3557 115.285 75.5287 115.375L75.6433 115.431C75.6801 115.443 75.715 115.449 75.7491 115.46C75.8204 115.492 75.8687 115.469 75.9193 115.484L76.1227 115.543C76.3388 115.606 76.5208 115.753 76.6288 115.95C76.7368 116.148 76.7619 116.38 76.6985 116.596C76.6352 116.812 76.4886 116.994 76.2911 117.102C76.0935 117.21 75.8612 117.235 75.6451 117.172L75.6115 117.161C75.4238 117.098 75.2181 117.038 75.0713 116.942C74.9926 116.896 74.9117 116.85 74.8413 116.804L74.6434 116.65C74.4053 116.451 74.1913 116.225 74.0061 115.977C73.6737 115.523 73.4061 115.024 73.2111 114.497C73.0198 113.992 72.8849 113.467 72.8089 112.932C72.7301 112.403 72.7249 111.866 72.7933 111.335C72.8019 111.276 72.8322 111.221 72.8785 111.182C72.9247 111.144 72.9836 111.124 73.0439 111.126C73.1041 111.128 73.1615 111.152 73.205 111.194C73.2485 111.235 73.2751 111.292 73.2796 111.352L73.2778 111.358Z" fill="#390176"/>
<path d="M62.0463 105.631C60.0163 105.63 57.9909 105.438 55.9971 105.056C55.8871 105.034 55.7824 104.992 55.6888 104.93C55.5953 104.869 55.5148 104.789 55.452 104.696C55.3892 104.604 55.3452 104.499 55.3227 104.39C55.3001 104.28 55.2994 104.167 55.3205 104.057C55.3417 103.947 55.3843 103.842 55.4459 103.749C55.5075 103.655 55.587 103.575 55.6797 103.512C55.7725 103.449 55.8767 103.405 55.9864 103.383C56.0961 103.36 56.2092 103.359 56.3192 103.38C60.1037 104.106 63.9916 104.106 67.7761 103.38C67.8861 103.359 67.9992 103.36 68.1089 103.383C68.2187 103.405 68.3229 103.449 68.4156 103.512C68.5083 103.575 68.5878 103.655 68.6494 103.749C68.7111 103.842 68.7537 103.947 68.7748 104.057C68.796 104.167 68.7952 104.28 68.7727 104.39C68.7501 104.499 68.7062 104.604 68.6433 104.696C68.5805 104.789 68.5 104.869 68.4065 104.93C68.313 104.992 68.2082 105.034 68.0982 105.056C66.1036 105.438 64.0772 105.63 62.0463 105.631Z" fill="#390176"/>
<g opacity="0.3">
<path opacity="0.3" d="M56.2869 104.242C56.3187 105.162 56.3357 106.159 56.3237 107.183C56.2823 110.529 54.5398 113.671 51.6181 115.302C50.4438 115.958 49.23 116.302 48.0581 116.338C52.3414 114.146 52.1449 104.864 51.8159 100.621C51.7983 100.386 51.8383 100.151 51.9326 99.9349C52.0268 99.7192 52.1725 99.5298 52.3568 99.3833C52.541 99.2368 52.7584 99.1375 52.9898 99.0943C53.2212 99.0511 53.4597 99.0651 53.6845 99.1352C55.3777 99.6616 56.1581 99.9069 56.1581 99.9069L56.978 104.363C56.4829 104.295 56.7792 104.334 56.2869 104.242Z" fill="#390176"/>
</g>
<g opacity="0.3">
<path opacity="0.3" d="M56.1577 99.9073C56.1577 99.9073 63.1976 101.001 67.3787 99.9073V104.5L56.9776 104.362L56.1577 99.9073Z" fill="#390176"/>
</g>
<g opacity="0.3">
<path opacity="0.3" d="M83.8812 65.7148C83.9857 65.6651 84.0423 65.6362 84.0436 65.6357C83.7013 64.7615 83.3438 63.9172 82.972 63.1119H41.6168L40.0146 65.881V65.8842C55.5147 72.2702 69.2857 70.3395 77.1423 68.148C77.6146 68.0176 78.119 68.0756 78.5494 68.3097C78.9799 68.5438 79.3026 68.9358 79.4498 69.4032C82.3283 78.5099 83.2012 89.7893 78.628 97.4085V97.4112L77.3443 109.641C77.2007 111.033 76.7328 112.38 75.9179 113.513C75.2066 114.5 74.3314 115.234 73.3592 115.706C76.4562 117.04 79.695 116.252 81.669 113.513C82.4847 112.38 82.9527 111.033 83.0953 109.641L84.3795 97.4112V97.408C89.595 88.7204 87.7283 75.2729 83.8812 65.7148Z" fill="#390176"/>
</g>
<path d="M83.7402 73.3306H108.587V119.402C108.587 119.868 108.495 120.329 108.317 120.759C108.139 121.19 107.878 121.581 107.548 121.91C107.219 122.239 106.828 122.5 106.398 122.679C105.968 122.857 105.506 122.949 105.041 122.949H83.7402V73.3306Z" fill="#F49A38"/>
<g opacity="0.3">
<path opacity="0.3" d="M108.587 73.3302V119.4C108.587 119.866 108.495 120.327 108.317 120.758C108.139 121.188 107.877 121.579 107.548 121.909C107.218 122.238 106.827 122.5 106.397 122.678C105.966 122.856 105.505 122.948 105.039 122.948H86.3857V73.3302H108.587Z" fill="#390176"/>
</g>
<path d="M83.74 73.3302V122.945H19.8017C18.8615 122.945 17.9602 122.57 17.2958 121.905C16.6314 121.24 16.2584 120.338 16.2588 119.398V73.3302H83.74Z" fill="#FE812D"/>
<g opacity="0.6">
<path opacity="0.6" d="M22.7925 122.945H19.8017C18.8615 122.944 17.9602 122.57 17.2958 121.905C16.6314 121.239 16.2584 120.338 16.2588 119.397V102.165C17.052 102.165 17.8127 102.481 18.3736 103.041C18.9345 103.602 19.2496 104.363 19.2496 105.156V119.399C19.2497 120.339 19.6229 121.241 20.2872 121.905C20.9516 122.57 21.8526 122.944 22.7925 122.945Z" fill="white"/>
</g>
<g opacity="0.3">
<path opacity="0.3" d="M83.5853 73.3302V91.5831L77.4523 102.166H16.2563V73.3302H83.5853Z" fill="#390176"/>
</g>
<path d="M105.04 123.922H83.7397C83.4812 123.922 83.2333 123.819 83.0505 123.636C82.8678 123.454 82.7651 123.206 82.7651 122.947V73.3308C82.7651 73.0723 82.8678 72.8244 83.0506 72.6417C83.2333 72.4589 83.4812 72.3562 83.7397 72.3562H108.586C108.844 72.3562 109.092 72.4589 109.275 72.6417C109.458 72.8244 109.561 73.0723 109.561 73.3308V119.402C109.559 120.601 109.082 121.75 108.235 122.597C107.387 123.444 106.238 123.921 105.04 123.922ZM84.7146 121.973H105.04C105.721 121.971 106.375 121.7 106.857 121.218C107.339 120.736 107.61 120.083 107.611 119.401V74.3053H84.7146V121.973Z" fill="#390176"/>
<path d="M83.7393 123.922H19.8024C18.604 123.921 17.455 123.444 16.6074 122.597C15.7599 121.75 15.283 120.601 15.2812 119.402V73.3299C15.2868 73.075 15.3919 72.8325 15.5741 72.6542C15.7563 72.4759 16.0011 72.3761 16.256 72.3761C16.5109 72.3761 16.7557 72.4759 16.9379 72.6542C17.1201 72.8325 17.2252 73.075 17.2308 73.3299V119.402C17.2321 120.084 17.5035 120.737 17.9855 121.219C18.4674 121.701 19.1208 121.973 19.8024 121.974H83.7393C83.8691 121.971 83.9981 121.994 84.1189 122.042C84.2396 122.09 84.3496 122.161 84.4424 122.252C84.5352 122.343 84.6089 122.451 84.6592 122.571C84.7095 122.69 84.7355 122.819 84.7355 122.949C84.7355 123.078 84.7095 123.207 84.6592 123.327C84.6089 123.446 84.5352 123.555 84.4424 123.646C84.3496 123.736 84.2396 123.808 84.1189 123.855C83.9981 123.903 83.8691 123.926 83.7393 123.923V123.922Z" fill="#390176"/>
<path d="M83.7405 73.3302L79.9836 79.7788L75.7891 86.9751L71.8528 93.7297H4.36914L16.2568 73.3302H83.7405Z" fill="#FE812D"/>
<g opacity="0.6">
<path opacity="0.6" d="M46.3533 73.7137L46.4568 75.9568H17.54L6.95996 94.1132H4.21533L16.1021 73.7137H46.3533Z" fill="white"/>
</g>
<g opacity="0.6">
<path opacity="0.6" d="M83.5856 73.7121L82.2099 75.9554H54.8673C54.5866 75.2421 54.2469 74.4944 53.8481 73.7121H83.5856Z" fill="white"/>
</g>
<path d="M121.011 93.7293H96.164L83.7407 73.3306H108.587L121.011 93.7293Z" fill="#FE812D"/>
<g opacity="0.6">
<path opacity="0.6" d="M110.269 76.0908H85.4225L83.7407 73.3302H108.587L110.269 76.0908Z" fill="white"/>
</g>
<path d="M71.8534 94.7045H4.36891C4.19752 94.7044 4.02919 94.6591 3.88088 94.5732C3.73257 94.4873 3.60952 94.3639 3.52414 94.2153C3.43876 94.0667 3.39405 93.8982 3.39454 93.7268C3.39502 93.5554 3.44067 93.3871 3.52689 93.239L15.4118 72.8403C15.4975 72.693 15.6204 72.5707 15.7681 72.4858C15.9159 72.4008 16.0834 72.3562 16.2538 72.3562H83.7397C83.9111 72.3563 84.0795 72.4015 84.2279 72.4874C84.3763 72.5732 84.4994 72.6967 84.5848 72.8453C84.6703 72.9939 84.715 73.1625 84.7145 73.3339C84.7141 73.5053 84.6684 73.6736 84.5822 73.8217L72.6968 94.2205C72.6109 94.3679 72.4878 94.4903 72.3398 94.5752C72.1918 94.6602 72.0241 94.7048 71.8534 94.7045ZM6.06491 92.755H71.2934L82.0437 74.304H16.8156L6.06491 92.755Z" fill="#390176"/>
<path d="M121.01 94.7045H96.163C95.9958 94.7044 95.8314 94.6613 95.6857 94.5793C95.5399 94.4974 95.4177 94.3793 95.3307 94.2365L82.9074 73.8378C82.8174 73.6901 82.7683 73.521 82.7653 73.348C82.7622 73.175 82.8053 73.0043 82.89 72.8535C82.9748 72.7026 83.0982 72.577 83.2475 72.4897C83.3969 72.4023 83.5668 72.3562 83.7398 72.3562H108.586C108.754 72.3562 108.918 72.3992 109.064 72.481C109.21 72.5629 109.332 72.6809 109.419 72.8237L121.842 93.2229C121.932 93.3707 121.981 93.5398 121.984 93.7128C121.987 93.8858 121.944 94.0564 121.859 94.2072C121.774 94.3581 121.651 94.4836 121.502 94.571C121.352 94.6584 121.183 94.7044 121.01 94.7045ZM96.7106 92.7549H119.275L108.039 74.304H85.4749L96.7106 92.7549Z" fill="#390176"/>
<path d="M57.1876 100.746H39.4348C37.1371 100.746 35.2744 102.609 35.2744 104.907C35.2744 107.204 37.1371 109.067 39.4348 109.067H57.1876C59.4853 109.067 61.348 107.204 61.348 104.907C61.348 102.609 59.4853 100.746 57.1876 100.746Z" fill="#390176"/>
<g opacity="0.6">
<path opacity="0.6" d="M61.3475 106.67C61.3476 107.216 61.2399 107.758 61.0308 108.262C60.8216 108.767 60.515 109.226 60.1285 109.612C59.742 109.999 59.2832 110.305 58.7782 110.514C58.2733 110.723 57.7321 110.83 57.1857 110.83H39.4342C38.813 110.83 38.1996 110.691 37.6391 110.423C37.0786 110.155 36.5851 109.765 36.195 109.282C35.8049 108.799 35.528 108.234 35.3847 107.629C35.2414 107.025 35.2352 106.396 35.3667 105.789C35.569 106.717 36.0827 107.549 36.8226 108.145C37.5624 108.741 38.484 109.067 39.4342 109.067H57.1857C58.136 109.067 59.0575 108.741 59.7973 108.145C60.5372 107.549 61.0509 106.717 61.2532 105.789C61.3162 106.078 61.3478 106.374 61.3475 106.67Z" fill="white"/>
</g>
<g opacity="0.3">
<path opacity="0.3" d="M46.996 87.8014C54.5604 87.6735 59.0167 83.0879 53.4184 72.9017H46.3159L46.996 87.8014Z" fill="#390176"/>
</g>
<path d="M96.9649 42.7681C96.9649 46.3451 96.1657 49.5425 94.7057 52.3492C93.6534 54.3738 92.2569 56.1945 90.5683 57.8076C89.9786 58.3717 89.3605 58.9052 88.7163 59.4061C88.7163 59.4061 88.7163 59.4089 88.714 59.4089C82.2079 64.4918 72.4257 67.0994 61.4904 67.0994C60.0723 67.0994 58.6712 67.0533 57.2968 66.9678H57.2941C48.0709 66.3802 39.93 63.8316 34.2668 59.4089V59.4061C33.7088 58.9699 33.1743 58.5152 32.6633 58.0419C28.4817 54.1649 26.0205 49.0547 26.0205 42.7658C26.022 40.5049 26.3263 38.2544 26.9251 36.0742C27.1579 35.2174 27.4335 34.3728 27.751 33.5436L27.6972 33.585C28.4918 26.667 29.3444 19.9364 30.7773 13.5669C31.4499 10.572 32.2542 7.65754 33.2384 4.84298C34.496 1.25402 38.8137 -0.166835 41.9278 2.00908C46.397 5.13331 50.7222 9.53392 53.2077 13.2039C55.7611 12.6896 58.3594 12.4312 60.964 12.4327C63.9602 12.4316 66.947 12.7682 69.8678 13.4362L69.5734 13.2025C72.058 9.53254 76.3832 5.13193 80.8528 2.0077C83.9669 -0.168216 88.2851 1.25264 89.5422 4.84159C91.9376 11.6841 93.2512 19.1091 94.2672 26.8529C94.5474 29.0049 94.806 31.1831 95.0591 33.3811C96.2922 36.3765 96.9649 39.5394 96.9649 42.7681Z" fill="white"/>
<path d="M39.9756 24.8676C39.9756 31.1934 35.3215 36.3205 29.5769 36.3205C28.8477 36.3211 28.1208 36.2377 27.4106 36.072C27.6442 35.2151 27.9206 34.3705 28.2389 33.5414L28.185 33.5828C28.9797 26.6648 29.8327 19.9342 31.2655 13.5647C36.2063 14.4527 39.9756 19.1754 39.9756 24.8676Z" fill="#FFB531"/>
<path d="M97.2082 42.768C97.2082 46.345 96.409 49.5423 94.9495 52.3491C92.2104 53.7405 89.2062 54.5084 86.053 54.5084C73.2281 54.5084 62.833 41.7981 62.833 26.119C62.833 21.2555 63.8347 16.6741 65.5988 12.6728C67.1163 12.8416 68.6231 13.0964 70.1117 13.4362L69.8167 13.2024C72.3014 9.53252 76.6265 5.13192 81.0966 2.0077C84.2107 -0.168213 88.5285 1.25264 89.786 4.84159C92.1814 11.684 93.4946 19.109 94.511 26.8529C94.7912 29.0048 95.0493 31.1831 95.3028 33.3811C96.536 36.3764 97.2082 39.5393 97.2082 42.768Z" fill="#FFB531"/>
<g opacity="0.6">
<path opacity="0.6" d="M42.1718 2.00866C42.5519 2.274 42.9304 2.54854 43.3074 2.83228C40.2977 1.3875 36.5818 2.85437 35.432 6.14147C32.3519 14.9454 31.0562 24.7143 29.8907 34.8829L29.9441 34.8415C28.8182 37.7863 28.2117 40.8944 28.2117 44.0674C28.2117 50.3541 30.6729 55.4642 34.8541 59.3407C35.3634 59.816 35.8994 60.2692 36.4576 60.7054H36.4599C36.6866 60.8836 36.9182 61.0583 37.1547 61.2295C36.2389 60.6736 35.3561 60.0651 34.5108 59.4069C34.5101 59.4069 34.5094 59.4067 34.5089 59.4061C34.5083 59.4056 34.508 59.4049 34.508 59.4042C33.9504 58.968 33.4139 58.5148 32.905 58.0399C28.7234 54.1629 26.2622 49.0528 26.2622 42.7639C26.2622 39.5891 26.8691 36.4842 27.9946 33.5385L27.9412 33.5799C29.1085 23.4112 30.4024 13.6419 33.4824 4.83795C34.7399 1.25361 39.0577 -0.167249 42.1718 2.00866Z" fill="white"/>
</g>
<g opacity="0.6">
<path opacity="0.6" d="M88.4562 2.69811C87.5758 2.33751 86.6188 2.20431 85.6735 2.31077C84.7281 2.41724 83.8247 2.75994 83.0465 3.30731C79.0895 6.07356 75.2447 9.84103 72.6905 13.2151C72.4024 13.5906 72.0168 13.88 71.5758 14.0519C71.1348 14.2238 70.6551 14.2716 70.1888 14.1901L70.1727 14.1873H70.1704C70.0241 13.9168 69.8635 13.6269 69.7075 13.3467C69.8414 13.3761 69.9781 13.4051 70.112 13.4387L69.817 13.205C72.3017 9.53505 76.6269 5.13445 81.097 2.01023C83.4827 0.341827 86.5748 0.785383 88.4562 2.69811Z" fill="white"/>
</g>
<path d="M44.2944 16.3147C42.793 13.5659 40.8513 10.9607 39.4525 9.22331C38.7094 8.29754 37.225 8.63619 36.9545 9.79386C36.2726 12.7106 35.3123 17.6329 35.1733 22.7449V22.7476" fill="#F962BB"/>
<g opacity="0.6">
<path opacity="0.6" d="M45.5931 17.7535L39.1734 22.0405C38.6146 22.4136 37.98 22.658 37.3152 22.7559C36.6505 22.8539 35.9723 22.803 35.3296 22.6069L44.2941 16.3147C42.7928 13.566 40.8511 10.9608 39.4523 9.22333C39.4477 9.21667 39.4419 9.21091 39.4353 9.20631C39.9759 8.5511 41.0484 8.48024 41.6438 9.22333C42.8038 10.6644 44.642 13.0769 46.0914 15.4262C46.3261 15.8031 46.4054 16.2564 46.3124 16.6906C46.2194 17.1247 45.9615 17.5058 45.5931 17.7535Z" fill="white"/>
</g>
<g opacity="0.3">
<path opacity="0.3" d="M39.9931 9.90337C39.943 10.0041 39.9047 10.1104 39.879 10.2199C39.3135 12.6397 38.5562 16.4435 38.2341 20.5887L35.1733 22.7476V22.7449C35.3114 17.6329 36.2726 12.7106 36.9545 9.79386C37.225 8.63619 38.7089 8.29754 39.4525 9.22331C39.6255 9.43772 39.8057 9.66441 39.9931 9.90337Z" fill="#390176"/>
</g>
<path d="M88.0953 22.7476V22.7449C87.9572 17.6329 86.9965 12.7106 86.3141 9.79386C86.0436 8.63619 84.5596 8.29754 83.8165 9.22331C82.4177 10.9607 80.4755 13.5659 78.9746 16.3147" fill="#F962BB"/>
<g opacity="0.6">
<path opacity="0.6" d="M88.0947 23.0528L88.0749 22.1326C87.8803 17.2419 86.9706 12.5929 86.3132 9.79308C86.2677 9.5911 86.1788 9.40143 86.0527 9.23725C86.7889 9.01547 87.6557 9.4213 87.8559 10.2803C88.4674 12.8952 89.3024 17.1214 89.5684 21.6517C89.5806 21.8452 89.5502 22.039 89.4794 22.2195C89.4086 22.4 89.2991 22.5628 89.1586 22.6964C89.0181 22.8299 88.85 22.9311 88.6662 22.9927C88.4824 23.0542 88.2873 23.0748 88.0947 23.0528Z" fill="white"/>
</g>
<g opacity="0.3">
<path opacity="0.3" d="M86.5719 10.9363C86.4834 11.0056 86.4033 11.085 86.3331 11.1728C84.9565 12.8836 83.0507 15.4372 81.5618 18.1395L78.9741 16.3147C80.475 13.5659 82.4171 10.9607 83.8159 9.22331C84.559 8.29755 86.0433 8.63619 86.3134 9.79385C86.3962 10.1472 86.4824 10.5281 86.5719 10.9363Z" fill="#390176"/>
</g>
<path d="M65.0424 45.3575C65.0401 46.337 63.6883 47.128 62.0227 47.1239C60.3571 47.1197 59.0094 46.3223 59.0117 45.3427C59.014 44.3631 60.3644 44.2817 62.0296 44.2845C63.6947 44.2872 65.0447 44.3779 65.0424 45.3575Z" fill="#390176"/>
<path d="M68.9794 46.4174C69.0103 47.2139 68.8515 48.0808 68.3219 48.8336C68.0475 49.2153 67.6903 49.5299 67.277 49.7539C66.8567 49.9759 66.3944 50.1071 65.9201 50.139C64.9792 50.2113 64.0649 49.9251 63.2974 49.4419C62.9104 49.1951 62.5604 48.8946 62.258 48.5492C62.1853 48.46 62.1126 48.3698 62.0427 48.2782L61.9437 48.136L61.8945 48.0647C61.8789 48.0412 61.8545 48.0063 61.8683 48.0293C61.8904 48.0642 61.921 48.0929 61.9572 48.1128C61.9934 48.1327 62.034 48.1431 62.0753 48.1431C62.1166 48.1431 62.1573 48.1327 62.1935 48.1128C62.2297 48.0929 62.2603 48.0642 62.2824 48.0293C62.2967 48.0063 62.2723 48.0412 62.2562 48.0643L62.2069 48.1356L62.1071 48.2773C62.0362 48.3693 61.964 48.4581 61.8899 48.5465C61.5862 48.8907 61.2346 49.1895 60.8459 49.4336C60.0743 49.9136 59.1586 50.1938 58.2186 50.1174C57.7447 50.0831 57.2832 49.9497 56.864 49.7258C56.4521 49.5002 56.0967 49.1842 55.8246 48.8014C55.2982 48.0468 55.1436 47.1789 55.1772 46.3829C55.1795 46.3249 55.2023 46.2695 55.2414 46.2266C55.2806 46.1837 55.3336 46.1559 55.3912 46.1483C55.4488 46.1406 55.5072 46.1536 55.5562 46.1848C55.6052 46.216 55.6416 46.2635 55.659 46.3189V46.3263C55.8803 47.0308 56.1817 47.686 56.6491 48.1029C56.864 48.3037 57.1178 48.4583 57.3948 48.5569C57.6718 48.6555 57.9662 48.6961 58.2596 48.6762C58.8471 48.6523 59.4425 48.4176 59.9381 48.0656C60.1863 47.8903 60.4102 47.6828 60.6039 47.4486L60.7419 47.2705L60.8928 47.0501C61.0265 46.8603 61.204 46.7054 61.4102 46.5988C61.6164 46.4921 61.8453 46.4366 62.0775 46.4372C62.3096 46.4377 62.5383 46.4942 62.744 46.6019C62.9497 46.7095 63.1264 46.8652 63.2592 47.0556L63.4092 47.277L63.5473 47.4555C63.7395 47.6906 63.9624 47.8989 64.2098 48.0748C64.7035 48.4296 65.2976 48.6657 65.8847 48.6928C66.1775 48.714 66.4715 48.6748 66.7485 48.5777C67.0255 48.4806 67.2796 48.3276 67.4951 48.1282C67.9644 47.7141 68.269 47.0607 68.4949 46.3576V46.3507C68.5129 46.2957 68.5496 46.2487 68.5986 46.218C68.6477 46.1872 68.7059 46.1747 68.7633 46.1825C68.8206 46.1903 68.8734 46.2181 68.9124 46.2608C68.9514 46.3036 68.9741 46.3587 68.9767 46.4165L68.9794 46.4174Z" fill="#390176"/>
<path d="M58.2163 49.4177C58.2163 50.4433 58.5186 51.2646 59.0059 51.8812C60.4681 53.7405 63.5896 53.7405 65.0514 51.8812C65.5391 51.2646 65.841 50.4433 65.841 49.4177C64.3621 49.1205 63.0655 48.5771 62.0275 47.6899C60.9531 48.6548 59.7273 49.3225 58.2163 49.4177Z" fill="#390176"/>
<path d="M59.0059 51.8813C60.4681 53.7407 63.5896 53.7407 65.0514 51.8813C63.5919 50.016 60.4658 50.016 59.0059 51.8813Z" fill="#F73954"/>
<path d="M62.0271 54.1278C60.8179 54.1278 59.6846 53.7077 58.8362 52.9448C58.1639 52.3402 57.3638 51.2377 57.3638 49.4184H59.0694C59.0694 51.4931 60.5556 52.4221 62.0285 52.4221C63.5013 52.4221 64.988 51.4931 64.988 49.4184H66.6937C66.6923 52.51 64.3456 54.1278 62.0271 54.1278Z" fill="#390176"/>
<path d="M76.2989 46.355C79.1712 46.355 81.4996 43.1941 81.4996 39.2949C81.4996 35.3957 79.1712 32.2347 76.2989 32.2347C73.4266 32.2347 71.0981 35.3957 71.0981 39.2949C71.0981 43.1941 73.4266 46.355 76.2989 46.355Z" fill="#390176"/>
<path d="M76.3947 39.9856C77.2672 39.9856 77.9744 39.1424 77.9744 38.1023C77.9744 37.0622 77.2672 36.219 76.3947 36.219C75.5222 36.219 74.8149 37.0622 74.8149 38.1023C74.8149 39.1424 75.5222 39.9856 76.3947 39.9856Z" fill="white"/>
<path d="M47.3662 46.355C50.2385 46.355 52.567 43.1941 52.567 39.2949C52.567 35.3957 50.2385 32.2347 47.3662 32.2347C44.494 32.2347 42.1655 35.3957 42.1655 39.2949C42.1655 43.1941 44.494 46.355 47.3662 46.355Z" fill="#390176"/>
<path d="M47.2715 39.9856C48.1439 39.9856 48.8511 39.1424 48.8511 38.1023C48.8511 37.0622 48.1439 36.219 47.2715 36.219C46.3991 36.219 45.6919 37.0622 45.6919 38.1023C45.6919 39.1424 46.3991 39.9856 47.2715 39.9856Z" fill="white"/>
<path d="M35.1731 23.6005C34.9473 23.6 34.7309 23.5099 34.5715 23.3501C34.4121 23.1902 34.3226 22.9736 34.3228 22.7479V22.7221C34.4608 17.6608 35.381 12.7918 36.1264 9.5999C36.2232 9.18393 36.4351 8.80357 36.7378 8.50226C37.0405 8.20096 37.4218 7.99085 37.8382 7.89593C38.2546 7.80102 38.6893 7.82513 39.0927 7.9655C39.4961 8.10587 39.8518 8.35686 40.1193 8.68978C41.5153 10.4244 43.504 13.0849 45.0449 15.9059C45.099 16.005 45.1328 16.1139 45.1445 16.2262C45.1562 16.3386 45.1454 16.4521 45.1129 16.5603C45.0804 16.6684 45.0267 16.769 44.955 16.8563C44.8833 16.9435 44.795 17.0157 44.6952 17.0686C41.6198 18.6965 38.6078 20.8209 35.7441 23.3833C35.587 23.5237 35.3837 23.601 35.1731 23.6005ZM38.3506 9.54377C38.3054 9.54376 38.2604 9.54886 38.2163 9.55895C38.1105 9.5811 38.0135 9.63345 37.9369 9.70964C37.8603 9.78584 37.8074 9.88261 37.7847 9.98825C37.1534 12.6869 36.3961 16.6112 36.1172 20.8085C38.3842 18.9302 40.7327 17.3115 43.1253 15.9772C41.715 13.545 40.0163 11.2839 38.7873 9.75726C38.736 9.69028 38.6699 9.63612 38.5941 9.59907C38.5183 9.56202 38.435 9.54309 38.3506 9.54377Z" fill="#390176"/>
<path d="M61.7338 68.074C51.4873 68.074 42.6328 65.8842 36.1271 61.7422C29.0353 57.2261 25.2871 50.6653 25.2871 42.7682C25.2871 39.6357 25.8531 36.5156 26.9707 33.4908V33.4728C28.1403 23.2959 29.4452 13.424 32.5616 4.52064C32.9014 3.53612 33.4663 2.64448 34.2113 1.91671C34.9563 1.18893 35.861 0.645091 36.8532 0.328479C37.8337 0.00769782 38.8756 -0.0796855 39.8958 0.0732886C40.9161 0.226263 41.8865 0.615368 42.7298 1.20961C46.8898 4.11758 51.2039 8.34609 53.8896 12.1255C58.9233 11.1952 64.2083 11.2426 69.2802 12.2636C71.9577 8.44962 76.327 4.15255 80.5375 1.20915C81.3808 0.615057 82.3512 0.226075 83.3714 0.0731816C84.3915 -0.0797115 85.4333 0.00770804 86.4137 0.328479C87.4061 0.644855 88.3108 1.18855 89.0559 1.91626C89.8011 2.64398 90.366 3.53562 90.7058 4.52018C93.7886 13.3274 95.0985 23.081 96.2571 33.1397C97.5349 36.2897 98.1827 39.528 98.1827 42.7673C98.1827 50.6644 94.4337 57.2252 87.3414 61.7413C80.8352 65.8842 71.9802 68.074 61.7338 68.074ZM28.9354 33.4664C28.9578 33.6285 28.9391 33.7937 28.8811 33.9468C27.7888 36.8234 27.2366 39.7912 27.2366 42.7682C27.2366 49.9654 30.6733 55.9576 37.1753 60.0978C43.2788 63.9844 52.0008 66.1253 61.7347 66.1253C71.4685 66.1253 80.1911 63.9853 86.295 60.0978C92.7975 55.9567 96.2337 49.9654 96.2337 42.7682C96.2337 39.8998 95.6815 37.0268 94.5892 34.2205C94.4613 34.0726 94.3811 33.8894 94.3591 33.6951C94.3531 33.6454 94.3476 33.5962 94.3421 33.5465C94.336 33.5115 94.332 33.4761 94.3301 33.4406C93.1821 23.468 91.8915 13.8045 88.8662 5.16435C88.6248 4.46444 88.2234 3.83053 87.6938 3.31308C87.1643 2.79562 86.5213 2.4089 85.816 2.18369C85.1217 1.95665 84.384 1.89483 83.6615 2.00315C82.9391 2.11147 82.2519 2.38693 81.6547 2.80761C77.5633 5.66726 73.3265 9.84746 70.7797 13.5215C70.7595 13.6533 70.7124 13.7795 70.6414 13.8924C70.5704 14.0053 70.477 14.1024 70.367 14.1777C70.257 14.2531 70.1327 14.305 70.0018 14.3304C69.8709 14.3558 69.7362 14.3541 69.606 14.3254C64.3606 13.1659 58.8456 13.1093 53.6439 14.1583C53.4555 14.1963 53.2601 14.1778 53.0822 14.1051C52.9044 14.0325 52.7519 13.9088 52.6441 13.7498C50.1194 10.0228 45.7883 5.72708 41.6127 2.80761C41.0154 2.38693 40.3283 2.11147 39.6058 2.00315C38.8834 1.89483 38.1457 1.95665 37.4513 2.18369C36.746 2.40898 36.103 2.79578 35.5735 3.31332C35.044 3.83085 34.6426 4.46483 34.4012 5.16481C31.3777 13.8123 30.0839 23.4845 28.9354 33.4664Z" fill="#390176"/>
<path d="M88.0954 23.6003C87.9023 23.6012 87.7147 23.5363 87.5635 23.4163C84.3293 20.8396 81.3763 18.7543 78.535 17.0473C78.3464 16.9339 78.209 16.752 78.1513 16.5396C78.0937 16.3272 78.1204 16.1007 78.2258 15.9076C79.7659 13.0875 81.7545 10.4266 83.1519 8.69057C83.4196 8.35794 83.7754 8.10727 84.1787 7.96714C84.582 7.82701 85.0166 7.80308 85.4329 7.89807C85.8492 7.99306 86.2303 8.20314 86.533 8.50436C86.8356 8.80557 87.0474 9.18578 87.1443 9.60161C87.8304 12.5344 88.8978 22.2448 88.9429 22.6566C88.9561 22.7757 88.9439 22.8963 88.9073 23.0104C88.8707 23.1245 88.8105 23.2296 88.7305 23.3188C88.6505 23.408 88.5526 23.4794 88.4432 23.5282C88.3337 23.5771 88.2152 23.6023 88.0954 23.6022V23.6003ZM80.1211 16.0129C82.3264 17.3763 84.6008 18.9609 87.0173 20.8184C86.6598 17.7421 85.9591 12.0269 85.4838 9.98627C85.4596 9.88174 85.4065 9.78611 85.3306 9.71031C85.2547 9.63451 85.159 9.58159 85.0544 9.5576C84.9499 9.5336 84.8407 9.5395 84.7393 9.57462C84.6379 9.60974 84.5485 9.67267 84.4812 9.75621C83.2453 11.2926 81.535 13.5692 80.1211 16.0129Z" fill="#390176"/>
<g opacity="0.2">
<path opacity="0.2" d="M58.2143 16.0055C53.8809 16.6956 50.372 17.9886 47.8684 20.0145C46.9813 20.7327 47.3306 22.1683 48.445 22.4158C53.4548 23.5279 57.3253 22.3311 59.6499 17.9987C60.1841 17.0053 59.3301 15.8292 58.2143 16.0055Z" fill="white"/>
</g>
<g opacity="0.2">
<path opacity="0.2" d="M42.4084 26.9966C41.5981 26.3865 41.622 24.9886 42.4613 23.8738C43.3006 22.7589 44.6378 22.3498 45.4481 22.96C46.2584 23.5701 45.7343 24.5911 44.8959 25.7059C44.0575 26.8208 43.2187 27.6081 42.4084 26.9966Z" fill="white"/>
</g>
<path d="M90.813 48.0921C91.7926 47.9039 92.7552 47.8621 93.7118 47.8621C94.6653 47.8692 95.6177 47.9294 96.5645 48.0424C97.511 48.1532 98.4504 48.3177 99.3781 48.5352C100.309 48.7593 101.234 49.028 102.142 49.443C101.162 49.6335 100.199 49.6772 99.2433 49.6767C98.2897 49.6693 97.3373 49.6079 96.3906 49.4927C95.4444 49.3801 94.5052 49.215 93.5774 48.9981C92.6466 48.7735 91.7208 48.5053 90.813 48.0921Z" fill="#390176"/>
<path d="M90.3799 52.4976C91.3701 52.6204 92.299 52.8763 93.2096 53.1717C94.1138 53.4724 95.0005 53.8234 95.8654 54.223C96.7316 54.6197 97.5745 55.0652 98.3901 55.5574C99.2059 56.058 100.003 56.5991 100.739 57.2741C99.7479 57.1526 98.819 56.8973 97.9084 56.6014C97.0042 56.3009 96.1178 55.9492 95.2535 55.5482C94.388 55.1495 93.5454 54.7028 92.7297 54.2102C91.9139 53.7114 91.1165 53.1707 90.3799 52.4976Z" fill="#390176"/>
<path d="M32.42 47.9498C31.5099 48.3588 30.5832 48.6225 29.6515 48.8429C28.7227 49.0553 27.7827 49.2157 26.836 49.3232C25.889 49.4335 24.9366 49.4899 23.9832 49.4921C23.0262 49.488 22.0636 49.4392 21.0845 49.2446C21.9946 48.8341 22.9213 48.5696 23.853 48.3496C24.7817 48.1371 25.7217 47.9773 26.6685 47.8711C27.6156 47.7625 28.568 47.7069 29.5213 47.7045C30.4788 47.7087 31.4413 47.757 32.42 47.9498Z" fill="#390176"/>
<path d="M32.8325 52.3566C32.1943 53.0956 31.4811 53.7103 30.7449 54.2892C30.0087 54.8577 29.2406 55.3837 28.4443 55.8646C27.6489 56.3476 26.826 56.7839 25.9799 57.1714C25.1269 57.5551 24.2508 57.9002 23.2988 58.1197C23.9356 57.3789 24.6488 56.7641 25.3855 56.1872C26.1212 55.6184 26.8894 55.0928 27.686 54.6131C28.4824 54.1317 29.3055 53.6961 30.1514 53.3082C31.0053 52.9231 31.8809 52.5775 32.8325 52.3566Z" fill="#390176"/>
<path d="M38.1605 72.3235C37.803 80.3638 38.1656 87.6646 44.5562 88.7744C44.9253 88.8 45.2956 88.8034 45.6651 88.7846C48.2988 88.652 50.183 87.2988 51.152 84.4626C51.7175 82.8107 51.7272 81.0222 51.2831 79.334C50.6224 76.8088 50.0652 74.3398 49.6686 71.9577L42.816 72.174L38.1605 72.3235Z" fill="white"/>
<g opacity="0.3">
<path opacity="0.3" d="M51.1547 84.4629C50.1838 87.2995 48.3019 88.65 45.6654 88.7857C45.2974 88.8035 44.9286 88.7997 44.5611 88.7742C42.5296 88.4222 41.1079 87.4445 40.1255 86.0181C40.4411 86.1128 40.7623 86.1881 41.0871 86.2435C41.4562 86.2691 41.8265 86.2729 42.196 86.255C44.8303 86.1216 46.7145 84.7689 47.683 81.9322C48.249 80.2804 48.2582 78.4928 47.8142 76.8042C47.6568 76.2023 47.5056 75.6042 47.3605 75.0097C47.2728 74.6534 47.2658 74.282 47.34 73.9226C47.4142 73.5632 47.5677 73.225 47.7893 72.9325C48.0109 72.64 48.295 72.4007 48.6209 72.2321C48.9469 72.0634 49.3063 71.9697 49.6731 71.9577C50.0688 74.3412 50.6255 76.8097 51.2881 79.3358C51.7275 81.0235 51.7183 82.8111 51.1547 84.4629Z" fill="#390176"/>
</g>
<g opacity="0.6">
<path opacity="0.6" d="M46.915 88.6153C46.5044 88.7086 46.0864 88.7655 45.6658 88.7855C45.2978 88.8033 44.9291 88.7995 44.5615 88.774C38.1659 87.6651 37.8047 80.363 38.1636 72.3224L40.7494 72.2396C40.3965 80.1675 40.754 87.3729 46.915 88.6153Z" fill="white"/>
</g>
<path d="M45.1976 89.7706C44.9675 89.7706 44.7338 89.7628 44.4945 89.7467C44.46 89.7467 44.426 89.7403 44.3919 89.7347C37.0834 88.4666 36.8404 80.0621 37.186 72.2796C37.2023 72.0249 37.3179 71.7867 37.5079 71.6163C37.698 71.4458 37.9472 71.3567 38.2022 71.368C38.4572 71.3794 38.6976 71.4902 38.8718 71.6769C39.0459 71.8635 39.1399 72.1109 39.1337 72.3661C38.7398 81.2073 39.5321 86.8769 44.6754 87.8059C47.5553 87.9831 49.3226 86.818 50.2318 84.1489C50.7158 82.7308 50.7545 81.1512 50.3427 79.5803C49.6207 76.8265 49.0865 74.3856 48.7102 72.1172C48.6892 71.9909 48.6933 71.8618 48.7222 71.7371C48.7512 71.6124 48.8044 71.4947 48.8789 71.3906C48.9533 71.2865 49.0475 71.198 49.1562 71.1304C49.2648 71.0627 49.3857 71.017 49.5119 70.9961C49.6382 70.9751 49.7673 70.9792 49.892 71.0082C50.0167 71.0371 50.1344 71.0903 50.2385 71.1648C50.3426 71.2392 50.431 71.3334 50.4987 71.4421C50.5664 71.5507 50.612 71.6716 50.633 71.7978C51.0011 74.0064 51.5215 76.3903 52.2287 79.0862C52.7376 81.0288 52.6851 82.9972 52.0769 84.7783C50.9574 88.0562 48.5864 89.7706 45.1976 89.7706Z" fill="#390176"/>
<path d="M48.0681 83.0263C48.2438 83.5563 48.4178 84.097 48.4997 84.6685C48.5991 85.2533 48.6146 85.8494 48.5457 86.4386C48.4697 87.0755 48.2505 87.6869 47.9047 88.2271C47.7191 88.5149 47.494 88.7753 47.2361 89.0006C46.961 89.2338 46.6523 89.4242 46.3205 89.5656L46.2924 89.5776C46.1882 89.6243 46.0757 89.6498 45.9615 89.6525C45.8473 89.6552 45.7337 89.6351 45.6274 89.5934C45.5211 89.5516 45.4241 89.4891 45.3423 89.4094C45.2604 89.3298 45.1953 89.2346 45.1507 89.1294C45.1061 89.0243 45.0829 88.9113 45.0825 88.797C45.0821 88.6828 45.1045 88.5697 45.1484 88.4642C45.1923 88.3588 45.2568 88.2631 45.3381 88.1829C45.4194 88.1027 45.5159 88.0395 45.622 87.997C45.6746 87.9751 45.7291 87.958 45.7849 87.946C45.9683 87.9077 46.1451 87.8429 46.3099 87.7536C46.4877 87.6519 46.65 87.5253 46.7921 87.3777C47.0903 87.074 47.3254 86.6673 47.4745 86.2085C47.6236 85.7498 47.693 85.2422 47.7087 84.7274C47.7331 84.2093 47.6668 83.6819 47.5955 83.1519V83.1381C47.5868 83.0776 47.6012 83.0161 47.6357 82.9657C47.6702 82.9153 47.7224 82.8797 47.782 82.8659C47.8415 82.8521 47.904 82.8612 47.9571 82.8913C48.0103 82.9214 48.0502 82.9704 48.069 83.0286L48.0681 83.0263Z" fill="#390176"/>
<path d="M43.2987 84.4296C43.3709 84.916 43.4482 85.3991 43.6005 85.8459C43.7441 86.2922 43.9337 86.716 44.1987 87.0422C44.4371 87.3513 44.7618 87.5827 45.1318 87.7071C45.4829 87.8318 45.885 87.8483 46.3097 87.8212C46.5367 87.8068 46.7602 87.8832 46.9309 88.0335C47.1017 88.1839 47.2057 88.3959 47.2201 88.6229C47.2345 88.85 47.1581 89.0734 47.0077 89.2442C46.8574 89.4149 46.6453 89.5189 46.4183 89.5333C46.3616 89.5371 46.3048 89.5351 46.2485 89.5273H46.2347C45.6637 89.4463 45.0531 89.2972 44.5083 88.9637C43.9737 88.6437 43.5424 88.1767 43.266 87.6183C42.9982 87.0896 42.8864 86.5397 42.8271 86.0078C42.7677 85.4759 42.7857 84.9537 42.8137 84.4407C42.8173 84.3804 42.843 84.3236 42.8859 84.2812C42.9289 84.2388 42.986 84.2138 43.0463 84.211C43.1066 84.2082 43.1658 84.2278 43.2125 84.266C43.2592 84.3043 43.29 84.3585 43.2992 84.4181L43.2987 84.4296Z" fill="#390176"/>
<path d="M85.9338 72.3235C86.2913 80.3637 85.9282 87.6649 79.538 88.7747C79.1689 88.7998 78.7986 88.8032 78.4291 88.7848C75.7949 88.6518 73.9107 87.2991 72.9421 84.4629C72.3767 82.8106 72.367 81.0226 72.8105 79.3339C73.4713 76.8093 74.0285 74.3402 74.4256 71.9577L81.2778 72.1744L85.9338 72.3235Z" fill="white"/>
<g opacity="0.6">
<path opacity="0.6" d="M80.9794 88.5622C80.68 88.6499 80.3758 88.7206 80.0684 88.7738C79.6993 88.7998 79.329 88.8029 78.9595 88.783C76.3254 88.6519 74.4412 87.2992 73.4727 84.4625C72.909 82.8107 72.8975 81.0231 73.3415 79.3345C74.0018 76.8085 74.5608 74.3399 74.9565 71.9565C75.1714 71.963 75.3823 72.0161 75.5747 72.1121C75.767 72.2082 75.9362 72.3448 76.0706 72.5127C76.2049 72.6805 76.3012 72.8756 76.3527 73.0843C76.4042 73.293 76.4098 73.5104 76.3691 73.7215C76.0217 75.4787 75.5984 77.2773 75.1199 79.1049C74.6759 80.7935 74.6851 82.5811 75.251 84.2329C76.2173 87.0696 78.1037 88.42 80.7379 88.5534C80.8193 88.5576 80.8998 88.5622 80.9794 88.5622Z" fill="white"/>
</g>
<g opacity="0.3">
<path opacity="0.3" d="M79.5352 88.7736C79.1661 88.7996 78.7958 88.8027 78.4263 88.7828C77.2646 88.7253 76.25 88.4309 75.3965 87.8764C80.3473 86.0083 80.5461 79.4125 80.2401 72.1473L81.2768 72.1749L85.9331 72.3221C86.2897 80.3627 85.9285 87.6648 79.5352 88.7736Z" fill="#390176"/>
</g>
<path d="M78.8968 89.7705C75.507 89.7705 73.137 88.0556 72.0175 84.7777C71.4097 82.9961 71.3572 81.0277 71.8661 79.0851C72.5738 76.3865 73.0955 74.0026 73.4613 71.7972C73.5084 71.5466 73.6517 71.3243 73.8606 71.1781C74.0696 71.0319 74.3275 70.9734 74.5791 71.0151C74.8307 71.0568 75.0559 71.1954 75.2065 71.4012C75.3571 71.6071 75.421 71.8637 75.3847 72.1161C75.0087 74.3813 74.4745 76.8227 73.7521 79.5797C73.338 81.1501 73.3785 82.7297 73.8626 84.1478C74.7741 86.8165 76.5419 87.982 79.419 87.8049C84.5622 86.8764 85.3546 81.2063 84.9607 72.3655C84.9544 72.1103 85.0485 71.8628 85.2226 71.6762C85.3968 71.4896 85.6372 71.3788 85.8922 71.3674C86.1472 71.3561 86.3964 71.4452 86.5864 71.6157C86.7764 71.7861 86.892 72.0243 86.9084 72.279C87.254 80.0592 87.0101 88.4656 79.702 89.7346C79.668 89.7406 79.6338 89.7448 79.5994 89.7471C79.3607 89.7627 79.1265 89.7705 78.8968 89.7705Z" fill="#390176"/>
<path d="M76.4972 83.1496C76.4263 83.6792 76.3591 84.2078 76.384 84.7245C76.4001 85.2408 76.4682 85.7465 76.6187 86.2056C76.7538 86.6425 76.9872 87.0426 77.3011 87.3753C77.4431 87.5232 77.6053 87.6504 77.7828 87.753C77.9477 87.8421 78.1245 87.907 78.3079 87.9458C78.4194 87.9672 78.5256 88.0106 78.6203 88.0734C78.715 88.1362 78.7963 88.2171 78.8595 88.3116C78.9227 88.406 78.9665 88.512 78.9884 88.6235C79.0102 88.735 79.0098 88.8497 78.987 88.961C78.9642 89.0723 78.9196 89.178 78.8557 89.272C78.7918 89.3659 78.7098 89.4462 78.6146 89.5082C78.5195 89.5703 78.4129 89.6128 78.3012 89.6333C78.1894 89.6539 78.0747 89.6521 77.9637 89.628C77.9093 89.6167 77.8562 89.6004 77.8049 89.5792L77.7727 89.5654C77.4408 89.4238 77.132 89.2334 76.8566 89.0004C76.5987 88.775 76.3738 88.5145 76.1884 88.2265C75.8422 87.6865 75.6229 87.075 75.547 86.438C75.4782 85.8489 75.4937 85.2531 75.593 84.6684C75.6749 84.0965 75.8488 83.5558 76.0246 83.0263C76.0439 82.9688 76.0839 82.9207 76.1367 82.8911C76.1896 82.8615 76.2516 82.8527 76.3106 82.8663C76.3696 82.8799 76.4214 82.915 76.456 82.9647C76.4906 83.0144 76.5054 83.0752 76.4976 83.1353L76.4972 83.1496Z" fill="#390176"/>
<path d="M81.2814 84.4385C81.3099 84.9515 81.3338 85.4733 81.268 86.0061C81.2091 86.5362 81.0973 87.0855 80.8295 87.6165C80.553 88.1748 80.1218 88.6418 79.5872 88.9619C79.0429 89.2964 78.4324 89.4441 77.8614 89.5251H77.8522C77.7406 89.5409 77.6271 89.5345 77.518 89.5065C77.4089 89.4784 77.3064 89.4291 77.2164 89.3614C77.1263 89.2937 77.0505 89.2089 76.9932 89.1119C76.9359 89.0149 76.8983 88.9076 76.8825 88.796C76.8667 88.6845 76.873 88.5709 76.9011 88.4618C76.9292 88.3527 76.9785 88.2502 77.0462 88.1602C77.1139 88.0701 77.1987 87.9943 77.2957 87.937C77.3927 87.8797 77.5 87.8421 77.6115 87.8263C77.6695 87.8187 77.728 87.8165 77.7864 87.8199C78.2111 87.8466 78.6146 87.8305 78.9638 87.7058C79.3339 87.5812 79.6588 87.3496 79.8974 87.0404C80.1615 86.7161 80.351 86.2923 80.4955 85.8441C80.6478 85.3974 80.7256 84.9138 80.7969 84.4279V84.415C80.806 84.3554 80.8368 84.3012 80.8834 84.2629C80.9301 84.2246 80.9892 84.205 81.0495 84.2077C81.1098 84.2105 81.1669 84.2354 81.2099 84.2778C81.2529 84.3201 81.2787 84.3769 81.2823 84.4371L81.2814 84.4385Z" fill="#390176"/>
<path d="M0.265901 122.623C2.86375 122.122 5.46159 121.989 8.05897 121.936C10.6568 121.866 13.2547 121.903 15.8525 121.941C18.4504 121.979 21.0482 121.972 23.6456 121.973H109.372H113.269C114.568 121.973 115.866 121.927 117.165 121.909C118.464 121.891 119.763 121.92 121.062 122.001C122.361 122.098 123.66 122.258 124.959 122.623C125.03 122.643 125.092 122.685 125.137 122.744C125.181 122.803 125.205 122.874 125.205 122.948C125.205 123.022 125.181 123.093 125.137 123.152C125.092 123.211 125.03 123.253 124.959 123.273C123.66 123.638 122.361 123.799 121.062 123.895C119.763 123.977 118.464 124.008 117.165 123.987C115.866 123.966 114.568 123.922 113.269 123.923H109.372H23.6479C21.0505 123.923 18.4527 123.914 15.8548 123.955C13.257 123.995 10.6591 124.03 8.06127 123.96C5.46389 123.907 2.86605 123.776 0.268202 123.272C0.192718 123.258 0.124658 123.217 0.0757146 123.158C0.0267713 123.099 0 123.024 0 122.948C0 122.871 0.0267713 122.796 0.0757146 122.737C0.124658 122.678 0.192718 122.637 0.268202 122.623L0.265901 122.623Z" fill="#390176"/>
</svg>
