<svg width="386" height="286" viewBox="0 0 386 286" fill="none" xmlns="http://www.w3.org/2000/svg">
<g opacity="0.9" clip-path="url(#clip0)">
<path d="M277.769 169.665L280.806 167.792C281.095 167.609 281.379 167.414 281.672 167.231C275.159 166.111 269.224 162.801 264.849 157.849C260.475 152.896 257.922 146.599 257.615 139.998C257.392 135.459 258.25 130.932 260.119 126.789C261.859 122.913 264.429 119.465 267.646 116.69C270.864 113.914 274.651 111.879 278.741 110.726L278.591 122.675L285.156 109.669C285.182 109.665 285.21 109.665 285.237 109.669C289.041 109.491 292.843 110.065 296.426 111.356C300.009 112.648 303.302 114.633 306.117 117.197C308.933 119.761 311.216 122.855 312.836 126.301C314.455 129.748 315.38 133.479 315.558 137.283C315.582 137.836 315.558 138.381 315.558 138.909C317.842 136.304 319.915 133.511 321.289 130.451C324.07 124.252 324.135 117.233 323.903 108.702C323.464 91.7932 322.736 74.7588 321.785 57.7731C314.931 57.012 308.572 53.8318 303.852 48.8038C299.132 43.7759 296.36 37.2299 296.033 30.3417C295.993 29.4516 296.005 28.5777 296.033 27.7079C296.033 27.4925 296.033 27.273 296.066 27.0576C296.123 26.2162 296.2 25.383 296.33 24.5619C296.33 24.4237 296.379 24.2937 296.403 24.1555C296.523 23.4591 296.665 22.7708 296.83 22.0907C296.895 21.8387 296.956 21.5827 297.025 21.3307C297.229 20.5909 297.432 19.8634 297.712 19.1439C297.798 18.9041 297.899 18.6724 297.989 18.4367C298.196 17.9083 298.42 17.3881 298.655 16.8719C298.781 16.5995 298.903 16.3313 299.037 16.059C299.07 15.9899 299.098 15.9208 299.135 15.8517C302.196 9.80708 307.278 5.02595 313.498 2.33936C319.719 -0.347224 326.684 -0.769394 333.183 1.14624L332.988 16.6971L339.492 3.85321C344.827 6.90656 349.046 11.5855 351.533 17.2065C354.019 22.8276 354.643 29.0964 353.313 35.0972H353.346C353.301 35.3045 353.236 35.5036 353.187 35.7069C353.098 36.0889 353 36.4669 352.895 36.8449C352.756 37.3286 352.602 37.8042 352.443 38.2797C352.321 38.6333 352.204 38.9951 352.069 39.3446C351.874 39.8567 351.663 40.3567 351.427 40.8566C351.297 41.1493 351.179 41.446 351.021 41.7345C350.649 42.4824 350.243 43.214 349.801 43.9294C349.651 44.1773 349.48 44.4131 349.322 44.661C349.013 45.1406 348.7 45.6162 348.362 46.0795C348.155 46.364 347.931 46.6364 347.712 46.9168C347.395 47.3233 347.069 47.7297 346.732 48.0996C346.492 48.3719 346.248 48.6402 345.996 48.9125C345.643 49.2864 345.277 49.6482 344.899 50.0058C344.651 50.2457 344.399 50.4855 344.139 50.7131C343.712 51.0911 343.265 51.4528 342.813 51.8064C342.586 51.9853 342.366 52.1722 342.131 52.3429C341.445 52.8524 340.736 53.3306 340.005 53.7777C339.866 53.859 339.72 53.9281 339.598 54.0094C338.988 54.3711 338.379 54.7085 337.724 55.0255C337.452 55.1597 337.167 55.2775 336.887 55.4035C336.362 55.6393 335.834 55.8669 335.293 56.0742C334.98 56.192 334.659 56.3018 334.338 56.4115C333.805 56.5944 333.265 56.7611 332.712 56.9115C332.387 57.0009 332.066 57.0903 331.736 57.1675C331.143 57.3098 330.537 57.4277 329.927 57.5293C329.887 57.5293 329.85 57.5293 329.81 57.5537C330.211 64.718 330.567 71.8865 330.879 79.059C332.608 75.51 335.044 72.3516 338.037 69.7776C341.031 67.2036 344.518 65.2683 348.287 64.0903C352.055 62.9124 356.024 62.5167 359.951 62.9275C363.878 63.3383 367.679 64.547 371.122 66.4793L365.996 80.5223L376.541 70.3975C382.185 75.5707 385.548 82.771 385.89 90.4194C386.024 93.103 385.777 95.7922 385.154 98.4062C383.83 104.063 380.836 109.191 376.56 113.125C372.285 117.06 366.926 119.618 361.178 120.47C355.43 121.321 349.559 120.426 344.327 117.9C339.094 115.373 334.742 111.333 331.834 106.304C331.834 107.031 331.887 107.763 331.907 108.49C332.098 116.018 332.338 125.382 328.586 133.747C326.045 139.417 321.952 144.022 317.907 148.148C315.277 150.834 312.55 153.432 309.753 155.948C307.003 159.64 303.414 162.624 299.281 164.654C294.688 168.193 289.932 171.507 285.013 174.596L282.025 176.522C279.265 178.233 276.436 179.989 273.66 181.806C274.147 181.757 274.631 181.704 275.127 181.684C281.273 181.396 287.351 183.069 292.483 186.461C297.616 189.854 301.537 194.789 303.68 200.556L285.558 215.306L305.476 210.684C305.471 215.588 304.223 220.41 301.848 224.7C299.473 228.99 296.05 232.608 291.897 235.216C287.744 237.825 282.998 239.338 278.102 239.615C273.206 239.891 268.32 238.923 263.9 236.799C264.347 237.36 264.798 237.917 265.245 238.474C266.135 239.583 267.022 240.685 267.887 241.778C279.676 256.707 282.96 270.884 277.119 281.692L270.022 277.855C275.713 267.336 267.176 253.874 261.554 246.777C260.705 245.704 259.835 244.623 258.957 243.526C251.424 234.177 242.888 223.561 243.103 210.55C243.408 190.959 262.469 179.144 277.769 169.665Z" fill="#F2F2F2"/>
<path d="M185.161 286C287.422 286 370.321 282.178 370.321 277.464C370.321 272.75 287.422 268.929 185.161 268.929C82.8992 268.929 0 272.75 0 277.464C0 282.178 82.8992 286 185.161 286Z" fill="#514E6D"/>
<path d="M334.749 274.282C335.968 272.042 334.586 269.299 333.009 267.299C331.432 265.299 329.509 263.235 329.549 260.678C329.606 257.02 333.488 254.862 336.594 252.923C338.894 251.483 341.016 249.776 342.915 247.838C343.712 247.093 344.372 246.212 344.862 245.237C345.5 243.806 345.484 242.18 345.444 240.611C345.308 235.393 345.051 230.179 344.671 224.971" stroke="#514E6D" stroke-width="4" stroke-miterlimit="10"/>
<path d="M350.57 224.695C350.524 223.74 350.24 222.812 349.743 221.995C349.246 221.179 348.552 220.5 347.724 220.021L346.448 222.549L346.485 219.492C345.611 219.231 344.688 219.183 343.793 219.352C342.897 219.522 342.056 219.904 341.339 220.466C340.622 221.029 340.05 221.755 339.672 222.584C339.294 223.413 339.121 224.321 339.167 225.231C339.239 226.741 339.906 228.16 341.024 229.176C341.577 229.68 342.225 230.07 342.929 230.323C343.632 230.576 344.379 230.689 345.127 230.653C345.874 230.618 346.607 230.436 347.284 230.118C347.961 229.799 348.569 229.35 349.072 228.797C349.576 228.244 349.966 227.597 350.219 226.893C350.472 226.189 350.585 225.442 350.55 224.695H350.57Z" fill="#57B793"/>
<path d="M340.394 263.308C339.797 264.468 338.819 265.388 337.624 265.913C336.429 266.438 335.09 266.536 333.831 266.192C332.573 265.847 331.47 265.08 330.71 264.019C329.949 262.959 329.576 261.669 329.654 260.367C329.731 259.064 330.254 257.827 331.134 256.864C332.015 255.901 333.2 255.269 334.49 255.076C335.781 254.882 337.099 255.138 338.224 255.801C339.348 256.463 340.211 257.492 340.667 258.715L337.106 261.613L341.025 260.702C341.025 261.609 340.809 262.502 340.394 263.308Z" fill="#57B793"/>
<path d="M337.578 252.216C336.829 252.252 336.081 252.14 335.376 251.886C334.671 251.632 334.023 251.241 333.469 250.736C332.915 250.232 332.467 249.622 332.149 248.944C331.832 248.265 331.651 247.53 331.619 246.782C331.573 245.889 331.742 244.998 332.11 244.184C332.452 243.422 332.957 242.744 333.589 242.197C334.221 241.651 334.965 241.25 335.769 241.022L335.74 243.375L337.033 240.815C338.545 240.744 340.023 241.277 341.142 242.296C342.262 243.315 342.93 244.737 343.001 246.249C343.071 247.761 342.538 249.239 341.519 250.358C340.5 251.477 339.078 252.145 337.566 252.216H337.578Z" fill="#57B793"/>
<path d="M351.428 242.985C349.918 243.056 348.442 242.525 347.325 241.508C346.207 240.491 345.539 239.072 345.468 237.563C345.397 236.054 345.928 234.578 346.945 233.461C347.962 232.343 349.382 231.676 350.891 231.605C351.958 231.552 353.018 231.803 353.948 232.328L352.94 235.092L355.013 233.1C356.125 234.117 356.789 235.533 356.858 237.039C356.884 237.566 356.835 238.094 356.712 238.608C356.427 239.813 355.758 240.892 354.804 241.682C353.85 242.472 352.665 242.93 351.428 242.985Z" fill="#57B793"/>
<path opacity="0.1" d="M349.801 226.199C348.484 226.345 347.204 226.756 345.882 226.837C344.561 226.918 343.11 226.601 342.273 225.573C341.822 225.02 341.598 224.321 341.216 223.719C340.856 223.157 340.363 222.692 339.781 222.366C339.437 223.085 339.248 223.869 339.226 224.666C339.204 225.464 339.35 226.256 339.655 226.994C339.959 227.731 340.415 228.396 340.993 228.945C341.571 229.495 342.258 229.917 343.01 230.184C343.762 230.451 344.561 230.557 345.356 230.495C346.151 230.433 346.925 230.205 347.626 229.825C348.327 229.445 348.941 228.921 349.427 228.289C349.913 227.657 350.261 226.929 350.447 226.154C350.228 226.162 350.012 226.178 349.801 226.199Z" fill="black"/>
<path opacity="0.1" d="M351.428 242.985C350.444 243.035 349.464 242.829 348.583 242.386C347.703 241.944 346.953 241.281 346.406 240.461C345.859 239.642 345.534 238.695 345.463 237.712C345.392 236.73 345.577 235.746 346.001 234.856C346.454 235.162 346.843 235.552 347.147 236.006C347.554 236.62 347.798 237.327 348.277 237.892C349.163 238.937 350.684 239.278 352.062 239.213C353.44 239.148 354.765 238.762 356.127 238.636C356.314 238.636 356.509 238.604 356.7 238.599C356.418 239.804 355.75 240.884 354.799 241.676C353.847 242.467 352.664 242.927 351.428 242.985Z" fill="black"/>
<path opacity="0.1" d="M337.578 252.216C336.829 252.252 336.081 252.14 335.376 251.886C334.671 251.632 334.023 251.241 333.469 250.736C332.915 250.231 332.467 249.622 332.149 248.943C331.832 248.265 331.651 247.53 331.619 246.781C331.573 245.889 331.742 244.998 332.11 244.184C332.584 244.494 332.997 244.886 333.33 245.343C333.773 245.969 334.049 246.688 334.549 247.265C335.513 248.338 337.131 248.716 338.59 248.68C340.049 248.643 341.362 248.302 342.769 248.196C342.422 249.318 341.737 250.306 340.808 251.025C339.879 251.745 338.751 252.16 337.578 252.216Z" fill="black"/>
<path opacity="0.1" d="M340.395 263.308C340.088 263.991 339.649 264.606 339.104 265.12C338.559 265.634 337.918 266.035 337.218 266.301C336.518 266.566 335.773 266.692 335.024 266.67C334.276 266.648 333.539 266.478 332.856 266.171C332.173 265.864 331.557 265.426 331.044 264.881C330.53 264.336 330.129 263.695 329.863 262.995C329.597 262.295 329.472 261.55 329.494 260.802C329.516 260.053 329.685 259.316 329.992 258.634C330.461 258.945 330.882 259.321 331.244 259.751C331.785 260.414 332.143 261.162 332.773 261.784C333.939 262.926 335.821 263.409 337.496 263.442C338.464 263.455 339.432 263.41 340.395 263.308Z" fill="black"/>
<path d="M326.146 271.701C326.146 271.701 330.646 271.563 332.004 270.595C333.362 269.628 338.915 268.474 339.268 270.026C339.622 271.579 346.037 277.749 340.951 277.773C335.866 277.798 329.138 276.961 327.785 276.148C326.431 275.335 326.146 271.701 326.146 271.701Z" fill="#656380"/>
<path opacity="0.2" d="M341.041 277.233C335.959 277.274 329.228 276.42 327.874 275.607C326.846 274.981 326.431 272.725 326.297 271.685H326.146C326.146 271.685 326.431 275.314 327.772 276.156C329.114 276.997 335.854 277.814 340.939 277.782C342.407 277.782 342.915 277.245 342.886 276.473C342.695 276.932 342.134 277.225 341.041 277.233Z" fill="black"/>
<path d="M79.0276 261.743C76.0764 256.28 79.4341 249.59 83.2715 244.721C87.1088 239.852 91.808 234.787 91.7064 228.581C91.56 219.663 82.0967 214.399 74.5358 209.672C68.9253 206.164 63.7498 202.004 59.1173 197.28C57.2596 195.382 55.4588 193.357 54.3775 190.935C52.8165 187.448 52.8572 183.485 52.9588 179.664C53.284 166.929 53.9127 154.217 54.845 141.531" stroke="#514E6D" stroke-width="4" stroke-miterlimit="10"/>
<path d="M40.467 140.836C40.5783 138.509 41.2724 136.248 42.4855 134.259C43.6987 132.271 45.392 130.619 47.41 129.455L50.5238 135.613L50.4303 128.158C53.2591 127.325 56.2796 127.412 59.0557 128.407C61.8319 129.402 64.2199 131.253 65.8751 133.694C67.5302 136.134 68.3668 139.038 68.2641 141.984C68.1614 144.931 67.1246 147.769 65.3035 150.089C63.4825 152.408 60.9713 154.089 58.1326 154.888C55.294 155.687 52.2747 155.564 49.5108 154.536C46.7469 153.507 44.3814 151.627 42.7558 149.167C41.1302 146.706 40.3287 143.793 40.467 140.848V140.836Z" fill="#57B793"/>
<path d="M65.2715 234.954C66.6699 237.679 68.9292 239.866 71.6984 241.175C74.4677 242.484 77.5918 242.842 80.5854 242.193C83.579 241.544 86.2746 239.925 88.2532 237.587C90.2318 235.249 91.3828 232.323 91.5273 229.263C91.6244 227.34 91.3155 225.418 90.6208 223.622C89.6052 220.987 87.8118 218.724 85.479 217.134C83.1462 215.543 80.3845 214.7 77.5609 214.716C74.7372 214.732 71.9854 215.607 69.6712 217.225C67.357 218.843 65.5899 221.126 64.6048 223.772L73.2917 230.836L63.7349 228.613C63.7309 230.819 64.2579 232.994 65.2715 234.954Z" fill="#57B793"/>
<path d="M72.1372 207.957C75.5475 208.113 78.8961 207.01 81.5455 204.857C84.1948 202.704 85.9599 199.652 86.5047 196.282C87.0495 192.913 86.336 189.46 84.4999 186.582C82.6638 183.705 79.8335 181.602 76.5477 180.676L76.6209 186.403L73.4908 180.172H73.4542C69.7687 180 66.1659 181.299 63.4382 183.783C60.7106 186.267 59.0816 189.733 58.9097 193.418C58.7377 197.103 60.0368 200.706 62.5213 203.433C65.0057 206.161 68.472 207.789 72.1575 207.961L72.1372 207.957Z" fill="#57B793"/>
<path d="M38.3736 185.492C40.5269 185.597 42.6751 185.2 44.6487 184.333C46.6223 183.465 48.3672 182.151 49.7457 180.494C51.1242 178.836 52.0985 176.881 52.5918 174.783C53.0852 172.684 53.0839 170.5 52.5882 168.402C52.0926 166.304 51.116 164.35 49.7357 162.695C48.3553 161.039 46.6089 159.726 44.6344 158.861C42.6598 157.996 40.5112 157.601 38.358 157.709C36.2048 157.816 34.106 158.422 32.2273 159.48L34.6663 166.214L29.6298 161.349C28.2834 162.574 27.1918 164.053 26.4176 165.7C25.6433 167.348 25.2016 169.131 25.1176 170.95C25.0531 172.236 25.1721 173.525 25.4713 174.778C26.1627 177.725 27.7967 180.365 30.1253 182.299C32.4539 184.233 35.3498 185.354 38.3736 185.492Z" fill="#57B793"/>
<path opacity="0.1" d="M42.337 144.542C45.5483 144.896 48.6702 145.892 51.8897 146.091C55.1092 146.29 58.6498 145.522 60.6864 143.018C61.7839 141.669 62.3327 139.962 63.2595 138.49C64.1377 137.119 65.3415 135.987 66.7635 135.194C67.6491 136.957 68.1495 138.887 68.2318 140.858C68.314 142.829 67.9761 144.794 67.2405 146.624C66.5049 148.455 65.3884 150.107 63.9651 151.473C62.5419 152.839 60.8444 153.886 58.9853 154.546C57.1262 155.205 55.1481 155.462 53.1822 155.299C51.2164 155.136 49.3077 154.556 47.5829 153.599C45.8581 152.642 44.3567 151.329 43.1782 149.747C41.9997 148.165 41.1712 146.351 40.7476 144.425C41.2882 144.449 41.8167 144.486 42.337 144.542Z" fill="black"/>
<path opacity="0.1" d="M38.3733 185.493C40.7702 185.603 43.1549 185.092 45.2961 184.009C47.4372 182.927 49.2621 181.309 50.5935 179.313C51.9249 177.317 52.7177 175.011 52.8949 172.618C53.0722 170.226 52.6278 167.828 51.6049 165.658C50.5006 166.4 49.5508 167.35 48.8082 168.454C47.8163 169.95 47.2188 171.677 46.0521 173.051C43.8855 175.595 40.1863 176.429 36.8286 176.278C33.471 176.128 30.2312 175.169 26.8897 174.864C26.4263 174.823 25.9548 174.791 25.4873 174.778C26.1779 177.722 27.8095 180.361 30.1349 182.294C32.4602 184.228 35.3524 185.351 38.3733 185.493Z" fill="black"/>
<path opacity="0.1" d="M72.1374 207.957C74.5109 208.069 76.8734 207.57 78.9994 206.509C81.1255 205.448 82.9442 203.86 84.2822 201.897C85.6201 199.934 86.4325 197.66 86.642 195.294C86.8515 192.927 86.451 190.546 85.4787 188.378C84.3334 189.139 83.3372 190.104 82.5398 191.224C81.4585 192.748 80.7837 194.504 79.5195 195.91C77.1739 198.523 73.2309 199.446 69.674 199.361C66.231 199.288 62.9139 198.442 59.4912 198.178C60.3386 200.91 62.0072 203.314 64.2701 205.064C66.5329 206.814 69.2799 207.824 72.1374 207.957Z" fill="black"/>
<path opacity="0.1" d="M65.272 234.954C66.6704 237.679 68.9297 239.866 71.699 241.175C74.4682 242.484 77.5923 242.842 80.5859 242.193C83.5796 241.544 86.2751 239.925 88.2537 237.587C90.2323 235.249 91.3833 232.323 91.5278 229.263C91.6249 227.34 91.316 225.418 90.6213 223.622C89.4769 224.373 88.4496 225.29 87.5726 226.341C86.2514 227.967 85.3775 229.78 83.849 231.283C81.0035 234.072 76.4141 235.226 72.3288 235.348C69.9708 235.356 67.6144 235.224 65.272 234.954Z" fill="black"/>
<path d="M175.291 269.864L121.633 280.838L120.413 280.716L73.2593 275.961V216.212L130.982 206.457L172.852 211.335L172.864 211.599L172.868 211.729L175.291 269.864Z" fill="#FFA400"/>
<path opacity="0.1" d="M175.291 269.864L121.633 280.838L120.413 280.716V219.464L172.864 211.599L175.291 269.864Z" fill="black"/>
<path opacity="0.05" d="M172.868 211.729L172.852 211.741L120.413 219.464L73.2593 216.212L130.982 206.457L172.852 211.335L172.864 211.599L172.868 211.729Z" fill="black"/>
<path d="M234.233 272.303L180.575 283.277L179.356 283.155L132.202 278.399V218.651L189.925 208.896L231.794 213.773L231.806 214.038L231.81 214.168L234.233 272.303Z" fill="#514E6D"/>
<path opacity="0.2" d="M234.233 272.303L180.575 283.277L179.355 283.155V221.903L231.806 214.038L234.233 272.303Z" fill="black"/>
<path opacity="0.05" d="M231.81 214.168L231.794 214.18L179.356 221.902L132.202 218.651L189.925 208.896L231.794 213.773L231.806 214.038L231.81 214.168Z" fill="black"/>
<path d="M197.242 213.773L143.584 224.748L142.364 224.626L95.2104 219.87V160.122L152.933 150.367L194.803 155.244L194.815 155.509L194.819 155.639L197.242 213.773Z" fill="#514E6D"/>
<path opacity="0.2" d="M197.242 213.773L143.584 224.748L142.364 224.626V163.373L194.815 155.509L197.242 213.773Z" fill="black"/>
<path opacity="0.05" d="M194.819 155.639L194.803 155.651L142.364 163.373L95.2104 160.122L152.933 150.367L194.803 155.244L194.815 155.509L194.819 155.639Z" fill="black"/>
<path d="M227.729 216.277L199.725 222.008L199.087 221.943L174.478 219.46V188.277L204.603 183.184L226.457 185.732L226.465 185.87V185.936L227.729 216.277Z" fill="#514E6D"/>
<path opacity="0.2" d="M227.729 216.277L199.726 222.008L199.087 221.943V189.976L226.465 185.87L227.729 216.277Z" fill="black"/>
<path opacity="0.05" d="M226.465 185.936L226.457 185.944L199.087 189.976L174.478 188.277L204.603 183.184L226.457 185.732L226.465 185.87V185.936Z" fill="black"/>
<path d="M152.527 155.716L124.523 161.443L123.885 161.382L99.2754 158.898V127.715L129.401 122.623L151.255 125.171L151.263 125.309V125.374L152.527 155.716Z" fill="#514E6D"/>
<path opacity="0.2" d="M152.527 155.716L124.523 161.443L123.885 161.382V129.414L151.263 125.309L152.527 155.716Z" fill="black"/>
<path opacity="0.05" d="M151.263 125.374L151.255 125.382L123.885 129.414L99.2754 127.715L129.401 122.623L151.255 125.171L151.263 125.309V125.374Z" fill="black"/>
<path d="M201.713 154.497L173.71 160.223L173.071 160.162L148.462 157.679V126.496L178.588 121.403L200.441 123.952L200.449 124.09V124.155L201.713 154.497Z" fill="#FFA400"/>
<path opacity="0.1" d="M201.713 154.496L173.709 160.223L173.071 160.162V128.195L200.449 124.09L201.713 154.496Z" fill="black"/>
<path opacity="0.05" d="M200.449 124.155L200.441 124.163L173.071 128.195L148.462 126.496L178.588 121.403L200.441 123.952L200.449 124.09V124.155Z" fill="black"/>
<path d="M216.347 123.2L188.343 128.927L187.705 128.866L163.096 126.382V95.1993L193.221 90.1064L215.075 92.6549L215.083 92.7931V92.8581L216.347 123.2Z" fill="#514E6D"/>
<path opacity="0.2" d="M216.348 123.2L188.344 128.927L187.706 128.866V96.8981L215.083 92.793L216.348 123.2Z" fill="black"/>
<path opacity="0.05" d="M215.083 92.8581L215.075 92.8663L187.705 96.8983L163.096 95.1993L193.221 90.1064L215.075 92.6549L215.083 92.7931V92.8581Z" fill="black"/>
<path d="M235.421 59.4518C235.124 62.0937 233.108 64.2235 232.36 66.7679C231.238 70.6089 233.173 74.7344 235.839 77.7421C237.988 80.132 240.59 82.0717 243.494 83.4489C246.399 84.8262 249.547 85.6136 252.758 85.7655C253.701 85.8466 254.651 85.7431 255.554 85.4606C256.359 85.1332 257.084 84.637 257.68 84.0055C259.68 81.9936 260.758 79.2094 261.185 76.4008C261.611 73.5922 261.449 70.7349 261.282 67.9019C261.282 67.3156 261.174 66.7343 260.965 66.1867C260.693 65.6659 260.318 65.2055 259.863 64.8332C258.422 63.5084 256.833 62.3533 255.128 61.3905C254.396 60.9841 253.611 60.5776 253.144 59.8745C252.823 59.3145 252.615 58.6974 252.53 58.0576L252.006 55.3913C251.913 54.6225 251.651 53.884 251.237 53.229C250.315 51.9852 248.546 51.8145 246.998 51.7536L241.307 51.53C239.538 51.4609 237.213 50.9529 235.486 51.3024C233.86 51.6235 234.408 53.1111 234.701 54.4605C235.124 56.0926 235.366 57.7666 235.421 59.4518Z" fill="#FFC0C6"/>
<path opacity="0.1" d="M235.421 59.4518C235.124 62.0937 233.108 64.2235 232.36 66.7679C231.238 70.6089 233.173 74.7344 235.839 77.7421C237.988 80.132 240.59 82.0717 243.494 83.4489C246.399 84.8262 249.547 85.6136 252.758 85.7655C253.701 85.8466 254.651 85.7431 255.554 85.4606C256.359 85.1332 257.084 84.637 257.68 84.0055C259.68 81.9936 260.758 79.2094 261.185 76.4008C261.611 73.5922 261.449 70.7349 261.282 67.9019C261.282 67.3156 261.174 66.7343 260.965 66.1867C260.693 65.6659 260.318 65.2055 259.863 64.8332C258.422 63.5084 256.833 62.3533 255.128 61.3905C254.396 60.9841 253.611 60.5776 253.144 59.8745C252.823 59.3145 252.615 58.6974 252.53 58.0576L252.006 55.3913C251.913 54.6225 251.651 53.884 251.237 53.229C250.315 51.9852 248.546 51.8145 246.998 51.7536L241.307 51.53C239.538 51.4609 237.213 50.9529 235.486 51.3024C233.86 51.6235 234.408 53.1111 234.701 54.4605C235.124 56.0926 235.366 57.7666 235.421 59.4518Z" fill="black"/>
<path d="M271.562 178.445L269.148 204.913C268.518 211.855 267.875 218.826 266.64 225.678C266.233 228.04 265.713 230.389 265.119 232.718C263.469 239.185 261.075 245.505 260.302 252.134C260.278 252.325 260.258 252.541 260.237 252.716C260.079 254.179 259.941 255.658 259.424 257.024C259.018 258.036 258.445 258.959 258.026 259.959C257.213 261.958 257.083 264.169 256.981 266.336C254.051 264.682 250.842 263.58 247.514 263.084C245.888 262.844 244.12 262.678 243.042 261.458C241.823 260.133 241.965 258.105 242.168 256.325C242.808 250.797 243.445 245.272 244.079 239.75C244.29 237.374 244.698 235.019 245.298 232.71C245.518 231.942 245.782 231.186 246.051 230.43C246.42 229.389 246.794 228.349 247.075 227.28C247.464 225.562 247.733 223.82 247.88 222.065C248.534 216.505 249.323 210.957 250.014 205.401L250.05 205.108C251.087 196.686 251.876 188.224 251.648 179.741C251.615 178.485 251.563 177.229 251.481 175.969C251.368 174.144 251.201 173.177 252.701 172.035C254.372 170.775 256.571 169.893 258.481 169.068C259.51 168.621 270.835 164.597 271.083 165.483C271.608 167.365 271.882 169.309 271.896 171.263C271.919 173.661 271.807 176.059 271.562 178.445Z" fill="#74709B"/>
<path opacity="0.1" d="M266.64 225.678C266.233 228.04 265.713 230.389 265.119 232.718C263.469 239.185 261.075 245.505 260.302 252.134C260.278 252.325 260.258 252.541 260.237 252.716C255.189 245.505 250.937 237.75 246.01 230.462C246.38 229.422 246.754 228.381 247.034 227.312C247.438 225.585 247.721 223.832 247.88 222.065C248.534 216.505 249.323 210.957 250.014 205.401L250.05 205.108C250.336 206.287 250.744 207.433 251.27 208.526C254.579 215.249 262.441 218.647 266.286 225.081C266.413 225.281 266.531 225.481 266.64 225.678Z" fill="black"/>
<path d="M225.672 166.572C225.839 171.962 226.701 177.307 227.563 182.631L229.339 193.605C230.311 199.621 231.327 205.754 234.172 211.14C236.302 215.172 239.367 218.61 242.144 222.224C248.965 231.109 254.091 241.176 260.558 250.322C262.44 252.98 265.127 255.858 268.335 255.301C270.44 254.939 271.969 253.183 273.619 251.834C275.57 250.24 277.92 249.074 279.456 247.074C280.993 245.074 281.294 241.758 279.212 240.335C278.501 239.851 277.635 239.669 276.83 239.36C273.607 238.14 271.517 234.986 270.192 231.8C268.867 228.613 268.058 225.195 266.29 222.232C262.444 215.798 254.579 212.4 251.27 205.673C249.416 201.909 249.237 197.544 249.099 193.37L248.737 182.676C248.697 181.505 248.668 180.29 249.144 179.221C250.408 176.376 254.229 176.108 257.327 175.746C260.839 175.336 264.242 174.263 267.355 172.584C269.139 171.62 270.879 170.393 271.826 168.604C272.696 166.979 272.814 165.064 272.916 163.219L273.989 143.835C274.082 142.169 274.164 140.441 273.582 138.881C272.107 134.954 267.148 133.67 262.957 133.857C255.16 134.206 247.965 137.56 240.599 139.828C238.774 140.389 236.941 140.893 235.059 141.271C233.433 141.6 231.4 141.466 229.839 141.994C227.042 142.937 227.111 149.058 226.717 151.594C225.904 156.544 225.554 161.558 225.672 166.572Z" fill="#74709B"/>
<path d="M267.278 256.122C267.965 256.817 268.188 257.833 268.367 258.792C269.361 264.116 269.878 269.517 269.912 274.932C269.867 275.438 269.967 275.945 270.2 276.396C270.395 276.663 270.658 276.873 270.96 277.005C272.948 277.952 275.253 276.631 276.912 275.18C279.981 272.494 282.578 268.884 282.753 264.808C282.798 263.759 282.68 262.698 282.863 261.662C283.131 260.125 284.029 258.788 284.818 257.447C286.167 255.161 287.258 252.731 288.07 250.204C288.371 249.253 288.574 248.058 287.826 247.395C287.564 247.187 287.265 247.031 286.944 246.936L277.96 243.603C277.18 243.314 275.245 248.285 274.94 248.83C274.188 250.159 273.44 250.911 271.932 251.22C270.424 251.529 268.562 251.082 267.123 251.85C264.684 253.147 265.9 254.736 267.278 256.122Z" fill="#535070"/>
<path d="M253.424 259.19C253.258 258.858 253.025 258.564 252.741 258.325C252.326 258.06 251.853 257.9 251.363 257.857C249.656 257.565 247.632 257.373 246.449 258.646C245.343 259.837 245.534 261.775 244.611 263.117C244.319 263.523 243.92 263.889 243.668 264.336C243.355 265.02 243.215 265.771 243.262 266.523C243.213 268.592 243.164 270.669 243.31 272.733C243.428 274.465 243.717 276.282 244.802 277.639C246.542 279.818 249.68 280.131 252.461 280.269L254.717 280.387C255.337 280.459 255.966 280.401 256.562 280.216C256.932 280.046 257.264 279.803 257.537 279.502C257.811 279.201 258.022 278.848 258.156 278.464C259.331 275.546 257.473 272.404 256.327 269.478C255.005 266.108 255.241 262.373 253.424 259.19Z" fill="#535070"/>
<path d="M234.77 44.5553C234.741 44.2594 234.784 43.961 234.896 43.6855C235.225 43.1043 236.087 43.279 236.737 43.4253C239.351 44.0838 242.107 43.4863 244.802 43.6408C247.497 43.7952 250.53 45.1406 251.071 47.7825C253.026 46.3989 254.711 44.6686 256.042 42.6775C256.79 41.5597 257.44 40.2794 257.339 38.9381C257.192 37.0034 255.57 35.5564 254.087 34.329L249.615 30.6709C249.026 30.1306 248.346 29.6986 247.607 29.3946C246.575 29.041 245.445 29.2117 244.355 29.2117C241.103 29.2117 237.615 27.7282 234.717 29.2117C233.498 29.8336 232.591 30.9026 231.713 31.9431L227.717 36.6742C227.415 36.9758 227.194 37.3492 227.075 37.7594C226.961 38.3366 227.258 38.9056 227.364 39.4868C227.551 40.5436 227.095 41.6735 227.445 42.6897C228.026 44.3724 230.075 44.6122 231.327 45.5795C231.79 45.9372 232.522 47.1606 233.079 47.1444C234.059 47.1241 234.741 45.3357 234.77 44.5553Z" fill="#514E6D"/>
<path d="M241.55 58.5088C248.622 58.5088 254.355 52.7766 254.355 45.7056C254.355 38.6345 248.622 32.9023 241.55 32.9023C234.479 32.9023 228.746 38.6345 228.746 45.7056C228.746 52.7766 234.479 58.5088 241.55 58.5088Z" fill="#FFC0C6"/>
<path d="M244.55 73.7222C244.116 72.4813 243.3 71.4103 242.217 70.6636C241.135 69.917 239.844 69.5335 238.53 69.5683C238.153 69.6402 237.763 69.5904 237.416 69.426C237.22 69.276 237.062 69.0808 236.957 68.857C236.18 67.4558 235.555 65.9761 235.091 64.4429C234.888 63.7642 234.607 62.9635 233.92 62.7887C233.367 62.6464 232.802 63.0041 232.432 63.439C232.105 63.9057 231.749 64.3522 231.367 64.7762C229.741 66.2151 226.896 64.9022 225.193 66.2232C224.912 66.4386 224.68 66.715 224.38 66.9142C224.087 67.0925 223.771 67.2293 223.441 67.3206C220.134 68.3961 216.893 69.6623 213.733 71.1128C214.872 77.9575 216.034 84.9322 218.701 91.3338C219.969 94.3822 221.404 97.3696 222.42 100.512C224.672 107.474 224.77 114.924 224.798 122.245C224.798 127.252 224.798 132.365 223.172 137.104C222.806 138.177 222.359 139.242 222.258 140.356C222.156 141.47 222.489 142.73 223.404 143.396C223.933 143.745 224.541 143.959 225.172 144.018C227.981 144.425 230.81 143.685 233.575 143.043C240.985 141.327 248.546 140.344 256.087 139.385L268.729 137.759C269.636 137.695 270.523 137.465 271.347 137.08C273.66 135.816 273.879 132.337 272.44 130.126C271.753 129.065 270.782 128.195 270.2 127.073C269.619 125.951 269.574 124.374 270.57 123.598C272.603 122.013 271.993 119.074 272.091 116.505C272.362 109.319 272.325 102.139 271.981 94.9634C271.877 93.4755 271.853 91.983 271.908 90.4925C272.05 87.9643 272.676 85.489 273.302 83.03L277.143 67.91C276.139 66.3248 274.217 65.3168 272.399 64.8616C270.582 64.4064 268.684 64.2722 266.891 63.7154C263.233 62.5773 259.948 59.6915 256.115 59.9598C255.824 59.9649 255.538 60.0343 255.278 60.163C254.416 60.6548 254.55 61.8985 254.497 62.8903C254.375 65.0892 252.757 66.9223 250.977 68.2108C249.196 69.4992 247.156 70.434 245.518 71.9013C245.233 72.1158 244.999 72.3899 244.832 72.7045C244.665 73.0191 244.569 73.3665 244.55 73.7222Z" fill="#514E6D"/>
<path d="M193.815 88.066C192.967 88.6173 192.065 89.0816 191.124 89.452C190.23 89.8056 189.275 90.086 188.543 90.7038C188.181 91.0181 187.876 91.3937 187.644 91.8134C187.211 92.582 186.992 93.4527 187.01 94.3348C187.028 95.2168 187.283 96.0779 187.747 96.8281C188.211 97.5783 188.868 98.1903 189.65 98.6001C190.431 99.0099 191.308 99.2026 192.189 99.1581C193.364 99.0971 194.474 98.6215 195.551 98.1541L204.583 94.2237C206.112 93.5612 207.762 92.7889 208.486 91.2851C208.569 91.1443 208.6 90.9791 208.575 90.8176C208.505 90.6405 208.372 90.4956 208.201 90.4112C206.166 89.0871 204.385 87.4074 202.945 85.4525C202.575 84.9485 202.132 83.7616 201.596 83.4568C199.685 82.3959 195.348 87.0742 193.815 88.066Z" fill="#FFC0C6"/>
<path d="M290.367 84.8752L293.696 88.6796C294.411 89.4925 295.127 90.3054 295.777 91.1834C297.378 93.3874 298.661 95.8049 299.59 98.3654C300.314 100.264 300.915 102.288 300.663 104.304C300.494 105.337 300.215 106.35 299.83 107.324C299.22 109.196 298.463 111.017 297.566 112.77C296.816 114.1 295.97 115.373 295.033 116.579C292.455 119.995 289.633 123.221 286.59 126.232C285.452 127.358 284.964 129.183 284.48 130.703C283.566 133.511 281.391 135.702 279.29 137.775C278.614 138.489 277.866 139.132 277.058 139.693C275.848 140.474 274.433 140.876 272.993 140.848C272.365 140.851 271.743 140.723 271.168 140.47C269.729 139.787 268.997 138.125 268.847 136.539C268.714 135.099 268.955 133.649 269.546 132.329C271.456 128.097 276.363 126.264 279.83 123.175C281.863 121.367 283.42 119.09 284.956 116.843C285.997 115.438 286.866 113.914 287.546 112.303C288.318 110.234 288.017 107.787 288.696 105.69C288.98 104.8 289.509 103.999 289.798 103.117C290.086 102.235 290.184 101.19 289.643 100.43C289.238 99.9443 288.72 99.5648 288.135 99.3246C285.92 98.2028 283.44 96.7558 283.017 94.3049C282.848 92.9477 283.203 91.5769 284.009 90.4721C284.811 89.3814 285.75 88.3979 286.802 87.5456C287.765 86.6758 289.395 85.7125 290.367 84.8752Z" fill="#FFC0C6"/>
<path d="M191.677 93.3743C191.091 92.1875 190.356 90.9762 189.169 90.3869C188.591 90.1377 187.969 90.0092 187.339 90.0092C186.71 90.0092 186.088 90.1377 185.51 90.3869C184.36 90.8841 183.282 91.535 182.307 92.3216L179.437 94.4392C178.787 94.8661 178.211 95.3976 177.734 96.0122C177.279 96.7578 176.977 97.587 176.848 98.4509C176.441 100.43 176.112 102.467 176.396 104.47C176.852 107.722 178.803 110.535 180.949 113.006C182.291 114.542 183.949 116.095 185.99 116.164C186.872 116.193 187.852 115.843 188.217 115.042C188.345 114.724 188.413 114.385 188.417 114.042C188.636 110.433 187.343 106.909 185.839 103.621C185.433 102.727 184.994 101.8 185.026 100.82C185.014 100.654 185.057 100.488 185.148 100.349C185.277 100.214 185.45 100.129 185.636 100.109C187.697 99.7028 191.25 101.304 192.693 99.0159C193.628 97.5038 192.343 94.7196 191.677 93.3743Z" fill="#FFC0C6"/>
<path d="M234.095 40.5273C234.069 40.2312 234.114 39.9332 234.225 39.6575C234.554 39.0722 235.416 39.2511 236.066 39.3974C238.68 40.0559 241.436 39.4584 244.131 39.6128C246.826 39.7673 249.855 41.1126 250.4 43.7546C252.353 42.3688 254.038 40.6389 255.371 38.6495C256.119 37.5277 256.769 36.2474 256.668 34.9061C256.521 32.9714 254.895 31.5244 253.416 30.301L248.944 26.6429C248.357 26.1027 247.678 25.6707 246.94 25.3667C245.904 25.0131 244.778 25.1838 243.688 25.1838C240.436 25.1838 236.948 23.7002 234.05 25.1838C232.831 25.8056 231.924 26.8746 231.046 27.9151L227.046 32.6462C226.745 32.9485 226.526 33.3218 226.408 33.7315C226.294 34.3086 226.591 34.8777 226.697 35.4589C226.884 36.5157 226.428 37.6456 226.778 38.6577C227.359 40.3444 229.408 40.5842 230.66 41.5516C231.123 41.9093 231.855 43.1327 232.412 43.1164C233.375 43.0961 234.058 41.3077 234.095 40.5273Z" fill="#514E6D"/>
<path d="M206.9 75.6123C206.384 75.9473 205.93 76.3695 205.559 76.8601C205.091 77.5714 204.994 78.4859 204.591 79.2175C203.73 80.8189 201.709 81.392 200.453 82.7049C200.25 82.8843 200.107 83.1231 200.047 83.3877C200.039 83.7452 200.159 84.0938 200.384 84.3713L206.457 93.9148C208.49 94.0936 210.417 92.8255 212.441 92.9962C213.193 93.0572 213.969 93.3173 214.693 93.0938C215.21 92.8634 215.695 92.5669 216.136 92.2118C217.355 91.4476 218.949 91.3582 219.961 90.3543C220.973 89.3503 221.059 87.8749 221.046 86.5052C221.065 85.3164 220.943 84.1295 220.685 82.969C219.79 79.311 216.99 76.4902 215.234 73.2467C214.376 71.6656 213.912 70.743 212.103 71.8282C210.295 72.9134 208.612 74.3604 206.9 75.6123Z" fill="#514E6D"/>
<path d="M280.643 70.7877C281.785 71.5288 282.814 72.4294 283.7 73.4622C284.623 74.6531 285.147 76.1163 286.038 77.3357C286.928 78.555 288.07 79.433 289.046 80.5223C290.53 82.1725 291.534 84.1803 292.517 86.176C290.109 89.3089 287.485 92.2697 284.664 95.0367C284.349 95.4067 283.934 95.6777 283.469 95.8171C283.153 95.851 282.834 95.8059 282.54 95.686C282.247 95.5661 281.987 95.3751 281.786 95.1302C281.347 94.6749 281.038 94.1059 280.619 93.6303C279.633 92.6131 278.318 91.9781 276.908 91.8379C275.509 91.7017 274.102 91.6813 272.7 91.7769C272.393 91.8134 272.081 91.7612 271.802 91.6265C271.595 91.484 271.427 91.291 271.314 91.0656C269.688 88.2692 270.196 84.7575 270.778 81.5628L272.107 74.2466C272.301 72.8498 272.674 71.4838 273.217 70.1821C273.721 69.105 274.843 67.276 276.233 67.6012C277.623 67.9263 279.469 69.9423 280.643 70.7877Z" fill="#514E6D"/>
<path d="M164.722 124.419L136.718 130.146L136.08 130.085L111.47 127.602V96.4185L141.596 91.3257L163.449 93.8741L163.457 94.0123V94.0774L164.722 124.419Z" fill="#FFA400"/>
<path opacity="0.1" d="M164.722 124.419L136.718 130.146L136.08 130.085V98.1175L163.458 94.0123L164.722 124.419Z" fill="black"/>
<path opacity="0.05" d="M163.457 94.0774L163.449 94.0855L136.08 98.1175L111.47 96.4185L141.596 91.3257L163.449 93.8741L163.457 94.0123V94.0774Z" fill="black"/>
<path d="M179.355 93.5287L151.352 99.2597L150.714 99.1947L126.104 96.7113V65.5283L156.23 60.4354L178.083 62.9839L178.091 63.1221V63.1871L179.355 93.5287Z" fill="#514E6D"/>
<path opacity="0.2" d="M179.356 93.5286L151.352 99.2596L150.714 99.1946V67.2271L178.092 63.1219L179.356 93.5286Z" fill="black"/>
<path opacity="0.05" d="M178.091 63.1871L178.083 63.1952L150.714 67.2272L126.104 65.5283L156.23 60.4354L178.083 62.9839L178.091 63.1221V63.1871Z" fill="black"/>
</g>
<defs>
<clipPath id="clip0">
<rect width="386" height="286" fill="white"/>
</clipPath>
</defs>
</svg>
