<svg width="300" height="285" viewBox="0 0 300 285" fill="none" xmlns="http://www.w3.org/2000/svg">
<g opacity="0.9">
<path d="M163.41 270.428C238.846 270.428 300 263.615 300 255.212C300 246.808 238.846 239.995 163.41 239.995C87.9732 239.995 26.8198 246.808 26.8198 255.212C26.8198 263.615 87.9732 270.428 163.41 270.428Z" fill="#3F3D56"/>
<path d="M231.151 238.375L233.506 245.611C233.506 245.611 244.852 257.297 240.748 260.465C236.645 263.633 227.439 246.935 227.439 246.935L225.742 238.765L231.151 238.375Z" fill="#FFB8B8"/>
<path d="M209.385 182.364L212.819 181.222C212.819 181.222 218.161 182.744 218.924 188.07C219.687 193.395 225.41 220.404 225.41 220.404C225.41 220.404 227.699 221.545 226.173 223.447C224.647 225.35 233.804 242.468 233.804 242.468L226.554 245.891C226.554 245.891 212.056 230.675 212.056 229.154C212.056 227.632 212.438 226.11 212.438 224.589C212.438 223.067 212.056 223.067 212.438 221.926C212.692 220.931 212.82 219.909 212.819 218.883L210.148 212.796L209.385 182.364Z" fill="#FFA400"/>
<path d="M34.4977 208.458C53.5502 208.458 68.9953 177.037 68.9953 138.277C68.9953 99.5174 53.5502 68.0963 34.4977 68.0963C15.4451 68.0963 0 99.5174 0 138.277C0 177.037 15.4451 208.458 34.4977 208.458Z" fill="#FFA400"/>
<path d="M34.1807 139.005C35.9016 108.456 39.3688 87.8208 39.4036 87.6159L38.6513 87.4889C38.6165 87.694 35.1432 108.362 33.4195 138.951C31.8289 167.182 31.4452 209.884 38.6511 252.991L39.4038 252.867C32.2101 209.832 32.5929 167.195 34.1807 139.005Z" fill="#3F3D56"/>
<path d="M65.3305 124.045L34.1392 140.69L34.4993 141.36L65.6906 124.715L65.3305 124.045Z" fill="#3F3D56"/>
<path d="M1.57135 132.387L1.21143 133.058L32.4072 149.695L32.7671 149.024L1.57135 132.387Z" fill="#3F3D56"/>
<path d="M116.203 192.074C142.275 192.074 163.41 149.077 163.41 96.037C163.41 42.9972 142.275 0 116.203 0C90.1311 0 68.9956 42.9972 68.9956 96.037C68.9956 149.077 90.1311 192.074 116.203 192.074Z" fill="#E6E6E6"/>
<path d="M115.629 97.0208C117.984 55.2098 122.73 26.9681 122.778 26.6876L122.025 26.5605C121.978 26.8412 117.226 55.116 114.868 96.9664C112.691 135.592 112.166 194.015 122.025 252.991L122.778 252.867C112.931 193.963 113.456 135.605 115.629 97.0208Z" fill="#3F3D56"/>
<path d="M158.461 76.6843L115.778 99.4619L116.138 100.133L158.821 77.3551L158.461 76.6843Z" fill="#3F3D56"/>
<path d="M71.0797 88.1003L70.7197 88.7712L113.409 111.537L113.769 110.866L71.0797 88.1003Z" fill="#3F3D56"/>
<path d="M76.8762 229.497C86.6173 229.497 94.5141 213.432 94.5141 193.615C94.5141 173.798 86.6173 157.733 76.8762 157.733C67.135 157.733 59.2383 173.798 59.2383 193.615C59.2383 213.432 67.135 229.497 76.8762 229.497Z" fill="#E6E6E6"/>
<path d="M76.8607 195.161L76.9651 195.356L92.9125 186.845L92.5526 186.174L76.8939 194.531C77.7605 178.629 79.5327 167.954 79.5684 167.744L78.8161 167.617C78.7771 167.847 76.6715 180.523 75.9241 198.866L60.1309 190.438L59.771 191.108L75.7184 199.619L75.9088 199.264C75.3108 214.403 75.646 233.333 78.816 252.297L79.5686 252.172C76.1124 231.496 76.0363 210.859 76.8607 195.161Z" fill="#3F3D56"/>
<path d="M214.054 146.253C207.921 135.832 195.788 135.346 195.788 135.346C195.788 135.346 183.964 133.825 176.38 149.697C169.31 164.491 159.554 178.775 174.809 182.238L177.565 173.613L179.271 182.88C181.443 183.038 183.622 183.075 185.798 182.993C202.136 182.462 217.694 183.148 217.193 177.252C216.527 169.414 219.955 156.28 214.054 146.253Z" fill="#2F2E41"/>
<path d="M171.306 229.728C171.135 230.817 170.886 231.893 170.562 232.947C170.197 233.979 169.634 234.933 169.3 235.975C168.237 239.298 169.711 243.002 172.065 245.566C174.101 247.778 176.737 249.352 179.653 250.098C181.777 250.635 183.985 250.712 186.174 250.787C192.234 250.993 198.451 251.178 204.194 249.22C206.009 248.585 207.762 247.784 209.429 246.828C209.957 246.575 210.421 246.207 210.787 245.752C211.225 245.125 211.281 244.312 211.278 243.545C211.265 240.962 210.744 238.391 210.867 235.81C210.936 234.381 211.202 232.952 211.071 231.527C210.895 229.914 210.224 228.395 209.149 227.177C208.074 225.959 206.648 225.101 205.067 224.721C203.437 224.369 201.748 224.561 200.089 224.721C195.784 225.137 191.461 225.332 187.135 225.304C182.716 225.275 178.325 224.597 173.928 224.526C172.627 224.505 172.654 224.908 172.24 226.174C171.858 227.339 171.546 228.526 171.306 229.728Z" fill="#2F2E41"/>
<path d="M154.026 227.628C152.838 227.327 151.613 227.196 150.389 227.239C149.101 227.32 147.845 227.67 146.703 228.268C145.56 228.865 144.557 229.696 143.758 230.706C142.967 231.731 142.399 232.909 142.089 234.165C141.78 235.421 141.736 236.727 141.961 238.001C142.257 239.381 142.742 240.713 143.402 241.962C144.366 243.93 145.523 245.894 147.309 247.156C148.384 247.849 149.543 248.404 150.757 248.807L160.162 252.37C161.546 252.894 162.93 253.418 164.327 253.904C171.343 256.343 178.663 257.807 186.079 258.253C188.338 258.388 190.63 258.426 192.833 257.909C193.372 257.838 193.865 257.57 194.216 257.157C194.396 256.843 194.501 256.492 194.525 256.131L195.104 252.056C195.234 251.489 195.217 250.898 195.055 250.339C194.79 249.654 194.125 249.223 193.492 248.857C187.309 245.286 180.089 243.315 174.885 238.414C173.659 237.26 172.634 235.431 171.146 234.647C169.457 233.758 167.469 233.251 165.725 232.432C161.91 230.641 158.16 228.583 154.026 227.628Z" fill="#2F2E41"/>
<path opacity="0.1" d="M163.416 233.121C166.74 234.168 180.775 241.426 183.181 243.96C182.858 244.076 171.917 237.91 171.589 237.811C168.605 236.911 165.604 236.004 162.771 234.686C162.2 234.421 159.067 233.175 159.209 232.451C159.369 231.635 162.825 232.935 163.416 233.121Z" fill="black"/>
<path d="M204.888 260.366C205.076 260.38 205.264 260.325 205.415 260.21C205.481 260.124 205.53 260.026 205.558 259.922C205.586 259.817 205.593 259.708 205.579 259.6L205.564 254.05C203.977 253.289 202.201 253.045 200.458 252.811L192.327 251.718C192.514 251.743 191.056 255.24 191.28 255.707C191.674 256.53 194.685 257.259 195.535 257.647C198.49 258.998 201.56 260.483 204.888 260.366Z" fill="#FFB8B8"/>
<path d="M179.377 254.03C177.841 254.276 176.128 254.494 175.134 255.695C173.873 257.219 174.41 259.491 175.011 261.38C175.1 261.761 175.28 262.116 175.534 262.414C175.945 262.821 176.574 262.881 177.149 262.917C178.549 263.007 180.039 263.076 181.262 262.386C181.817 262.017 182.35 261.619 182.86 261.191C183.761 260.588 184.753 260.132 185.798 259.841C187.717 259.234 189.693 258.824 191.695 258.618C192.484 258.582 193.265 258.444 194.018 258.207C194.396 258.083 194.74 257.875 195.024 257.598C195.307 257.321 195.523 256.983 195.654 256.609C195.938 255.6 195.355 254.572 194.796 253.687C194.099 252.585 193.361 251.425 192.323 250.614C190.808 249.43 190.058 250.339 188.532 251.096C185.646 252.529 182.559 253.518 179.377 254.03Z" fill="#FFB8B8"/>
<path d="M175.365 255.421L165.617 252.523C164.449 252.114 163.227 251.876 161.99 251.817C160.753 251.817 159.46 252.225 158.658 253.171C157.902 254.064 157.686 255.283 157.497 256.44L157.094 258.914C156.825 260.162 156.749 261.443 156.869 262.714C157.053 263.974 157.693 265.234 158.805 265.844C160.154 266.584 161.807 266.223 163.313 265.913C166.353 265.288 169.447 264.954 172.551 264.917C173.717 264.903 174.941 264.918 175.972 264.368C177.198 263.715 177.931 262.334 178.057 260.944C178.249 258.831 177.548 256.07 175.365 255.421Z" fill="#2F2E41"/>
<path d="M208.72 252.896C209.983 252.673 211.098 251.951 212.309 251.525C214.014 250.925 215.861 250.925 217.667 250.931C218.329 250.934 219.035 250.949 219.587 251.318C220.383 251.851 220.586 252.916 220.722 253.868L221.538 259.607C221.691 260.687 221.844 261.795 221.604 262.859C221.365 263.923 220.644 264.948 219.595 265.223C218.32 265.556 217.07 264.737 215.867 264.199C212.859 262.855 209.362 263.198 206.225 262.193C205.643 262.007 205.02 261.722 204.782 261.156C204.675 260.837 204.637 260.499 204.67 260.164C204.724 258.319 204.337 255.8 204.889 254.036C205.386 252.451 207.309 252.896 208.72 252.896Z" fill="#2F2E41"/>
<path d="M229.348 225.317C231.295 224.826 233.315 224.687 235.311 224.908C236.906 225.084 238.548 225.53 239.712 226.64C241.129 227.991 241.584 230.079 241.622 232.042C241.686 235.946 240.398 239.753 237.974 242.821C237.384 243.594 236.681 244.274 235.889 244.84C235.036 245.377 234.126 245.818 233.175 246.155L212.113 254.509C206.572 256.707 201.012 258.912 195.232 260.361C195.074 260.437 194.902 260.481 194.726 260.49C194.551 260.499 194.375 260.472 194.21 260.412C194.045 260.352 193.893 260.259 193.765 260.139C193.636 260.02 193.533 259.875 193.462 259.715C191.615 257.062 190.067 254.214 188.846 251.223C188.791 251.127 188.757 251.021 188.746 250.911C188.736 250.802 188.75 250.691 188.786 250.587C188.863 250.471 188.971 250.379 189.097 250.321L203.995 241.713C205.088 241.139 206.106 240.433 207.027 239.612C207.671 238.983 208.199 238.245 208.583 237.432C208.892 236.783 208.921 235.253 209.316 234.773C209.702 234.304 211.023 234.266 211.633 234.082C212.494 233.816 213.336 233.496 214.156 233.123C217.488 231.623 220.456 229.445 223.65 227.689C225.44 226.66 227.355 225.863 229.348 225.317Z" fill="#2F2E41"/>
<path opacity="0.1" d="M220.903 231.746C218.344 233.679 215.03 235.456 212.493 237.44C211.627 238.117 197.195 246.277 196.991 247.361C199.358 247.762 214.433 237.156 216.59 236.098C218.747 235.039 220.659 233.547 222.553 232.065C223.036 231.688 225.082 230.553 223.696 230.131C222.916 229.894 221.48 231.359 220.903 231.746Z" fill="black"/>
<path d="M195.268 172.473C203.276 172.473 209.767 166.001 209.767 158.017C209.767 150.034 203.276 143.562 195.268 143.562C187.261 143.562 180.77 150.034 180.77 158.017C180.77 166.001 187.261 172.473 195.268 172.473Z" fill="#FFB8B8"/>
<path d="M201.373 170.19C201.373 170.19 199.084 175.897 203.281 178.179C207.478 180.461 190.308 198.721 190.308 198.721L182.678 176.657C182.678 176.657 189.164 174.375 188.019 168.288L201.373 170.19Z" fill="#FFB8B8"/>
<path d="M191.834 185.787L201.075 175.617L213.582 181.983L211.674 226.871L208.622 230.295C208.622 230.295 195.65 241.707 175.81 232.197C175.81 232.197 168.942 226.491 169.324 217.741C169.705 208.992 168.561 207.851 168.561 207.851L168.179 177.038L187.016 173.352L191.834 185.787Z" fill="#FFA400"/>
<path d="M149.466 234.19L147.11 241.427C147.11 241.427 135.765 253.113 139.868 256.281C143.971 259.448 153.178 242.75 153.178 242.75L154.874 234.58L149.466 234.19Z" fill="#FFB8B8"/>
<path d="M171.231 178.179L167.797 177.038C167.797 177.038 162.456 178.559 161.693 183.885C160.93 189.211 155.207 216.22 155.207 216.22C155.207 216.22 152.918 217.361 154.444 219.263C155.97 221.165 146.813 238.283 146.813 238.283L154.062 241.707C154.062 241.707 168.561 226.491 168.561 224.969C168.561 223.448 168.179 221.926 168.179 220.404C168.179 218.883 168.561 218.883 168.179 217.741C167.924 216.747 167.796 215.725 167.797 214.698L170.468 208.612L171.231 178.179Z" fill="#FFA400"/>
<path d="M211.342 145.248L199.355 138.934L182.801 141.517L179.376 156.73L187.902 156.4L190.283 150.811V156.307L194.217 156.155L196.501 147.258L197.928 156.73L211.913 156.442L211.342 145.248Z" fill="#2F2E41"/>
<path d="M126.367 243.111V265.053H59.1475C59.1478 259.233 61.4665 253.653 65.5935 249.538C69.7206 245.423 75.3179 243.111 81.1545 243.111C87.4575 241.152 94.7448 240.528 102.65 240.733C110.109 240.923 118.118 241.855 126.367 243.111Z" fill="#FF6584"/>
<path d="M116.764 260.266H148.373C148.904 260.266 149.413 260.476 149.788 260.85C150.163 261.224 150.374 261.732 150.374 262.261C150.374 262.79 150.163 263.297 149.788 263.671C149.413 264.045 148.904 264.255 148.373 264.255H116.764V260.266Z" fill="#3F3D56"/>
<path d="M122.239 224.333L130.711 214.093C130.907 213.687 131.221 213.35 131.613 213.126C132.006 212.903 132.457 212.804 132.907 212.842C133.357 212.881 133.784 213.055 134.133 213.342C134.481 213.628 134.734 214.014 134.857 214.447L138.198 226.209L122.239 224.333Z" fill="#3F3D56"/>
<path d="M111.963 229.548L115.164 216.663C115.164 216.213 115.301 215.773 115.558 215.402C115.815 215.032 116.179 214.748 116.601 214.589C117.024 214.43 117.485 214.402 117.923 214.511C118.362 214.619 118.757 214.858 119.056 215.196L127.167 224.362L111.963 229.548Z" fill="#FF6584"/>
<path d="M59.1475 265.053H65.5493V278.617C65.5493 279.455 65.3838 280.285 65.062 281.06C64.7403 281.834 64.2687 282.538 63.6743 283.13C63.0798 283.723 62.3741 284.193 61.5974 284.514C60.8206 284.835 59.9882 285 59.1475 285V265.053Z" fill="#FF6584"/>
<path d="M115.564 261.064H147.173C147.704 261.064 148.213 261.274 148.588 261.648C148.963 262.022 149.174 262.53 149.174 263.059C149.174 263.588 148.963 264.095 148.588 264.469C148.213 264.843 147.704 265.053 147.173 265.053H115.564V261.064Z" fill="#FF6584"/>
<path opacity="0.2" d="M126.367 243.111V264.931C123.119 265.275 119.836 264.881 116.763 263.778C113.691 262.675 110.909 260.892 108.626 258.563C106.344 256.235 104.62 253.42 103.585 250.332C102.55 247.244 102.231 243.962 102.651 240.733C110.11 240.923 118.118 241.855 126.367 243.111Z" fill="black"/>
<path d="M126.367 265.053C138.3 265.053 147.973 255.408 147.973 243.511C147.973 231.613 138.3 221.969 126.367 221.969C114.434 221.969 104.761 231.613 104.761 243.511C104.761 255.408 114.434 265.053 126.367 265.053Z" fill="#FF6584"/>
<path d="M147.173 250.692C148.499 250.692 149.574 248.191 149.574 245.107C149.574 242.022 148.499 239.522 147.173 239.522C145.847 239.522 144.772 242.022 144.772 245.107C144.772 248.191 145.847 250.692 147.173 250.692Z" fill="#3F3D56"/>
<path d="M141.372 240.718C141.703 240.718 141.972 240.093 141.972 239.322C141.972 238.551 141.703 237.926 141.372 237.926C141.04 237.926 140.771 238.551 140.771 239.322C140.771 240.093 141.04 240.718 141.372 240.718Z" fill="#3F3D56"/>
<path d="M145.773 237.926C146.104 237.926 146.373 237.301 146.373 236.529C146.373 235.758 146.104 235.133 145.773 235.133C145.441 235.133 145.172 235.758 145.172 236.529C145.172 237.301 145.441 237.926 145.773 237.926Z" fill="#3F3D56"/>
<path d="M124.554 221.729C124.554 221.729 123.354 219.646 123.354 218.375L124.554 221.729Z" fill="#3F3D56"/>
<path d="M125.083 220.382C125.083 220.382 125.737 218.069 126.648 217.181L125.083 220.382Z" fill="#3F3D56"/>
</g>
</svg>
