<svg width="392" height="251" viewBox="0 0 392 251" fill="none" xmlns="http://www.w3.org/2000/svg">
<g opacity="0.9" clip-path="url(#clip0)">
<path d="M106.477 84.1673C123.73 84.1673 137.717 70.2007 137.717 52.9721C137.717 35.7434 123.73 21.7769 106.477 21.7769C89.223 21.7769 75.2363 35.7434 75.2363 52.9721C75.2363 70.2007 89.223 84.1673 106.477 84.1673Z" fill="#FF6584"/>
<path d="M272.52 182.026H17.5273L109.181 51.1687L145.021 0L172.303 38.947L272.52 182.026Z" fill="#F2F2F2"/>
<path d="M261.382 49.5533L168.593 182.026H354.17L261.382 49.5533L168.593 182.026H354.17L261.382 49.5533Z" fill="#F2F2F2"/>
<path d="M145.022 0L147.132 36.7334L140.16 89.5922C140.16 89.5922 197.748 119.868 197.903 121.247C198.058 122.627 185.772 161.444 185.772 161.444L272.521 182.026L145.022 0Z" fill="#E6E6E6"/>
<path d="M261.381 49.5533L276.509 85.0978L303.332 138.866L319.21 146.972C319.21 146.972 318.169 159.562 318.239 161.179C318.31 162.796 354.17 182.026 354.17 182.026L261.381 49.5533Z" fill="#E6E6E6"/>
<path d="M391.572 182.026H0.427948C0.314449 182.026 0.205598 181.981 0.125343 181.901C0.0450869 181.821 0 181.712 0 181.599C0 181.486 0.0450869 181.377 0.125343 181.297C0.205598 181.217 0.314449 181.172 0.427948 181.172H391.572C391.686 181.172 391.794 181.217 391.875 181.297C391.955 181.377 392 181.486 392 181.599C392 181.712 391.955 181.821 391.875 181.901C391.794 181.981 391.686 182.026 391.572 182.026Z" fill="#CCCCCC"/>
<path d="M86.6901 156.741C105.181 156.741 120.171 141.772 120.171 123.308C120.171 104.843 105.181 89.8748 86.6901 89.8748C68.199 89.8748 53.209 104.843 53.209 123.308C53.209 141.772 68.199 156.741 86.6901 156.741Z" fill="#CCCCCC"/>
<path opacity="0.2" d="M61.9682 100.977C58.8451 108.272 58.4215 116.438 60.7729 124.016C63.1243 131.594 68.0976 138.09 74.8041 142.344C81.5105 146.597 89.5131 148.331 97.3818 147.235C105.251 146.139 112.473 142.285 117.758 136.362C115.85 140.818 112.995 144.808 109.389 148.053C105.784 151.299 101.516 153.723 96.8793 155.157C92.2429 156.592 87.3496 157.003 82.5384 156.362C77.7272 155.72 73.1131 154.042 69.0158 151.444C64.9185 148.845 61.436 145.388 58.8096 141.312C56.1832 137.236 54.4756 132.638 53.8053 127.838C53.1349 123.037 53.5177 118.149 54.9272 113.511C56.3367 108.873 58.7392 104.596 61.9682 100.977Z" fill="black"/>
<path d="M86.7815 123.308H86.8739L88.5292 218.096H85.0342L86.7815 123.308Z" fill="#3F3D56"/>
<path d="M129.912 198.272C145.804 198.272 158.686 185.408 158.686 169.539C158.686 153.671 145.804 140.807 129.912 140.807C114.021 140.807 101.139 153.671 101.139 169.539C101.139 185.408 114.021 198.272 129.912 198.272Z" fill="#FFA400"/>
<path opacity="0.2" d="M108.667 150.348C105.983 156.618 105.619 163.635 107.64 170.148C109.661 176.661 113.935 182.243 119.698 185.899C125.462 189.554 132.339 191.044 139.101 190.103C145.864 189.161 152.071 185.849 156.612 180.758C154.973 184.588 152.519 188.016 149.421 190.806C146.323 193.595 142.654 195.678 138.67 196.911C134.685 198.144 130.48 198.497 126.345 197.946C122.21 197.395 118.245 195.953 114.724 193.719C111.202 191.486 108.21 188.515 105.952 185.012C103.695 181.509 102.228 177.558 101.652 173.432C101.076 169.307 101.405 165.106 102.616 161.12C103.827 157.134 105.892 153.458 108.667 150.348Z" fill="black"/>
<path d="M129.991 169.539H130.07L131.493 251H128.489L129.991 169.539Z" fill="#3F3D56"/>
<path d="M169.057 126.246C191.329 126.246 209.385 108.217 209.385 85.9769C209.385 63.7367 191.329 45.7074 169.057 45.7074C146.785 45.7074 128.729 63.7367 128.729 85.9769C128.729 108.217 146.785 126.246 169.057 126.246Z" fill="#FFA400"/>
<path opacity="0.2" d="M198.833 59.0801C202.595 67.8666 203.105 77.7025 200.273 86.8301C197.441 95.9578 191.451 103.782 183.373 108.906C175.295 114.029 165.656 116.117 156.178 114.797C146.7 113.477 138.001 108.835 131.636 101.7C133.934 107.068 137.373 111.873 141.715 115.783C146.057 119.692 151.199 122.612 156.783 124.34C162.368 126.068 168.262 126.563 174.057 125.79C179.852 125.018 185.41 122.997 190.345 119.866C195.28 116.736 199.474 112.572 202.638 107.663C205.801 102.753 207.858 97.2155 208.666 91.4334C209.473 85.6513 209.012 79.763 207.314 74.1765C205.616 68.59 202.723 63.4389 198.833 59.0801Z" fill="black"/>
<path d="M168.946 85.9769H168.835L166.841 200.148H171.051L168.946 85.9769Z" fill="#3F3D56"/>
<path d="M230.563 49.8215L236.038 45.4484C231.785 44.9798 230.037 47.2964 229.322 49.1299C225.999 47.752 222.381 49.5578 222.381 49.5578L233.336 53.5293C232.784 52.0552 231.822 50.769 230.563 49.8215Z" fill="#3F3D56"/>
<path d="M237.66 15.7381L243.135 11.3651C238.881 10.8965 237.134 13.213 236.418 15.0465C233.095 13.6686 229.478 15.4744 229.478 15.4744L240.433 19.446C239.88 17.9719 238.918 16.6857 237.66 15.7381Z" fill="#3F3D56"/>
<path d="M277.084 51.6136L282.56 47.2406C278.306 46.7719 276.558 49.0885 275.843 50.922C272.52 49.5441 268.902 51.3499 268.902 51.3499L279.858 55.3214C279.305 53.8474 278.343 52.5612 277.084 51.6136Z" fill="#3F3D56"/>
<path d="M289.961 244.32C289.961 244.32 290.17 239.936 294.465 240.446L289.961 244.32Z" fill="#3F3D56"/>
<path d="M308.165 244.32C308.165 244.32 308.375 239.936 312.67 240.446L308.165 244.32Z" fill="#3F3D56"/>
<path d="M299.67 244.32C299.67 244.32 299.879 239.936 304.174 240.446L299.67 244.32Z" fill="#3F3D56"/>
<path d="M282.146 244.32C282.146 244.32 281.937 239.936 277.642 240.446L282.146 244.32Z" fill="#3F3D56"/>
<path d="M300.35 244.623C300.35 244.623 300.141 240.239 295.846 240.749L300.35 244.623Z" fill="#3F3D56"/>
<path d="M225.116 180.914L224.688 181.196L256.872 229.887L257.3 229.605L225.116 180.914Z" fill="#2F2E41"/>
<path d="M205.826 240.616L208.966 240.616L210.46 228.52L205.825 228.52L205.826 240.616Z" fill="#A0616A"/>
<path d="M205.024 239.592L211.209 239.592H211.21C212.255 239.592 213.257 240.007 213.996 240.745C214.736 241.483 215.151 242.484 215.151 243.528V243.656L205.025 243.656L205.024 239.592Z" fill="#2F2E41"/>
<path d="M185.301 237.615L188.252 238.687L193.799 227.831L189.444 226.248L185.301 237.615Z" fill="#A0616A"/>
<path d="M184.899 236.379L190.711 238.491L190.711 238.491C191.693 238.848 192.493 239.58 192.935 240.526C193.376 241.472 193.424 242.555 193.066 243.536L193.023 243.656L183.507 240.198L184.899 236.379Z" fill="#2F2E41"/>
<path d="M204.931 158.036L211.591 160.083L216.97 169.035L214.921 179.523L213.896 188.732V229.659C213.896 229.659 206.014 231.705 202.654 229.659L203.906 205.87L195.453 231.194L185.975 227.612L196.733 192.057C196.56 189.428 197.001 186.794 198.021 184.364C198.944 182.2 200.564 180.406 202.625 179.267V177.221L200.576 164.175L204.931 158.036Z" fill="#2F2E41"/>
<path d="M209.979 157.003C213.454 157.003 216.271 154.191 216.271 150.721C216.271 147.251 213.454 144.438 209.979 144.438C206.504 144.438 203.688 147.251 203.688 150.721C203.688 154.191 206.504 157.003 209.979 157.003Z" fill="#A0616A"/>
<path d="M216.052 149.083C215.201 148.913 214.317 149.013 213.525 149.369C212.733 149.725 212.072 150.319 211.635 151.068C211.418 150.273 210.134 150.314 209.659 150.987C209.184 151.66 209.289 152.57 209.443 153.379C209.597 154.189 209.772 155.068 209.397 155.802C209.198 156.145 208.911 156.429 208.565 156.625C208.22 156.821 207.829 156.922 207.432 156.918C206.635 156.899 205.861 156.653 205.2 156.209C203.968 155.452 202.983 154.354 202.365 153.049C201.746 151.743 201.521 150.286 201.717 148.855C201.913 147.424 202.521 146.081 203.467 144.989C204.413 143.897 205.657 143.102 207.046 142.703C208.601 142.256 210.252 142.325 211.868 142.415C213.184 142.417 214.491 142.646 215.73 143.09C216.94 143.601 218.015 144.618 218.238 145.911C218.462 147.204 217.704 149.52 216.395 149.633" fill="#2F2E41"/>
<path d="M206.135 143.586C206.706 143.491 207.259 143.314 207.779 143.061C208.036 142.934 208.262 142.753 208.44 142.53C208.619 142.307 208.747 142.047 208.814 141.769C208.866 141.491 208.814 141.205 208.667 140.964C208.52 140.723 208.288 140.545 208.017 140.465C207.602 140.431 207.185 140.5 206.803 140.666C206.613 140.747 206.406 140.779 206.2 140.759C205.995 140.739 205.797 140.668 205.626 140.552C205.288 140.235 205.369 139.662 205.08 139.302C204.924 139.146 204.725 139.041 204.508 139.001C204.291 138.961 204.067 138.987 203.866 139.078C203.465 139.264 203.106 139.532 202.813 139.864L201.263 141.398C200.961 141.696 200.635 142.066 200.712 142.473C200.782 142.683 200.928 142.859 201.12 142.968C201.312 143.077 201.538 143.113 201.754 143.067C202.193 142.966 202.6 142.759 202.939 142.464C202.453 142.766 202.061 143.199 201.809 143.712C201.688 143.965 201.64 144.247 201.669 144.525C201.699 144.804 201.805 145.069 201.976 145.291C202.529 145.929 203.579 145.841 204.385 145.523C205.45 145.102 206.372 144.386 207.042 143.458" fill="#2F2E41"/>
<path d="M206.148 141.726C204.729 141.402 203.326 140.937 202.339 140.163C201.353 139.389 200.862 138.253 201.422 137.298C201.139 137.783 201.003 138.338 201.029 138.898C201.054 139.458 201.242 139.999 201.568 140.455C202.418 141.549 203.641 142.294 205.003 142.549C205.291 142.638 205.599 142.637 205.886 142.547C206.142 142.433 206.15 142.098 205.852 142.055" fill="#2F2E41"/>
<path d="M223.781 178.71C223.659 178.781 223.541 178.861 223.431 178.95L211.303 175.172L210.621 172.166L205.944 172.601L206.634 178.039C206.69 178.479 206.887 178.888 207.195 179.206C207.504 179.524 207.907 179.734 208.345 179.803L222.619 182.07C222.827 182.574 223.184 183.003 223.642 183.3C224.1 183.596 224.638 183.747 225.183 183.731C225.729 183.715 226.257 183.534 226.697 183.211C227.137 182.888 227.469 182.439 227.647 181.924C227.825 181.409 227.842 180.851 227.696 180.326C227.549 179.801 227.246 179.333 226.826 178.984C226.406 178.635 225.89 178.422 225.346 178.373C224.803 178.324 224.257 178.442 223.781 178.71Z" fill="#A0616A"/>
<path d="M205.443 162.385C205.443 162.385 206.539 159.258 209.833 159.543C213.128 159.827 211.335 172.361 211.335 172.361L204.931 181.058L205.443 162.385Z" fill="#2F2E41"/>
<path d="M242.037 240.326L239.746 235.432L243.286 233.78L245.577 238.674V238.674C245.795 239.143 245.819 239.679 245.642 240.165C245.465 240.651 245.102 241.047 244.633 241.266C244.164 241.485 243.627 241.509 243.14 241.333C242.653 241.156 242.256 240.795 242.037 240.326Z" fill="#FFA400"/>
<path d="M234.156 229.852C235.484 229.852 236.56 228.777 236.56 227.451C236.56 226.125 235.484 225.05 234.156 225.05C232.828 225.05 231.751 226.125 231.751 227.451C231.751 228.777 232.828 229.852 234.156 229.852Z" fill="#FFA400"/>
<path d="M252.572 241.304L250.281 236.41L253.821 234.758L256.112 239.652C256.331 240.121 256.355 240.658 256.178 241.144C256.001 241.63 255.638 242.027 255.169 242.246C254.7 242.465 254.162 242.489 253.675 242.312C253.188 242.136 252.791 241.773 252.572 241.304Z" fill="#FFA400"/>
<path d="M234.162 232.31C234.289 230.963 234.946 229.722 235.988 228.858C237.031 227.994 238.374 227.578 239.723 227.702L255.829 229.197C256.399 229.251 256.925 229.528 257.29 229.968C257.656 230.408 257.832 230.975 257.78 231.544L257.609 233.374C257.455 235.014 256.655 236.525 255.387 237.576C254.118 238.628 252.483 239.134 250.841 238.983L238.777 237.863C237.428 237.736 236.185 237.08 235.32 236.039C234.454 234.998 234.038 233.657 234.162 232.31Z" fill="#3F3D56"/>
<path d="M237.148 240.476L237.649 235.097L241.54 235.458L241.039 240.837C240.99 241.352 240.739 241.827 240.341 242.157C239.942 242.488 239.428 242.646 238.913 242.598C238.397 242.551 237.921 242.3 237.59 241.902C237.259 241.504 237.1 240.991 237.148 240.476Z" fill="#3F3D56"/>
<path d="M248.438 241.524L248.939 236.145L252.83 236.506L252.329 241.886C252.281 242.401 252.029 242.875 251.631 243.206C251.232 243.536 250.718 243.694 250.203 243.646C249.687 243.599 249.211 243.348 248.88 242.95C248.549 242.552 248.39 242.039 248.438 241.524Z" fill="#3F3D56"/>
<path d="M266.25 221.711C266.469 221.483 266.731 221.301 267.021 221.175C267.311 221.049 267.623 220.981 267.94 220.975C268.256 220.97 268.57 221.027 268.865 221.143C269.159 221.259 269.427 221.432 269.654 221.651C269.882 221.871 270.063 222.133 270.189 222.423C270.314 222.713 270.381 223.025 270.386 223.341C270.391 223.657 270.333 223.971 270.216 224.264C270.099 224.558 269.925 224.825 269.704 225.051L265.313 229.579L261.858 226.238L266.25 221.711Z" fill="#FFA400"/>
<path d="M255.872 230.47L259.39 226.842C260.245 225.963 261.415 225.458 262.643 225.438C263.871 225.418 265.056 225.886 265.939 226.738L266.851 227.619C267.901 228.637 268.504 230.03 268.528 231.492C268.551 232.953 267.993 234.365 266.976 235.416L264.077 238.404C263.757 238.734 263.319 238.923 262.86 238.93C262.4 238.938 261.956 238.763 261.625 238.444L255.912 232.918C255.582 232.598 255.392 232.161 255.385 231.702C255.378 231.243 255.553 230.8 255.872 230.47Z" fill="#3F3D56"/>
<path d="M266.772 221.172C266.923 221.016 267.104 220.891 267.303 220.805C267.502 220.719 267.716 220.673 267.933 220.669C268.151 220.666 268.366 220.705 268.568 220.785C268.77 220.865 268.954 220.983 269.11 221.134C269.266 221.285 269.391 221.465 269.477 221.664C269.563 221.863 269.609 222.077 269.613 222.294C269.616 222.51 269.577 222.726 269.497 222.927C269.417 223.129 269.299 223.313 269.148 223.468L264.234 228.535L261.858 226.238L266.772 221.172Z" fill="#3F3D56"/>
<path d="M259.611 229.739L265.873 235.794C266.329 236.238 266.591 236.844 266.6 237.479C266.61 238.115 266.366 238.729 265.923 239.185C265.48 239.642 264.874 239.905 264.237 239.916C263.601 239.927 262.986 239.685 262.527 239.244L256.266 233.189L259.611 229.739Z" fill="#3F3D56"/>
<path d="M266.2 239.393C266.59 238.992 266.724 238.491 266.501 238.274C266.277 238.058 265.78 238.209 265.39 238.61C265.001 239.012 264.866 239.513 265.089 239.73C265.313 239.946 265.81 239.795 266.2 239.393Z" fill="#FFA400"/>
<path d="M256.547 235.67H257.828V228.508H256.547V235.67Z" fill="#2F2E41"/>
<path d="M330.977 205.294H327.302L325.555 191.142H330.978L330.977 205.294Z" fill="#FFB8B8"/>
<path d="M331.914 208.851L320.066 208.851V208.701C320.066 207.48 320.552 206.309 321.417 205.445C322.282 204.582 323.455 204.096 324.678 204.096H324.678L331.914 204.097L331.914 208.851Z" fill="#2F2E41"/>
<path d="M369.495 168.35L370.204 171.95L356.636 176.396L355.589 171.083L369.495 168.35Z" fill="#FFB8B8"/>
<path d="M372.807 166.745L375.096 178.353L374.949 178.381C373.749 178.617 372.504 178.368 371.489 177.687C370.473 177.007 369.77 175.951 369.533 174.753L369.533 174.753L368.136 167.663L372.807 166.745Z" fill="#2F2E41"/>
<path d="M327.049 161.837C327.049 161.837 337.63 172.681 341.807 177.686C345.984 182.691 348.49 179.077 348.49 179.077L359.169 176.22L365.198 174.35C365.198 174.35 364.084 169.066 363.806 169.344C363.527 169.623 347.181 171.132 347.181 171.132C347.181 171.132 342.921 166.008 342.643 162.671C342.364 159.334 335.124 155.441 335.124 155.441L327.049 161.837Z" fill="#2F2E41"/>
<path d="M328.998 161.559C328.998 161.559 326.77 171.013 323.565 173.731C320.359 176.449 322.036 178.799 322.036 178.799L326.492 197.985L332.061 197.707C332.061 197.707 330.076 182.057 329.797 180.11C329.519 178.164 336.516 169.066 336.516 169.066L328.998 161.559Z" fill="#2F2E41"/>
<path d="M310.657 148.228C313.271 148.228 315.391 146.111 315.391 143.501C315.391 140.89 313.271 138.774 310.657 138.774C308.042 138.774 305.923 140.89 305.923 143.501C305.923 146.111 308.042 148.228 310.657 148.228Z" fill="#FFB8B8"/>
<path d="M320.922 157.11C321.758 157.11 324.264 161.837 324.264 161.837C324.264 161.837 329.833 163.505 330.669 162.115C331.504 160.725 333.732 158.5 335.681 157.666C337.63 156.832 336.795 155.998 335.681 155.163C334.567 154.329 330.947 152.105 327.606 148.212C324.264 144.319 318.973 143.485 318.416 143.485C317.859 143.485 316.467 149.046 316.467 149.046C315.632 150.714 320.087 157.11 320.922 157.11Z" fill="#FFA400"/>
<path d="M308.735 141.301C309.703 141.751 310.829 144.108 312.187 143.082C312.302 142.975 312.423 142.877 312.552 142.787C312.745 142.712 312.957 142.703 313.156 142.759C313.354 142.816 313.529 142.936 313.654 143.101C313.93 143.408 314.092 143.802 314.356 144.119C314.474 144.289 314.642 144.418 314.836 144.489C315.03 144.56 315.242 144.569 315.442 144.515L316.091 143.108C316.26 142.777 316.389 142.426 316.476 142.064C316.542 141.578 316.496 141.083 316.342 140.617C316.187 140.152 315.928 139.728 315.583 139.378C314.89 138.684 314.093 138.101 313.221 137.651C312.646 137.272 312.012 136.989 311.346 136.812C311.012 136.726 310.662 136.722 310.325 136.799C309.989 136.876 309.676 137.032 309.412 137.254C309.238 137.463 309.048 137.658 308.844 137.838C308.475 138.016 308.085 138.147 307.684 138.23C306.937 138.516 306.501 139.275 306.124 139.98C305.928 140.288 305.806 140.638 305.769 141.001C305.733 142.653 307.87 140.898 308.735 141.301Z" fill="#2F2E41"/>
<path d="M319.113 209.081C326.812 208.807 339.023 209.079 339.146 209.082L339.317 209.085L339.397 208.935C339.416 208.901 341.284 205.507 343.831 206.017L343.941 205.472C341.289 204.942 339.411 207.814 338.993 208.522C337.499 208.49 326.319 208.268 319.093 208.526C311.649 208.792 310.461 206.22 310.449 206.194L309.934 206.404C309.98 206.519 311.097 209.101 318.037 209.101C318.381 209.101 318.74 209.095 319.113 209.081Z" fill="#2F2E41"/>
<path d="M318.071 209.638H317.907C317.337 209.638 316.875 210.099 316.875 210.668V210.832C316.875 211.401 317.337 211.862 317.907 211.862H318.071C318.641 211.862 319.103 211.401 319.103 210.832V210.668C319.103 210.099 318.641 209.638 318.071 209.638Z" fill="#2F2E41"/>
<path d="M337.121 209.638H337.285C337.558 209.638 337.821 209.746 338.014 209.94C338.208 210.133 338.317 210.395 338.317 210.668V210.832C338.317 211.105 338.208 211.367 338.014 211.56C337.821 211.754 337.558 211.862 337.285 211.862H337.121C336.847 211.862 336.585 211.754 336.391 211.56C336.198 211.367 336.089 211.105 336.089 210.832V210.668C336.089 210.395 336.198 210.133 336.391 209.94C336.585 209.746 336.847 209.638 337.121 209.638Z" fill="#2F2E41"/>
<path d="M319.173 167.215C319.267 167.183 319.364 167.158 319.461 167.141L323.056 159.014L321.783 157.27L324.169 155.008L326.722 157.877C326.929 158.109 327.054 158.401 327.08 158.71C327.106 159.019 327.03 159.329 326.865 159.591L321.483 168.151C321.653 168.493 321.716 168.879 321.661 169.257C321.607 169.635 321.438 169.987 321.179 170.267C320.919 170.547 320.58 170.742 320.206 170.825C319.833 170.908 319.443 170.875 319.089 170.732C318.735 170.588 318.432 170.34 318.223 170.021C318.013 169.701 317.905 169.326 317.915 168.944C317.924 168.562 318.049 168.192 318.274 167.884C318.499 167.575 318.812 167.341 319.173 167.215Z" fill="#FFB8B8"/>
<path d="M327.048 155.442C327.048 155.72 323.706 159.612 322.76 159.24C321.814 158.868 321.479 157.666 320.052 156.425C318.626 155.184 317.302 148.49 317.302 148.49C317.302 148.49 327.048 155.163 327.048 155.442Z" fill="#FFA400"/>
</g>
<defs>
<clipPath id="clip0">
<rect width="392" height="251" fill="white"/>
</clipPath>
</defs>
</svg>
