<svg width="113" height="16" viewBox="0 0 113 16" fill="none" xmlns="http://www.w3.org/2000/svg">
<path d="M8.33333 0L10.9083 5.21667L16.6667 6.05833L12.5 10.1167L13.4833 15.85L8.33333 13.1417L3.18333 15.85L4.16667 10.1167L0 6.05833L5.75833 5.21667L8.33333 0Z" fill="#FFA400"/>
<path d="M32.3333 0L34.9083 5.21667L40.6667 6.05833L36.5 10.1167L37.4833 15.85L32.3333 13.1417L27.1833 15.85L28.1667 10.1167L24 6.05833L29.7583 5.21667L32.3333 0Z" fill="#FFA400"/>
<path d="M56.3333 0L58.9083 5.21667L64.6667 6.05833L60.5 10.1167L61.4833 15.85L56.3333 13.1417L51.1833 15.85L52.1667 10.1167L48 6.05833L53.7583 5.21667L56.3333 0Z" fill="#FFA400"/>
<path d="M80.3333 0L82.9083 5.21667L88.6667 6.05833L84.5 10.1167L85.4833 15.85L80.3333 13.1417L75.1833 15.85L76.1667 10.1167L72 6.05833L77.7583 5.21667L80.3333 0Z" fill="#FFA400"/>
<path d="M104.333 0L106.908 5.21667L112.667 6.05833L108.5 10.1167L109.483 15.85L104.333 13.1417L99.1833 15.85L100.167 10.1167L96 6.05833L101.758 5.21667L104.333 0Z" fill="#C4C4C4"/>
<path d="M104.333 13.1417V0L101.758 5.21667L96 6.05833L100.167 10.1167L99.1833 15.85L104.333 13.1417Z" fill="#FFA400"/>
</svg>
