<svg width="197" height="45" viewBox="0 0 197 45" fill="none" xmlns="http://www.w3.org/2000/svg">
<path d="M55.8039 18.8633C55.6528 17.9276 55.4198 17.006 55.1076 16.1087C54.4761 14.261 53.536 12.5265 52.3254 10.9743C51.0665 9.36233 49.546 7.95951 47.8235 6.82061C46.156 5.72703 44.3146 4.90683 42.3729 4.39284C40.3571 3.85965 38.2631 3.65974 36.1789 3.80152C34.038 3.95807 31.9393 4.46183 29.9701 5.29184C28.1293 6.07311 26.4328 7.1417 24.948 8.45515C23.4742 9.75157 22.2244 11.2692 21.2465 12.9501C20.2492 14.6625 19.5508 16.5233 19.1802 18.4571C18.7312 20.8338 18.764 23.2725 19.2769 25.6371C19.3462 25.9576 19.4288 26.2725 19.5246 26.5817C19.6064 26.8774 19.7228 27.1683 19.7996 27.4663C20.4734 29.9316 21.6982 32.223 23.3871 34.1775C25.0393 36.0993 27.0776 37.6744 29.3778 38.8067C31.678 39.9391 34.1919 40.605 36.7661 40.7638C39.5294 40.94 42.3022 40.6139 44.9421 39.8023C47.6379 38.9753 50.1043 37.5639 52.1544 35.675C52.3972 35.4475 52.6326 35.2119 52.8605 34.9684C53.3139 34.4876 53.3882 33.6751 52.8605 33.2064C52.3328 32.7377 51.5301 32.6944 51.0445 33.2064C50.636 33.6408 50.2025 34.0525 49.7462 34.4395C49.538 34.615 49.3225 34.7833 49.1095 34.9515C49.0475 34.9972 48.9855 35.0429 48.9211 35.0861C48.8072 35.1678 48.6883 35.2496 48.5718 35.3265C47.6365 35.9487 46.6407 36.4809 45.5987 36.9154C44.0871 37.5088 42.5062 37.9197 40.8912 38.1389C39.1737 38.3615 37.4344 38.3769 35.7131 38.1845C34.3177 37.9842 32.9525 37.6202 31.6475 37.1005C30.8978 36.7865 30.171 36.4235 29.4721 36.0139C29.1005 35.796 28.7362 35.5644 28.3795 35.3192C28.2085 35.2039 28.0426 35.0789 27.884 34.9587L27.8493 34.9323L27.5668 34.7087C26.8974 34.1701 26.2697 33.5845 25.6888 32.9564C25.5526 32.8098 25.4213 32.6631 25.29 32.5117L25.0992 32.2858C25.0644 32.2449 24.9827 32.1392 24.9406 32.0863C24.7126 31.7882 24.4896 31.4901 24.2816 31.1825C23.7745 30.4246 23.3336 29.627 22.9635 28.798C22.6928 28.1495 22.466 27.4847 22.2846 26.8077C22.1558 26.3077 21.97 25.8221 21.8485 25.3197C21.7272 24.8173 21.6479 24.3727 21.576 23.8943C21.4026 22.5109 21.4026 21.1121 21.576 19.7287C21.7747 18.3667 22.1431 17.0332 22.6736 15.7577C23.0038 15.0263 23.3871 14.3186 23.8207 13.64C24.0471 13.2843 24.2865 12.9365 24.5393 12.5967L24.7226 12.3564L24.7573 12.3132C24.8935 12.1473 25.0298 11.9838 25.171 11.8204C25.7299 11.1845 26.336 10.5891 26.9846 10.0392C27.1382 9.90701 27.2968 9.7796 27.4553 9.65221L27.6461 9.50318L27.594 9.54404L27.6635 9.49117H27.6758C27.7278 9.4527 27.8319 9.37818 27.7724 9.42385C28.1019 9.18349 28.4439 8.95513 28.7908 8.73879C29.5752 8.24876 30.3987 7.82032 31.2535 7.45761C32.5558 6.94261 33.9177 6.58263 35.3093 6.38553C36.7402 6.21729 38.1868 6.21729 39.6177 6.38553C41.012 6.58343 42.3762 6.94421 43.681 7.46C44.4285 7.77287 45.1521 8.13675 45.8464 8.5489C46.2156 8.76764 46.5749 9.0008 46.9266 9.24358L47.1967 9.43828L47.2141 9.45029C47.3876 9.58251 47.5584 9.71711 47.7294 9.85412C48.3863 10.3937 49.0017 10.9794 49.5703 11.6065C49.7041 11.7579 49.8379 11.9093 49.9692 12.0632L50.1228 12.2507C50.103 12.2242 50.0856 12.2026 50.1228 12.2507L50.1698 12.3084L50.2392 12.3924L50.1475 12.2819C50.1698 12.3084 50.1921 12.3371 50.2069 12.3588C50.468 12.6937 50.7157 13.0375 50.9502 13.39C51.4495 14.152 51.8845 14.9519 52.251 15.7817C52.7841 17.0494 53.1552 18.3758 53.3559 19.7311C53.4406 20.3551 53.4845 20.9838 53.4874 21.6132V21.6325C53.4914 22.0067 53.4715 22.3808 53.4279 22.7526C53.3248 23.3958 53.1468 24.0255 52.8977 24.6299C52.6791 25.0993 52.4179 25.5491 52.1172 25.9735C52.0801 26.0288 52.038 26.0793 51.9983 26.1322C51.9586 26.1851 51.9562 26.1948 51.9363 26.2187L51.8991 26.2668L51.924 26.2331C51.8793 26.286 51.8347 26.3389 51.7877 26.3894C51.6216 26.5814 51.4454 26.7653 51.2599 26.9398C51.0766 27.1154 50.8833 27.2812 50.6851 27.4398L50.539 27.5528L50.5861 27.5168C50.4771 27.5937 50.3656 27.6682 50.2541 27.7403C49.8611 27.9935 49.4468 28.2139 49.0152 28.3989C48.4168 28.625 47.7945 28.7862 47.1596 28.8796C46.5181 28.9482 45.8709 28.9482 45.2295 28.8796C44.5912 28.7871 43.9655 28.6258 43.3639 28.3989C43.2672 28.3556 43.1707 28.3148 43.0765 28.2691L44.4342 26.125C44.6206 25.9216 44.7423 25.6704 44.7848 25.4015C44.8273 25.1325 44.7888 24.8574 44.6738 24.6093C44.5589 24.3611 44.3725 24.1504 44.137 24.0027C43.9015 23.855 43.627 23.7764 43.3466 23.7766C43.1112 23.7781 42.8797 23.8351 42.6721 23.9428C42.4645 24.0503 42.287 24.2053 42.1549 24.3943C41.9791 24.1457 41.7259 23.9585 41.4325 23.8597C41.1389 23.7609 40.8205 23.7558 40.5238 23.8453C40.2272 23.9348 39.968 24.1141 39.7839 24.3569C39.5999 24.5997 39.5008 24.8933 39.5013 25.1948C39.5035 25.4171 39.5586 25.6359 39.6623 25.8341L40.9532 28.1585C40.7873 28.2451 40.6163 28.3245 40.4577 28.3989C39.8656 28.6235 39.25 28.7848 38.6218 28.8796C37.9632 28.9507 37.2983 28.9507 36.6397 28.8796C35.9831 28.786 35.3399 28.6198 34.7221 28.3845C34.361 28.2274 34.0116 28.0458 33.6766 27.8413C33.4932 27.7283 33.3123 27.6009 33.1364 27.4807L33.0572 27.4182C32.9679 27.3485 32.8813 27.2764 32.8094 27.2042C32.4691 26.9084 32.1534 26.587 31.8654 26.2428L31.8183 26.1875L31.6375 25.9472C31.5829 25.8702 31.5309 25.7933 31.479 25.7068C31.4071 25.5361 31.3401 25.3606 31.2807 25.1828C31.1599 24.8274 31.0647 24.4643 30.9958 24.0962C30.9282 23.7428 30.8836 23.3856 30.862 23.0266C30.7319 21.6329 30.9418 20.2291 31.4747 18.9288C32.0075 17.6283 32.8484 16.4679 33.9293 15.5414C34.0779 15.6255 34.2216 15.7168 34.3579 15.8106C34.3653 15.8096 34.3728 15.8096 34.3802 15.8106C34.9773 16.2159 35.4992 16.7166 35.9237 17.2913C36.3655 17.0255 36.8296 16.7963 37.3112 16.6063C37.8923 16.3813 38.4947 16.2123 39.1098 16.1015C40.0042 15.9438 40.9178 15.9171 41.8204 16.0221H41.855C41.971 16.0319 42.0876 16.0263 42.2019 16.0053C42.4949 15.9553 42.7591 15.8036 42.9452 15.5785C43.1311 15.3533 43.2263 15.0701 43.2128 14.7818C43.2106 14.731 43.2049 14.6804 43.1954 14.6304C43.1504 14.4022 43.0371 14.1922 42.8697 14.0262C42.7022 13.8604 42.4881 13.7461 42.2539 13.6977C42.2105 13.6889 42.1668 13.6826 42.1226 13.6785C40.0603 13.3594 37.947 13.7056 36.1071 14.664L36.0476 14.6953C36.0476 14.6953 36.0476 14.6953 36.0328 14.676C35.9311 14.5582 35.8295 14.4357 35.7231 14.3323C34.8525 13.3942 33.773 12.661 32.5666 12.1881C30.9977 13.7604 29.8074 15.6505 29.0813 17.7223C28.3552 19.7942 28.1112 21.9965 28.367 24.1708C28.4018 24.4496 28.4439 24.7285 28.4959 25.0096C28.5714 25.3768 28.6706 25.7389 28.7933 26.0938C28.8254 26.1898 28.8626 26.2836 28.8998 26.3774V26.3918C28.8998 26.4159 28.9172 26.4422 28.9295 26.4687C28.9496 26.5157 28.9728 26.5615 28.9989 26.6058C29.9423 28.1947 31.3316 29.491 33.0051 30.3435C34.8852 31.2762 37.0197 31.6124 39.1074 31.305C40.079 31.1728 41.0236 30.8946 41.907 30.4806C44.2372 31.5762 46.9187 31.7361 49.3695 30.9253C51.7971 30.1031 53.8045 28.4044 54.9739 26.1827C55.6434 24.8791 56.0105 23.449 56.0491 21.993C56.0491 21.9737 56.0491 21.9569 56.0491 21.9353C56.0642 20.9062 55.9821 19.8779 55.8039 18.8633ZM49.0896 34.9684C49.1688 34.9106 49.3374 34.7689 49.0896 34.9684V34.9684ZM27.9757 35.0524C27.9469 35.0343 27.9196 35.0143 27.8939 34.9924L27.9757 35.0524ZM47.2166 9.4551C47.2559 9.47721 47.2919 9.50474 47.323 9.53684L47.2166 9.4551Z" fill="#005EB8"/>
<path d="M83.3855 20.6668C83.3855 17.362 80.6816 14.6582 77.3469 14.6582C75.5443 14.6582 73.922 15.4392 72.8104 16.7311C71.6989 15.4392 70.0765 14.6582 68.274 14.6582C64.9393 14.6582 62.2354 17.362 62.2354 20.6668V28.2375C62.2354 29.0786 62.8964 29.7397 63.7375 29.7397C64.5488 29.7397 65.2097 29.0786 65.2097 28.2375V20.6668C65.2097 18.9843 66.5917 17.6324 68.274 17.6324C69.9564 17.6324 71.3083 18.9843 71.3083 20.6668V28.2375C71.3083 29.0786 71.9993 29.7397 72.8104 29.7397C73.6215 29.7397 74.2826 29.0786 74.2826 28.2375V20.6668C74.2826 18.9843 75.6646 17.6324 77.3469 17.6324C79.0293 17.6324 80.4113 18.9843 80.4113 20.6668C80.4113 20.7268 80.4113 20.7568 80.4113 20.7869C80.4113 20.847 80.4113 20.8771 80.4113 20.9371V28.2375C80.4113 29.0786 81.0722 29.7397 81.8833 29.7397C82.6945 29.7397 83.3855 29.0786 83.3855 28.2375V20.9371C83.3855 20.8771 83.3855 20.847 83.3555 20.7869C83.3855 20.7568 83.3855 20.7268 83.3855 20.6668Z" fill="#005EB8"/>
<path d="M92.7013 14.5986C88.5253 14.5986 85.1606 17.9633 85.1606 22.1393C85.1606 26.2852 88.5253 29.68 92.7013 29.68C93.8129 29.68 95.345 29.7101 97.3279 28.3882C98.0189 27.9376 98.4094 27.1564 98.049 26.4053C97.6884 25.6843 96.7571 25.2637 96.0661 25.7144C94.6241 26.6457 93.3923 26.7058 92.7013 26.7058C90.6885 26.7058 89.006 25.414 88.3752 23.6114H98.74C99.5811 23.6114 100.242 22.9504 100.242 22.1393C100.242 17.2424 96.3365 14.5986 92.7013 14.5986ZM92.7013 17.5728C94.5039 17.5728 96.4267 18.5342 97.0575 20.6372H88.3752C89.006 18.8646 90.6885 17.5728 92.7013 17.5728Z" fill="#005EB8"/>
<path d="M112.772 14.6284C111.931 14.6284 111.27 15.2894 111.27 16.1006V23.6112C111.27 25.3236 109.888 26.7357 108.146 26.7357C106.433 26.7357 105.051 25.3236 105.051 23.6112V16.1006C105.051 15.2894 104.39 14.6284 103.549 14.6284C102.738 14.6284 102.077 15.2894 102.077 16.1006V23.6413V23.6714C102.107 27.0061 104.811 29.7099 108.146 29.7099C111.511 29.7099 114.214 27.0061 114.245 23.6714V23.6413V16.1006C114.245 15.2894 113.583 14.6284 112.772 14.6284Z" fill="#005EB8"/>
<path d="M132.943 14.5383C131.23 14.5383 129.638 15.109 128.377 16.0704V8.58977C128.377 7.77862 127.715 7.11768 126.904 7.11768C126.063 7.11768 125.402 7.77862 125.402 8.58977V22.0489V22.079C125.402 26.2248 128.796 29.6196 132.943 29.6196C137.119 29.6196 140.483 26.2248 140.483 22.079C140.483 17.903 137.119 14.5383 132.943 14.5383ZM132.943 26.6454C130.419 26.6454 128.377 24.6025 128.377 22.079V22.0489C128.377 19.5554 130.419 17.5125 132.943 17.5125C135.466 17.5125 137.51 19.5554 137.51 22.079C137.51 24.5725 135.466 26.6454 132.943 26.6454Z" fill="#005EB8"/>
<path d="M143.714 29.7099C144.525 29.7099 145.186 29.049 145.186 28.2077V16.1005C145.186 15.2894 144.525 14.6284 143.714 14.6284C142.873 14.6284 142.212 15.2894 142.212 16.1005V28.2077C142.212 29.049 142.873 29.7099 143.714 29.7099ZM143.714 11.6241C144.104 11.6241 144.495 11.4739 144.765 11.2035C145.036 10.9331 145.186 10.5426 145.186 10.152C145.186 9.76148 145.036 9.37092 144.765 9.10054C144.495 8.83015 144.104 8.6499 143.714 8.6499C143.324 8.6499 142.933 8.83015 142.663 9.10054C142.392 9.37092 142.212 9.76148 142.212 10.152C142.212 10.5426 142.392 10.9331 142.663 11.2035C142.933 11.4739 143.324 11.6241 143.714 11.6241Z" fill="#005EB8"/>
<path d="M155.085 22.1387L159.05 17.0013C159.561 16.3404 159.441 15.4091 158.779 14.8983C158.149 14.3877 157.218 14.5078 156.707 15.1687L153.192 19.7052L149.678 15.1687C149.167 14.5078 148.235 14.3877 147.604 14.8983C146.943 15.4091 146.823 16.3404 147.334 17.0013L151.3 22.1387L147.334 27.276C146.823 27.9369 146.943 28.8682 147.604 29.3489C147.874 29.5592 148.175 29.6793 148.505 29.6793C148.956 29.6793 149.377 29.4691 149.678 29.1086L153.192 24.5721L156.707 29.1086C157.007 29.4691 157.428 29.6793 157.879 29.6793C158.209 29.6793 158.51 29.5592 158.779 29.3489C159.441 28.8682 159.561 27.9369 159.05 27.276L155.085 22.1387Z" fill="#005EB8"/>
<path d="M162.698 29.7099C163.508 29.7099 164.169 29.049 164.169 28.2077V16.1005C164.169 15.2894 163.508 14.6284 162.698 14.6284C161.856 14.6284 161.195 15.2894 161.195 16.1005V28.2077C161.195 29.049 161.856 29.7099 162.698 29.7099ZM162.698 11.6241C163.087 11.6241 163.478 11.4739 163.749 11.2035C164.019 10.9331 164.169 10.5426 164.169 10.152C164.169 9.76148 164.019 9.37092 163.749 9.10054C163.478 8.83015 163.087 8.6499 162.698 8.6499C162.307 8.6499 161.916 8.83015 161.646 9.10054C161.375 9.37092 161.195 9.76148 161.195 10.152C161.195 10.5426 161.375 10.9331 161.646 11.2035C161.916 11.4739 162.307 11.6241 162.698 11.6241Z" fill="#005EB8"/>
<path d="M173.425 14.5986C169.279 14.5986 165.885 17.9633 165.885 22.1393V28.1778C165.885 29.0191 166.545 29.68 167.357 29.68C168.198 29.68 168.86 29.0191 168.86 28.1778V22.1393C168.86 19.6157 170.901 17.5728 173.425 17.5728C175.949 17.5728 177.993 19.6157 177.993 22.1393V28.1778C177.993 29.0191 178.653 29.68 179.464 29.68C180.305 29.68 180.966 29.0191 180.966 28.1778V22.1393C180.966 17.9633 177.572 14.5986 173.425 14.5986Z" fill="#005EB8"/>
</svg>
