<svg width="123" height="30" viewBox="0 0 123 30" fill="none" xmlns="http://www.w3.org/2000/svg">
<path d="M28.3434 11.8665C28.2274 11.1314 28.0487 10.4075 27.8091 9.70256C27.3245 8.25115 26.6032 6.88861 25.6742 5.66926C24.7082 4.403 23.5416 3.30102 22.2198 2.40636C20.9403 1.54729 19.5273 0.902991 18.0374 0.499229C16.4906 0.08038 14.8838 -0.0766541 13.2845 0.0347191C11.6417 0.157695 10.0313 0.553421 8.52032 1.20543C7.10778 1.81916 5.80602 2.65859 4.66674 3.69037C3.53577 4.70878 2.5768 5.90096 1.82646 7.2214C1.06112 8.56657 0.525362 10.0283 0.240923 11.5474C-0.103586 13.4144 -0.0784017 15.3302 0.315067 17.1876C0.368298 17.4394 0.431669 17.6867 0.505179 17.9297C0.567916 18.1619 0.657269 18.3904 0.716204 18.6245C1.2332 20.5612 2.17304 22.3611 3.46903 23.8965C4.73677 25.4062 6.30085 26.6435 8.06587 27.533C9.83089 28.4226 11.7599 28.9456 13.7351 29.0703C15.8555 29.2088 17.9832 28.9527 20.0088 28.315C22.0773 27.6655 23.9699 26.5567 25.543 25.0729C25.7293 24.8942 25.9099 24.7091 26.0848 24.5178C26.4327 24.1401 26.4898 23.5019 26.0848 23.1337C25.6799 22.7655 25.0639 22.7315 24.6913 23.1337C24.3778 23.4749 24.0453 23.7983 23.6951 24.1024C23.5354 24.2402 23.37 24.3724 23.2065 24.5046C23.159 24.5404 23.1115 24.5763 23.062 24.6103C22.9746 24.6745 22.8833 24.7387 22.794 24.7991C22.0762 25.2879 21.3122 25.706 20.5126 26.0473C19.3528 26.5134 18.1396 26.8362 16.9005 27.0084C15.5826 27.1833 14.248 27.1954 12.9271 27.0443C11.8563 26.8869 10.8088 26.6009 9.80738 26.1927C9.23217 25.946 8.6745 25.6609 8.1382 25.3392C7.85303 25.168 7.57356 24.9861 7.2998 24.7935C7.16862 24.7028 7.04125 24.6046 6.91957 24.5102L6.89296 24.4895L6.67623 24.3138C6.16251 23.8908 5.68086 23.4307 5.23518 22.9373C5.13062 22.8221 5.02986 22.7069 4.9291 22.588L4.78271 22.4105C4.75609 22.3784 4.69336 22.2953 4.66104 22.2538C4.48613 22.0196 4.31503 21.7855 4.15534 21.5438C3.76632 20.9484 3.42801 20.3219 3.14394 19.6706C2.93625 19.1613 2.76224 18.639 2.62303 18.1072V18.1072C2.52417 17.7144 2.38159 17.333 2.28843 16.9383C2.19528 16.5437 2.13444 16.1944 2.07931 15.8186C1.94623 14.7318 1.94623 13.633 2.07931 12.5463C2.23169 11.4764 2.5145 10.4289 2.92151 9.42688C3.17489 8.85236 3.46904 8.29645 3.80173 7.76333C3.97537 7.48387 4.15914 7.2107 4.35306 6.94383L4.49374 6.755L4.52036 6.72101C4.62492 6.59072 4.72948 6.46232 4.83784 6.33392C5.26666 5.83437 5.73178 5.36672 6.22947 4.93473C6.34734 4.83088 6.46901 4.7308 6.59068 4.63072L6.73707 4.51365L6.69714 4.54575L6.75037 4.50421H6.75988C6.7998 4.474 6.87965 4.41546 6.83402 4.45134C7.08687 4.26251 7.34923 4.08313 7.61539 3.91319C8.21729 3.52824 8.84921 3.19169 9.5051 2.90675C10.5044 2.50219 11.5494 2.21941 12.6172 2.06459C13.7152 1.93242 14.8253 1.93242 15.9233 2.06459C16.993 2.22005 18.0399 2.50345 19.0411 2.90864C19.6147 3.15441 20.1699 3.44025 20.7027 3.76401C20.986 3.93584 21.2617 4.119 21.5316 4.30972L21.7388 4.46267L21.7521 4.47211C21.8852 4.57596 22.0164 4.6817 22.1476 4.78933C22.6517 5.21323 23.1238 5.67331 23.5601 6.16587C23.6628 6.28483 23.7654 6.40379 23.8662 6.52464L23.9841 6.67192C23.9556 6.63415 23.9689 6.65115 23.9841 6.67192L24.0202 6.71724L24.0734 6.78333L24.0031 6.69647C24.0202 6.71724 24.0373 6.7399 24.0487 6.75689C24.249 7.01999 24.4391 7.29001 24.619 7.56695C25.0021 8.16552 25.3359 8.79383 25.6171 9.44576C26.0262 10.4416 26.311 11.4835 26.465 12.5482C26.5299 13.0384 26.5636 13.5322 26.5658 14.0267V14.0418C26.5689 14.3357 26.5537 14.6296 26.5202 14.9217C26.441 15.4269 26.3046 15.9217 26.1133 16.3964C25.9456 16.7652 25.7452 17.1184 25.5145 17.4519C25.486 17.4954 25.4536 17.535 25.4232 17.5766C25.3928 17.6181 25.3909 17.6257 25.3757 17.6445L25.3472 17.6823L25.3662 17.6559C25.332 17.6974 25.2978 17.739 25.2616 17.7786C25.1341 17.9295 24.999 18.0738 24.8567 18.211C24.716 18.3489 24.5677 18.4792 24.4156 18.6038L24.3035 18.6925L24.3396 18.6642C24.2559 18.7246 24.1704 18.7832 24.0848 18.8398C23.7833 19.0387 23.4653 19.2118 23.1343 19.3572C22.6751 19.5348 22.1975 19.6614 21.7103 19.7348C21.2182 19.7887 20.7215 19.7887 20.2293 19.7348C19.7395 19.6621 19.2594 19.5354 18.7978 19.3572C18.7237 19.3232 18.6495 19.2911 18.5773 19.2552L19.6191 17.5709C19.7621 17.4112 19.8555 17.2138 19.8881 17.0025C19.9207 16.7913 19.8912 16.5751 19.803 16.3802C19.7148 16.1852 19.5717 16.0198 19.391 15.9037C19.2103 15.7877 18.9997 15.726 18.7845 15.7261C18.6039 15.7273 18.4263 15.7721 18.267 15.8566C18.1077 15.9412 17.9715 16.0629 17.8701 16.2114C17.7352 16.0161 17.5409 15.869 17.3157 15.7913C17.0905 15.7137 16.8462 15.7098 16.6186 15.7801C16.3909 15.8504 16.192 15.9912 16.0508 16.182C15.9096 16.3727 15.8336 16.6034 15.8339 16.8402C15.8356 17.0148 15.8779 17.1867 15.9575 17.3424V17.3424L16.948 19.1684C16.8206 19.2363 16.6895 19.2987 16.5678 19.3572C16.1134 19.5336 15.6411 19.6603 15.159 19.7348C14.6536 19.7907 14.1436 19.7907 13.6381 19.7348C13.1344 19.6612 12.6407 19.5307 12.1667 19.3459C11.8896 19.2224 11.6215 19.0798 11.3644 18.9191C11.2237 18.8304 11.0849 18.7303 10.95 18.6359L10.8891 18.5868C10.8207 18.532 10.7541 18.4754 10.699 18.4187C10.4379 18.1863 10.1957 17.9338 9.97468 17.6634L9.93856 17.62L9.79978 17.4312C9.75795 17.3707 9.71803 17.3103 9.67811 17.2423C9.62297 17.1083 9.57164 16.9704 9.52602 16.8307C9.43333 16.5516 9.36028 16.2664 9.30739 15.9772C9.25551 15.6995 9.22123 15.4189 9.20473 15.1369V15.1369C9.1049 14.0422 9.26593 12.9394 9.67481 11.9179C10.0837 10.8964 10.7289 9.98481 11.5583 9.25693C11.6724 9.32302 11.7827 9.39478 11.8872 9.46842C11.8929 9.46771 11.8986 9.46771 11.9043 9.46842C12.3625 9.78681 12.763 10.1801 13.0887 10.6316C13.4277 10.4228 13.7839 10.2427 14.1534 10.0934C14.5993 9.91682 15.0616 9.78401 15.5336 9.6969C16.2198 9.57305 16.9209 9.55204 17.6134 9.63458H17.64C17.7289 9.64234 17.8185 9.6379 17.9062 9.62137C18.131 9.58214 18.3337 9.46294 18.4764 9.28606C18.6192 9.10917 18.6922 8.88671 18.6818 8.66025C18.6802 8.62033 18.6758 8.58058 18.6685 8.54129C18.634 8.36212 18.5471 8.19705 18.4186 8.06673C18.2901 7.93641 18.1257 7.84664 17.9461 7.80865C17.9128 7.80177 17.8792 7.79673 17.8453 7.79354C16.2629 7.5429 14.6413 7.81487 13.2294 8.56772V8.56772L13.1838 8.59227C13.1838 8.59227 13.1838 8.59227 13.1724 8.57716C13.0944 8.48464 13.0165 8.38834 12.9347 8.30714C12.2667 7.57028 11.4384 6.99426 10.5127 6.62283C9.30883 7.85794 8.39547 9.34266 7.83829 10.9702C7.28111 12.5978 7.09396 14.3278 7.29029 16.0358C7.31691 16.2548 7.34923 16.4738 7.38915 16.6948C7.44701 16.9831 7.52321 17.2676 7.61729 17.5464V17.5464C7.642 17.6219 7.67052 17.6955 7.69904 17.7692V17.7805C7.69904 17.7994 7.71234 17.8202 7.72185 17.8409C7.73728 17.8779 7.75506 17.9138 7.77508 17.9486C8.499 19.1968 9.5651 20.2151 10.8492 20.8848C12.2919 21.6174 13.9297 21.8816 15.5317 21.6401C16.2772 21.5362 17.002 21.3177 17.6799 20.9924C19.4679 21.8531 21.5255 21.9786 23.4061 21.3417C25.2689 20.6959 26.8092 19.3615 27.7065 17.6162C28.2203 16.5922 28.5019 15.4688 28.5316 14.325C28.5316 14.3099 28.5316 14.2967 28.5316 14.2797C28.5431 13.4713 28.4801 12.6635 28.3434 11.8665V11.8665ZM23.1913 24.5178C23.3814 24.3611 23.2521 24.4725 23.1913 24.5178V24.5178ZM6.98992 24.5839C6.96788 24.5697 6.94691 24.5539 6.92718 24.5367L6.98992 24.5839ZM21.7541 4.47588C21.7843 4.49325 21.8118 4.51487 21.8358 4.54008L21.7541 4.47588Z" fill="#184AA9"/>
<path d="M49.1635 14.8172C49.1635 12.2449 47.1176 10.1403 44.5943 10.1403C43.2304 10.1403 42.0028 10.7483 41.1617 11.7538C40.3206 10.7483 39.0931 10.1403 37.7291 10.1403C35.2058 10.1403 33.1599 12.2449 33.1599 14.8172V20.7102C33.1599 21.365 33.66 21.8794 34.2965 21.8794C34.9103 21.8794 35.4104 21.365 35.4104 20.7102V14.8172C35.4104 13.5077 36.4561 12.4554 37.7291 12.4554C39.0021 12.4554 40.0251 13.5077 40.0251 14.8172V20.7102C40.0251 21.365 40.5479 21.8794 41.1617 21.8794C41.7755 21.8794 42.2756 21.365 42.2756 20.7102V14.8172C42.2756 13.5077 43.3213 12.4554 44.5943 12.4554C45.8673 12.4554 46.913 13.5077 46.913 14.8172C46.913 14.864 46.913 14.8874 46.913 14.9108C46.913 14.9576 46.913 14.9809 46.913 15.0277V20.7102C46.913 21.365 47.4131 21.8794 48.0269 21.8794C48.6407 21.8794 49.1635 21.365 49.1635 20.7102V15.0277C49.1635 14.9809 49.1635 14.9576 49.1408 14.9108C49.1635 14.8874 49.1635 14.864 49.1635 14.8172Z" fill="#184AA9"/>
<path d="M56.2125 10.0935C53.0527 10.0935 50.5067 12.7126 50.5067 15.9631C50.5067 19.1902 53.0527 21.8326 56.2125 21.8326C57.0536 21.8326 58.2129 21.856 59.7133 20.8271C60.2361 20.4763 60.5316 19.8683 60.2589 19.2837C59.9861 18.7225 59.2814 18.3951 58.7585 18.7459C57.6674 19.4708 56.7353 19.5176 56.2125 19.5176C54.6894 19.5176 53.4164 18.512 52.939 17.1089H60.7817C61.4182 17.1089 61.9183 16.5945 61.9183 15.9631C61.9183 12.1514 58.9631 10.0935 56.2125 10.0935ZM56.2125 12.4086C57.5764 12.4086 59.0313 13.1569 59.5087 14.7939H52.939C53.4164 13.4142 54.6894 12.4086 56.2125 12.4086Z" fill="#184AA9"/>
<path d="M71.3997 10.1169C70.7632 10.1169 70.263 10.6314 70.263 11.2628V17.1089C70.263 18.4419 69.2174 19.5409 67.8989 19.5409C66.6031 19.5409 65.5574 18.4419 65.5574 17.1089V11.2628C65.5574 10.6314 65.0573 10.1169 64.4208 10.1169C63.8071 10.1169 63.3069 10.6314 63.3069 11.2628V17.1557C63.3297 19.7514 65.3756 21.856 67.8989 21.856C70.4449 21.856 72.4908 19.7514 72.5136 17.1557V11.2628C72.5136 10.6314 72.0134 10.1169 71.3997 10.1169Z" fill="#184AA9"/>
<path d="M86.6614 10.0468C85.3657 10.0468 84.1609 10.4911 83.2061 11.2394V5.4166C83.2061 4.78522 82.706 4.27075 82.0922 4.27075C81.4557 4.27075 80.9556 4.78522 80.9556 5.4166V15.9163C80.9556 19.1434 83.5244 21.7859 86.6614 21.7859C89.8212 21.7859 92.3673 19.1434 92.3673 15.9163C92.3673 12.6659 89.8212 10.0468 86.6614 10.0468ZM86.6614 19.4708C84.7519 19.4708 83.2061 17.8806 83.2061 15.9163V15.8929C83.2061 13.952 84.7519 12.3619 86.6614 12.3619C88.571 12.3619 90.1168 13.952 90.1168 15.9163C90.1168 17.8573 88.571 19.4708 86.6614 19.4708Z" fill="#184AA9"/>
<path d="M94.8126 21.856C95.4264 21.856 95.9265 21.3416 95.9265 20.6868V11.2628C95.9265 10.6314 95.4264 10.1169 94.8126 10.1169C94.1761 10.1169 93.676 10.6314 93.676 11.2628V20.6868C93.676 21.3416 94.1761 21.856 94.8126 21.856ZM94.8126 7.77845C95.1081 7.77845 95.4036 7.66153 95.6082 7.45107C95.8128 7.24061 95.9265 6.93661 95.9265 6.6326C95.9265 6.3286 95.8128 6.0246 95.6082 5.81414C95.4036 5.60368 95.1081 5.46337 94.8126 5.46337C94.5171 5.46337 94.2215 5.60368 94.017 5.81414C93.8124 6.0246 93.676 6.3286 93.676 6.6326C93.676 6.93661 93.8124 7.24061 94.017 7.45107C94.2215 7.66153 94.5171 7.77845 94.8126 7.77845Z" fill="#184AA9"/>
<path d="M103.416 15.9631L106.417 11.9643C106.803 11.4498 106.712 10.7249 106.212 10.3274C105.735 9.92984 105.03 10.0234 104.644 10.5378L101.984 14.0689L99.3244 10.5378C98.938 10.0234 98.2333 9.92984 97.7559 10.3274C97.2558 10.7249 97.1649 11.4498 97.5513 11.9643L100.552 15.9631L97.5513 19.9619C97.1649 20.4763 97.2558 21.2013 97.7559 21.5754C97.9605 21.7391 98.1878 21.8326 98.4379 21.8326C98.7789 21.8326 99.0971 21.669 99.3244 21.3883L101.984 17.8573L104.644 21.3883C104.871 21.669 105.189 21.8326 105.53 21.8326C105.78 21.8326 106.008 21.7391 106.212 21.5754C106.712 21.2013 106.803 20.4763 106.417 19.9619L103.416 15.9631Z" fill="#184AA9"/>
<path d="M109.176 21.856C109.789 21.856 110.29 21.3416 110.29 20.6868V11.2628C110.29 10.6314 109.789 10.1169 109.176 10.1169C108.539 10.1169 108.039 10.6314 108.039 11.2628V20.6868C108.039 21.3416 108.539 21.856 109.176 21.856ZM109.176 7.77845C109.471 7.77845 109.767 7.66153 109.971 7.45107C110.176 7.24061 110.29 6.93661 110.29 6.6326C110.29 6.3286 110.176 6.0246 109.971 5.81414C109.767 5.60368 109.471 5.46337 109.176 5.46337C108.88 5.46337 108.585 5.60368 108.38 5.81414C108.175 6.0246 108.039 6.3286 108.039 6.6326C108.039 6.93661 108.175 7.24061 108.38 7.45107C108.585 7.66153 108.88 7.77845 109.176 7.77845Z" fill="#184AA9"/>
<path d="M117.294 10.0935C114.157 10.0935 111.588 12.7126 111.588 15.9631V20.6634C111.588 21.3182 112.088 21.8326 112.702 21.8326C113.339 21.8326 113.839 21.3182 113.839 20.6634V15.9631C113.839 13.9988 115.385 12.4086 117.294 12.4086C119.204 12.4086 120.75 13.9988 120.75 15.9631V20.6634C120.75 21.3182 121.25 21.8326 121.863 21.8326C122.5 21.8326 123 21.3182 123 20.6634V15.9631C123 12.7126 120.431 10.0935 117.294 10.0935Z" fill="#184AA9"/>
</svg>
